<?xml version="1.0" encoding="utf-8"?>
<!-- Generator: Adobe Illustrator 21.0.2, SVG Export Plug-In . SVG Version: 6.00 Build 0)  -->
<svg version="1.1" id="Layer_1" xmlns="http://www.w3.org/2000/svg" xmlns:xlink="http://www.w3.org/1999/xlink" x="0px" y="0px"
	 viewBox="0 0 58 44" style="enable-background:new 0 0 58 44;" xml:space="preserve">
<style type="text/css">
	.st0{fill:none;stroke:#000000;stroke-width:1.5;stroke-miterlimit:10;}
</style>
<title>amp</title>
<path d="M17.9,24.8h-7.4l-1.6,4.4H8l5.8-15.6h0.9l5.8,15.6h-1L17.9,24.8z M17.6,24l-3.4-9.2L10.8,24H17.6z"/>
<path d="M37.6,13.5v15.6h-0.9V14.6l-6,14.6h-0.8L24,14.6v14.6h-0.9V13.5h1.4l5.9,14.3l5.8-14.3H37.6z"/>
<path d="M50.8,17.8c0,2.3-1.8,4.2-4.1,4.3c-0.1,0-0.2,0-0.3,0h-3.7v7.1h-1V13.5h4.6c2.3-0.1,4.3,1.7,4.4,4
	C50.8,17.6,50.8,17.7,50.8,17.8z M49.8,17.8c0.1-1.8-1.4-3.4-3.2-3.4c-0.1,0-0.2,0-0.4,0h-3.6v6.8h3.6c1.8,0.1,3.4-1.2,3.5-3
	C49.8,18,49.8,17.9,49.8,17.8z"/>
<rect x="1.5" y="1.4" class="st0" width="55.1" height="41.2"/>
</svg>
