<?xml version="1.0" encoding="utf-8"?>
<!-- Generator: Adobe Illustrator 18.0.0, SVG Export Plug-In . SVG Version: 6.00 Build 0)  -->
<!DOCTYPE svg PUBLIC "-//W3C//DTD SVG 1.1//EN" "http://www.w3.org/Graphics/SVG/1.1/DTD/svg11.dtd">
<svg version="1.1" id="Layer_1" xmlns="http://www.w3.org/2000/svg" xmlns:xlink="http://www.w3.org/1999/xlink" x="0px" y="0px"
	 viewBox="0 0 45 44" enable-background="new 0 0 45 44" xml:space="preserve">
<g>
	<polyline fill="none" stroke="#000000" stroke-width="1.25" stroke-linejoin="round" stroke-miterlimit="10" points="1.5,26.5 
		8.5,18.4 1.6,10.5 	"/>
	<polyline fill="none" stroke="#000000" stroke-width="1.25" stroke-linejoin="round" stroke-miterlimit="10" points="43.4,10.5 
		36.5,18.4 43.5,26.5 	"/>
	<polygon fill="none" stroke="#000000" stroke-width="1.25" stroke-linejoin="round" stroke-miterlimit="10" points="29.4,26.5 
		36.4,18.4 29.5,10.5 29.2,10.5 22.4,18.4 	"/>
	<polygon fill="none" stroke="#000000" stroke-width="1.25" stroke-linejoin="round" stroke-miterlimit="10" points="15.5,26.5 
		22.5,18.4 15.6,10.5 15.4,10.5 8.5,18.4 	"/>
</g>
<g>
	<polyline fill="none" stroke="#000000" stroke-width="1.25" stroke-linejoin="round" stroke-miterlimit="10" points="1.5,42.5 
		8.5,34.4 1.6,26.5 	"/>
	<polyline fill="none" stroke="#000000" stroke-width="1.25" stroke-linejoin="round" stroke-miterlimit="10" points="43.4,26.5 
		36.5,34.4 43.5,42.5 	"/>
	<polygon fill="none" stroke="#000000" stroke-width="1.25" stroke-linejoin="round" stroke-miterlimit="10" points="29.4,42.5 
		36.4,34.4 29.5,26.5 29.2,26.5 22.4,34.4 	"/>
	<polygon fill="none" stroke="#000000" stroke-width="1.25" stroke-linejoin="round" stroke-miterlimit="10" points="15.5,42.5 
		22.5,34.4 15.6,26.5 15.4,26.5 8.5,34.4 	"/>
</g>
<rect x="1.5" y="1.5" fill="none" stroke="#000000" stroke-width="1.5" stroke-miterlimit="10" width="42" height="41"/>
<line fill="none" stroke="#000000" stroke-width="1.5" stroke-miterlimit="10" x1="1.5" y1="10.5" x2="43.5" y2="10.5"/>
<line fill="none" stroke="#000000" stroke-width="1.5" stroke-miterlimit="10" x1="1.5" y1="7.5" x2="43.5" y2="7.5"/>
<line fill="none" stroke="#000000" stroke-linejoin="round" stroke-miterlimit="10" x1="42" y1="4.5" x2="33" y2="4.5"/>
<line fill="none" stroke="#000000" stroke-linejoin="round" stroke-miterlimit="10" x1="40.5" y1="3" x2="40.5" y2="6"/>
<rect x="4.5" y="43" fill="none" stroke="#000000" stroke-width="1.5" stroke-miterlimit="10" width="7" height="0.5"/>
<rect x="33.5" y="43" fill="none" stroke="#000000" stroke-width="1.5" stroke-miterlimit="10" width="7" height="0.5"/>
</svg>
