<?xml version="1.0" encoding="utf-8"?>
<!-- Generator: Adobe Illustrator 18.0.0, SVG Export Plug-In . SVG Version: 6.00 Build 0)  -->
<!DOCTYPE svg PUBLIC "-//W3C//DTD SVG 1.1//EN" "http://www.w3.org/Graphics/SVG/1.1/DTD/svg11.dtd">
<svg version="1.1" id="Layer_1" xmlns="http://www.w3.org/2000/svg" xmlns:xlink="http://www.w3.org/1999/xlink" x="0px" y="0px"
	 viewBox="0 0 45 44" enable-background="new 0 0 45 44" xml:space="preserve">
<rect x="1.5" y="1.5" fill="none" stroke="#000000" stroke-width="1.5" stroke-miterlimit="10" width="42" height="41"/>
<g>
	<line fill="none" stroke="#000000" stroke-width="1.5" stroke-miterlimit="10" x1="18" y1="4.5" x2="27" y2="4.5"/>
	<line fill="none" stroke="#000000" stroke-width="1.5" stroke-miterlimit="10" x1="12.5" y1="4" x2="12.5" y2="5"/>
	<line fill="none" stroke="#000000" stroke-width="1.5" stroke-miterlimit="10" x1="15.5" y1="4" x2="15.5" y2="5"/>
	<g>
		<line fill="none" stroke="#000000" stroke-width="1.5" stroke-miterlimit="10" x1="29.5" y1="4" x2="29.5" y2="5"/>
		<line fill="none" stroke="#000000" stroke-width="1.5" stroke-miterlimit="10" x1="32.5" y1="4" x2="32.5" y2="5"/>
	</g>
	<line fill="none" stroke="#000000" stroke-width="1.5" stroke-miterlimit="10" x1="8.5" y1="7.5" x2="8.5" y2="1.5"/>
	<line fill="none" stroke="#000000" stroke-width="1.5" stroke-miterlimit="10" x1="36.5" y1="1.5" x2="36.5" y2="7.5"/>
</g>
<line fill="none" stroke="#000000" stroke-width="1.5" stroke-miterlimit="10" x1="43.5" y1="7.5" x2="1.5" y2="7.5"/>
<g>
	<polyline fill="none" stroke="#000000" stroke-miterlimit="10" points="42,21 40,19 42,21 	"/>
	<polyline fill="none" stroke="#000000" stroke-miterlimit="10" points="42,33 40,31 42,33 	"/>
	<polyline fill="none" stroke="#000000" stroke-miterlimit="10" points="37,41 41,37 37,41 	"/>
	<polyline fill="none" stroke="#000000" stroke-miterlimit="10" points="30,41 34,37 30,41 	"/>
	<polyline fill="none" stroke="#000000" stroke-miterlimit="10" points="23,41 27,37 23,41 	"/>
	<polyline fill="none" stroke="#000000" stroke-miterlimit="10" points="16,41 20,37 16,41 	"/>
	<polyline fill="none" stroke="#000000" stroke-miterlimit="10" points="9,41 13,37 9,41 	"/>
	<polyline fill="none" stroke="#000000" stroke-miterlimit="10" points="3,40 6,37 3,40 	"/>
	<polyline fill="none" stroke="#000000" stroke-miterlimit="10" points="3,28 6,25 3,28 	"/>
	<polyline fill="none" stroke="#000000" stroke-miterlimit="10" points="3,16 6,13 3,16 	"/>
	<polyline fill="none" stroke="#000000" stroke-miterlimit="10" points="7,9 9,11 7,9 	"/>
	<polyline fill="none" stroke="#000000" stroke-miterlimit="10" points="14,9 16,11 14,9 	"/>
	<polyline fill="none" stroke="#000000" stroke-miterlimit="10" points="21,9 23,11 21,9 	"/>
	<polyline fill="none" stroke="#000000" stroke-miterlimit="10" points="28,9 30,11 28,9 	"/>
	<polyline fill="none" stroke="#000000" stroke-miterlimit="10" points="35,9 37,11 35,9 	"/>
	<path fill="none" stroke="#000000" stroke-miterlimit="10" d="M34,13l-4,4L34,13z"/>
	<path fill="none" stroke="#000000" stroke-miterlimit="10" d="M37,23l-4-4L37,23z"/>
	<path fill="none" stroke="#000000" stroke-miterlimit="10" d="M27,13l-4,4L27,13z"/>
	<path fill="none" stroke="#000000" stroke-miterlimit="10" d="M30,23l-4-4L30,23z"/>
	<path fill="none" stroke="#000000" stroke-miterlimit="10" d="M20,13l-4,4L20,13z"/>
	<path fill="none" stroke="#000000" stroke-miterlimit="10" d="M23,23l-4-4L23,23z"/>
	<path fill="none" stroke="#000000" stroke-miterlimit="10" d="M13,13l-4,4L13,13z"/>
	<path fill="none" stroke="#000000" stroke-miterlimit="10" d="M16,23l-4-4L16,23z"/>
	<path fill="none" stroke="#000000" stroke-miterlimit="10" d="M5,19l4,4L5,19z"/>
	<path fill="none" stroke="#000000" stroke-miterlimit="10" d="M5,31l4,4L5,31z"/>
	<path fill="none" stroke="#000000" stroke-miterlimit="10" d="M13,25l-4,4L13,25z"/>
	<path fill="none" stroke="#000000" stroke-miterlimit="10" d="M12,31l4,4L12,31z"/>
	<path fill="none" stroke="#000000" stroke-miterlimit="10" d="M20,25l-4,4L20,25z"/>
	<path fill="none" stroke="#000000" stroke-miterlimit="10" d="M19,31l4,4L19,31z"/>
	<path fill="none" stroke="#000000" stroke-miterlimit="10" d="M27,25l-4,4L27,25z"/>
	<path fill="none" stroke="#000000" stroke-miterlimit="10" d="M26,31l4,4L26,31z"/>
	<path fill="none" stroke="#000000" stroke-miterlimit="10" d="M34,25l-4,4L34,25z"/>
	<path fill="none" stroke="#000000" stroke-miterlimit="10" d="M33,31l4,4L33,31z"/>
	<path fill="none" stroke="#000000" stroke-miterlimit="10" d="M41,25l-4,4L41,25z"/>
	<path fill="none" stroke="#000000" stroke-miterlimit="10" d="M37,17l4-4L37,17z"/>
</g>
<rect x="4.5" y="43" fill="none" stroke="#000000" stroke-width="1.5" stroke-miterlimit="10" width="7" height="0.5"/>
<rect x="33.5" y="43" fill="none" stroke="#000000" stroke-width="1.5" stroke-miterlimit="10" width="7" height="0.5"/>
</svg>
