<?xml version="1.0" encoding="utf-8"?>
<!-- Generator: Adobe Illustrator 18.0.0, SVG Export Plug-In . SVG Version: 6.00 Build 0)  -->
<!DOCTYPE svg PUBLIC "-//W3C//DTD SVG 1.1//EN" "http://www.w3.org/Graphics/SVG/1.1/DTD/svg11.dtd">
<svg version="1.1" id="Layer_1" xmlns="http://www.w3.org/2000/svg" xmlns:xlink="http://www.w3.org/1999/xlink" x="0px" y="0px"
	 viewBox="0 0 45 44" enable-background="new 0 0 45 44" xml:space="preserve">
<rect x="1.5" y="1.5" fill="none" stroke="#000000" stroke-width="1.5" stroke-miterlimit="10" width="42" height="40"/>
<line fill="none" stroke="#000000" stroke-width="1.5" stroke-miterlimit="10" x1="1.5" y1="9.5" x2="43.5" y2="9.5"/>
<g>
	<circle cx="5.5" cy="5.5" r="1.5"/>
</g>
<g>
	<circle cx="15.5" cy="5.5" r="1.5"/>
</g>
<g>
	<circle cx="11.5" cy="5.5" r="1.5"/>
</g>
<line fill="none" stroke="#000000" stroke-width="1.5" stroke-miterlimit="10" x1="19.5" y1="3" x2="19.5" y2="8"/>
<g>
	<circle cx="39.5" cy="5.5" r="1.5"/>
</g>
<line fill="none" stroke="#000000" stroke-width="1.5" stroke-miterlimit="10" x1="35.5" y1="3" x2="35.5" y2="8"/>
<line fill="none" stroke="#000000" stroke-width="1.5" stroke-miterlimit="10" x1="33" y1="5.5" x2="22" y2="5.5"/>
<polyline fill="none" stroke="#000000" stroke-width="1.5" stroke-miterlimit="10" points="11.5,41.5 11.5,43.5 4.5,43.5 4.5,41.5 
	"/>
<polyline fill="none" stroke="#000000" stroke-width="1.5" stroke-miterlimit="10" points="40.5,41.5 40.5,43.5 33.5,43.5 
	33.5,41.5 "/>
<g>
	<line fill="none" stroke="#000000" stroke-width="1.5" stroke-miterlimit="10" x1="4.5" y1="13" x2="4.5" y2="11"/>
	<line fill="none" stroke="#000000" stroke-width="1.5" stroke-miterlimit="10" x1="7.5" y1="13" x2="7.5" y2="11"/>
	<line fill="none" stroke="#000000" stroke-width="1.5" stroke-miterlimit="10" x1="10.5" y1="13" x2="10.5" y2="11"/>
	<line fill="none" stroke="#000000" stroke-width="1.5" stroke-miterlimit="10" x1="13.5" y1="13" x2="13.5" y2="11"/>
	<line fill="none" stroke="#000000" stroke-width="1.5" stroke-miterlimit="10" x1="16.5" y1="13" x2="16.5" y2="11"/>
	<line fill="none" stroke="#000000" stroke-width="1.5" stroke-miterlimit="10" x1="19.5" y1="13" x2="19.5" y2="11"/>
	<line fill="none" stroke="#000000" stroke-width="1.5" stroke-miterlimit="10" x1="22.5" y1="13" x2="22.5" y2="11"/>
	<line fill="none" stroke="#000000" stroke-width="1.5" stroke-miterlimit="10" x1="25.5" y1="13" x2="25.5" y2="11"/>
	<line fill="none" stroke="#000000" stroke-width="1.5" stroke-miterlimit="10" x1="28.5" y1="13" x2="28.5" y2="11"/>
	<line fill="none" stroke="#000000" stroke-width="1.5" stroke-miterlimit="10" x1="31.5" y1="13" x2="31.5" y2="11"/>
	<line fill="none" stroke="#000000" stroke-width="1.5" stroke-miterlimit="10" x1="34.5" y1="13" x2="34.5" y2="11"/>
	<g>
		<line fill="none" stroke="#000000" stroke-width="1.5" stroke-miterlimit="10" x1="37.5" y1="13" x2="37.5" y2="11"/>
		<line fill="none" stroke="#000000" stroke-width="1.5" stroke-miterlimit="10" x1="40.5" y1="13" x2="40.5" y2="11"/>
	</g>
</g>
<g>
	<line fill="none" stroke="#000000" stroke-width="1.5" stroke-miterlimit="10" x1="4.5" y1="16" x2="4.5" y2="14"/>
	<line fill="none" stroke="#000000" stroke-width="1.5" stroke-miterlimit="10" x1="7.5" y1="16" x2="7.5" y2="14"/>
	<line fill="none" stroke="#000000" stroke-width="1.5" stroke-miterlimit="10" x1="10.5" y1="16" x2="10.5" y2="14"/>
	<line fill="none" stroke="#000000" stroke-width="1.5" stroke-miterlimit="10" x1="13.5" y1="16" x2="13.5" y2="14"/>
	<line fill="none" stroke="#000000" stroke-width="1.5" stroke-miterlimit="10" x1="16.5" y1="16" x2="16.5" y2="14"/>
	<line fill="none" stroke="#000000" stroke-width="1.5" stroke-miterlimit="10" x1="19.5" y1="16" x2="19.5" y2="14"/>
	<line fill="none" stroke="#000000" stroke-width="1.5" stroke-miterlimit="10" x1="22.5" y1="16" x2="22.5" y2="14"/>
	<line fill="none" stroke="#000000" stroke-width="1.5" stroke-miterlimit="10" x1="25.5" y1="16" x2="25.5" y2="14"/>
	<line fill="none" stroke="#000000" stroke-width="1.5" stroke-miterlimit="10" x1="28.5" y1="16" x2="28.5" y2="14"/>
	<line fill="none" stroke="#000000" stroke-width="1.5" stroke-miterlimit="10" x1="31.5" y1="16" x2="31.5" y2="14"/>
	<line fill="none" stroke="#000000" stroke-width="1.5" stroke-miterlimit="10" x1="34.5" y1="16" x2="34.5" y2="14"/>
	<g>
		<line fill="none" stroke="#000000" stroke-width="1.5" stroke-miterlimit="10" x1="37.5" y1="16" x2="37.5" y2="14"/>
		<line fill="none" stroke="#000000" stroke-width="1.5" stroke-miterlimit="10" x1="40.5" y1="16" x2="40.5" y2="14"/>
	</g>
</g>
<g>
	<line fill="none" stroke="#000000" stroke-width="1.5" stroke-miterlimit="10" x1="4.5" y1="19" x2="4.5" y2="17"/>
	<line fill="none" stroke="#000000" stroke-width="1.5" stroke-miterlimit="10" x1="7.5" y1="19" x2="7.5" y2="17"/>
	<line fill="none" stroke="#000000" stroke-width="1.5" stroke-miterlimit="10" x1="10.5" y1="19" x2="10.5" y2="17"/>
	<line fill="none" stroke="#000000" stroke-width="1.5" stroke-miterlimit="10" x1="13.5" y1="19" x2="13.5" y2="17"/>
	<line fill="none" stroke="#000000" stroke-width="1.5" stroke-miterlimit="10" x1="16.5" y1="19" x2="16.5" y2="17"/>
	<line fill="none" stroke="#000000" stroke-width="1.5" stroke-miterlimit="10" x1="19.5" y1="19" x2="19.5" y2="17"/>
	<line fill="none" stroke="#000000" stroke-width="1.5" stroke-miterlimit="10" x1="22.5" y1="19" x2="22.5" y2="17"/>
	<line fill="none" stroke="#000000" stroke-width="1.5" stroke-miterlimit="10" x1="25.5" y1="19" x2="25.5" y2="17"/>
	<line fill="none" stroke="#000000" stroke-width="1.5" stroke-miterlimit="10" x1="28.5" y1="19" x2="28.5" y2="17"/>
	<line fill="none" stroke="#000000" stroke-width="1.5" stroke-miterlimit="10" x1="31.5" y1="19" x2="31.5" y2="17"/>
	<line fill="none" stroke="#000000" stroke-width="1.5" stroke-miterlimit="10" x1="34.5" y1="19" x2="34.5" y2="17"/>
	<g>
		<line fill="none" stroke="#000000" stroke-width="1.5" stroke-miterlimit="10" x1="37.5" y1="19" x2="37.5" y2="17"/>
		<line fill="none" stroke="#000000" stroke-width="1.5" stroke-miterlimit="10" x1="40.5" y1="19" x2="40.5" y2="17"/>
	</g>
</g>
<g>
	<line fill="none" stroke="#000000" stroke-width="1.5" stroke-miterlimit="10" x1="4.5" y1="22" x2="4.5" y2="20"/>
	<line fill="none" stroke="#000000" stroke-width="1.5" stroke-miterlimit="10" x1="7.5" y1="22" x2="7.5" y2="20"/>
	<line fill="none" stroke="#000000" stroke-width="1.5" stroke-miterlimit="10" x1="10.5" y1="22" x2="10.5" y2="20"/>
	<line fill="none" stroke="#000000" stroke-width="1.5" stroke-miterlimit="10" x1="13.5" y1="22" x2="13.5" y2="20"/>
	<line fill="none" stroke="#000000" stroke-width="1.5" stroke-miterlimit="10" x1="16.5" y1="22" x2="16.5" y2="20"/>
	<line fill="none" stroke="#000000" stroke-width="1.5" stroke-miterlimit="10" x1="19.5" y1="22" x2="19.5" y2="20"/>
	<line fill="none" stroke="#000000" stroke-width="1.5" stroke-miterlimit="10" x1="22.5" y1="22" x2="22.5" y2="20"/>
	<line fill="none" stroke="#000000" stroke-width="1.5" stroke-miterlimit="10" x1="25.5" y1="22" x2="25.5" y2="20"/>
	<line fill="none" stroke="#000000" stroke-width="1.5" stroke-miterlimit="10" x1="28.5" y1="22" x2="28.5" y2="20"/>
	<line fill="none" stroke="#000000" stroke-width="1.5" stroke-miterlimit="10" x1="31.5" y1="22" x2="31.5" y2="20"/>
	<line fill="none" stroke="#000000" stroke-width="1.5" stroke-miterlimit="10" x1="34.5" y1="22" x2="34.5" y2="20"/>
	<g>
		<line fill="none" stroke="#000000" stroke-width="1.5" stroke-miterlimit="10" x1="37.5" y1="22" x2="37.5" y2="20"/>
		<line fill="none" stroke="#000000" stroke-width="1.5" stroke-miterlimit="10" x1="40.5" y1="22" x2="40.5" y2="20"/>
	</g>
</g>
<g>
	<line fill="none" stroke="#000000" stroke-width="1.5" stroke-miterlimit="10" x1="4.5" y1="25" x2="4.5" y2="23"/>
	<line fill="none" stroke="#000000" stroke-width="1.5" stroke-miterlimit="10" x1="7.5" y1="25" x2="7.5" y2="23"/>
	<line fill="none" stroke="#000000" stroke-width="1.5" stroke-miterlimit="10" x1="10.5" y1="25" x2="10.5" y2="23"/>
	<line fill="none" stroke="#000000" stroke-width="1.5" stroke-miterlimit="10" x1="13.5" y1="25" x2="13.5" y2="23"/>
	<line fill="none" stroke="#000000" stroke-width="1.5" stroke-miterlimit="10" x1="16.5" y1="25" x2="16.5" y2="23"/>
	<line fill="none" stroke="#000000" stroke-width="1.5" stroke-miterlimit="10" x1="19.5" y1="25" x2="19.5" y2="23"/>
	<line fill="none" stroke="#000000" stroke-width="1.5" stroke-miterlimit="10" x1="22.5" y1="25" x2="22.5" y2="23"/>
	<line fill="none" stroke="#000000" stroke-width="1.5" stroke-miterlimit="10" x1="25.5" y1="25" x2="25.5" y2="23"/>
	<line fill="none" stroke="#000000" stroke-width="1.5" stroke-miterlimit="10" x1="28.5" y1="25" x2="28.5" y2="23"/>
	<line fill="none" stroke="#000000" stroke-width="1.5" stroke-miterlimit="10" x1="31.5" y1="25" x2="31.5" y2="23"/>
	<line fill="none" stroke="#000000" stroke-width="1.5" stroke-miterlimit="10" x1="34.5" y1="25" x2="34.5" y2="23"/>
	<g>
		<line fill="none" stroke="#000000" stroke-width="1.5" stroke-miterlimit="10" x1="37.5" y1="25" x2="37.5" y2="23"/>
		<line fill="none" stroke="#000000" stroke-width="1.5" stroke-miterlimit="10" x1="40.5" y1="25" x2="40.5" y2="23"/>
	</g>
</g>
<g>
	<line fill="none" stroke="#000000" stroke-width="1.5" stroke-miterlimit="10" x1="4.5" y1="28" x2="4.5" y2="26"/>
	<line fill="none" stroke="#000000" stroke-width="1.5" stroke-miterlimit="10" x1="7.5" y1="28" x2="7.5" y2="26"/>
	<line fill="none" stroke="#000000" stroke-width="1.5" stroke-miterlimit="10" x1="10.5" y1="28" x2="10.5" y2="26"/>
	<line fill="none" stroke="#000000" stroke-width="1.5" stroke-miterlimit="10" x1="13.5" y1="28" x2="13.5" y2="26"/>
	<line fill="none" stroke="#000000" stroke-width="1.5" stroke-miterlimit="10" x1="16.5" y1="28" x2="16.5" y2="26"/>
	<line fill="none" stroke="#000000" stroke-width="1.5" stroke-miterlimit="10" x1="19.5" y1="28" x2="19.5" y2="26"/>
	<line fill="none" stroke="#000000" stroke-width="1.5" stroke-miterlimit="10" x1="22.5" y1="28" x2="22.5" y2="26"/>
	<line fill="none" stroke="#000000" stroke-width="1.5" stroke-miterlimit="10" x1="25.5" y1="28" x2="25.5" y2="26"/>
	<line fill="none" stroke="#000000" stroke-width="1.5" stroke-miterlimit="10" x1="28.5" y1="28" x2="28.5" y2="26"/>
	<line fill="none" stroke="#000000" stroke-width="1.5" stroke-miterlimit="10" x1="31.5" y1="28" x2="31.5" y2="26"/>
	<line fill="none" stroke="#000000" stroke-width="1.5" stroke-miterlimit="10" x1="34.5" y1="28" x2="34.5" y2="26"/>
	<g>
		<line fill="none" stroke="#000000" stroke-width="1.5" stroke-miterlimit="10" x1="37.5" y1="28" x2="37.5" y2="26"/>
		<line fill="none" stroke="#000000" stroke-width="1.5" stroke-miterlimit="10" x1="40.5" y1="28" x2="40.5" y2="26"/>
	</g>
</g>
<g>
	<line fill="none" stroke="#000000" stroke-width="1.5" stroke-miterlimit="10" x1="4.5" y1="31" x2="4.5" y2="29"/>
	<line fill="none" stroke="#000000" stroke-width="1.5" stroke-miterlimit="10" x1="7.5" y1="31" x2="7.5" y2="29"/>
	<line fill="none" stroke="#000000" stroke-width="1.5" stroke-miterlimit="10" x1="10.5" y1="31" x2="10.5" y2="29"/>
	<line fill="none" stroke="#000000" stroke-width="1.5" stroke-miterlimit="10" x1="13.5" y1="31" x2="13.5" y2="29"/>
	<line fill="none" stroke="#000000" stroke-width="1.5" stroke-miterlimit="10" x1="16.5" y1="31" x2="16.5" y2="29"/>
	<line fill="none" stroke="#000000" stroke-width="1.5" stroke-miterlimit="10" x1="19.5" y1="31" x2="19.5" y2="29"/>
	<line fill="none" stroke="#000000" stroke-width="1.5" stroke-miterlimit="10" x1="22.5" y1="31" x2="22.5" y2="29"/>
	<line fill="none" stroke="#000000" stroke-width="1.5" stroke-miterlimit="10" x1="25.5" y1="31" x2="25.5" y2="29"/>
	<line fill="none" stroke="#000000" stroke-width="1.5" stroke-miterlimit="10" x1="28.5" y1="31" x2="28.5" y2="29"/>
	<line fill="none" stroke="#000000" stroke-width="1.5" stroke-miterlimit="10" x1="31.5" y1="31" x2="31.5" y2="29"/>
	<line fill="none" stroke="#000000" stroke-width="1.5" stroke-miterlimit="10" x1="34.5" y1="31" x2="34.5" y2="29"/>
	<g>
		<line fill="none" stroke="#000000" stroke-width="1.5" stroke-miterlimit="10" x1="37.5" y1="31" x2="37.5" y2="29"/>
		<line fill="none" stroke="#000000" stroke-width="1.5" stroke-miterlimit="10" x1="40.5" y1="31" x2="40.5" y2="29"/>
	</g>
</g>
<g>
	<line fill="none" stroke="#000000" stroke-width="1.5" stroke-miterlimit="10" x1="4.5" y1="34" x2="4.5" y2="32"/>
	<line fill="none" stroke="#000000" stroke-width="1.5" stroke-miterlimit="10" x1="7.5" y1="34" x2="7.5" y2="32"/>
	<line fill="none" stroke="#000000" stroke-width="1.5" stroke-miterlimit="10" x1="10.5" y1="34" x2="10.5" y2="32"/>
	<line fill="none" stroke="#000000" stroke-width="1.5" stroke-miterlimit="10" x1="13.5" y1="34" x2="13.5" y2="32"/>
	<line fill="none" stroke="#000000" stroke-width="1.5" stroke-miterlimit="10" x1="16.5" y1="34" x2="16.5" y2="32"/>
	<line fill="none" stroke="#000000" stroke-width="1.5" stroke-miterlimit="10" x1="19.5" y1="34" x2="19.5" y2="32"/>
	<line fill="none" stroke="#000000" stroke-width="1.5" stroke-miterlimit="10" x1="22.5" y1="34" x2="22.5" y2="32"/>
	<line fill="none" stroke="#000000" stroke-width="1.5" stroke-miterlimit="10" x1="25.5" y1="34" x2="25.5" y2="32"/>
	<line fill="none" stroke="#000000" stroke-width="1.5" stroke-miterlimit="10" x1="28.5" y1="34" x2="28.5" y2="32"/>
	<line fill="none" stroke="#000000" stroke-width="1.5" stroke-miterlimit="10" x1="31.5" y1="34" x2="31.5" y2="32"/>
	<line fill="none" stroke="#000000" stroke-width="1.5" stroke-miterlimit="10" x1="34.5" y1="34" x2="34.5" y2="32"/>
	<g>
		<line fill="none" stroke="#000000" stroke-width="1.5" stroke-miterlimit="10" x1="37.5" y1="34" x2="37.5" y2="32"/>
		<line fill="none" stroke="#000000" stroke-width="1.5" stroke-miterlimit="10" x1="40.5" y1="34" x2="40.5" y2="32"/>
	</g>
</g>
<g>
	<line fill="none" stroke="#000000" stroke-width="1.5" stroke-miterlimit="10" x1="4.5" y1="37" x2="4.5" y2="35"/>
	<line fill="none" stroke="#000000" stroke-width="1.5" stroke-miterlimit="10" x1="7.5" y1="37" x2="7.5" y2="35"/>
	<line fill="none" stroke="#000000" stroke-width="1.5" stroke-miterlimit="10" x1="10.5" y1="37" x2="10.5" y2="35"/>
	<line fill="none" stroke="#000000" stroke-width="1.5" stroke-miterlimit="10" x1="13.5" y1="37" x2="13.5" y2="35"/>
	<line fill="none" stroke="#000000" stroke-width="1.5" stroke-miterlimit="10" x1="16.5" y1="37" x2="16.5" y2="35"/>
	<line fill="none" stroke="#000000" stroke-width="1.5" stroke-miterlimit="10" x1="19.5" y1="37" x2="19.5" y2="35"/>
	<line fill="none" stroke="#000000" stroke-width="1.5" stroke-miterlimit="10" x1="22.5" y1="37" x2="22.5" y2="35"/>
	<line fill="none" stroke="#000000" stroke-width="1.5" stroke-miterlimit="10" x1="25.5" y1="37" x2="25.5" y2="35"/>
	<line fill="none" stroke="#000000" stroke-width="1.5" stroke-miterlimit="10" x1="28.5" y1="37" x2="28.5" y2="35"/>
	<line fill="none" stroke="#000000" stroke-width="1.5" stroke-miterlimit="10" x1="31.5" y1="37" x2="31.5" y2="35"/>
	<line fill="none" stroke="#000000" stroke-width="1.5" stroke-miterlimit="10" x1="34.5" y1="37" x2="34.5" y2="35"/>
	<g>
		<line fill="none" stroke="#000000" stroke-width="1.5" stroke-miterlimit="10" x1="37.5" y1="37" x2="37.5" y2="35"/>
		<line fill="none" stroke="#000000" stroke-width="1.5" stroke-miterlimit="10" x1="40.5" y1="37" x2="40.5" y2="35"/>
	</g>
</g>
<g>
	<line fill="none" stroke="#000000" stroke-width="1.5" stroke-miterlimit="10" x1="4.5" y1="40" x2="4.5" y2="38"/>
	<line fill="none" stroke="#000000" stroke-width="1.5" stroke-miterlimit="10" x1="7.5" y1="40" x2="7.5" y2="38"/>
	<line fill="none" stroke="#000000" stroke-width="1.5" stroke-miterlimit="10" x1="10.5" y1="40" x2="10.5" y2="38"/>
	<line fill="none" stroke="#000000" stroke-width="1.5" stroke-miterlimit="10" x1="13.5" y1="40" x2="13.5" y2="38"/>
	<line fill="none" stroke="#000000" stroke-width="1.5" stroke-miterlimit="10" x1="16.5" y1="40" x2="16.5" y2="38"/>
	<line fill="none" stroke="#000000" stroke-width="1.5" stroke-miterlimit="10" x1="19.5" y1="40" x2="19.5" y2="38"/>
	<line fill="none" stroke="#000000" stroke-width="1.5" stroke-miterlimit="10" x1="22.5" y1="40" x2="22.5" y2="38"/>
	<line fill="none" stroke="#000000" stroke-width="1.5" stroke-miterlimit="10" x1="25.5" y1="40" x2="25.5" y2="38"/>
	<line fill="none" stroke="#000000" stroke-width="1.5" stroke-miterlimit="10" x1="28.5" y1="40" x2="28.5" y2="38"/>
	<line fill="none" stroke="#000000" stroke-width="1.5" stroke-miterlimit="10" x1="31.5" y1="40" x2="31.5" y2="38"/>
	<line fill="none" stroke="#000000" stroke-width="1.5" stroke-miterlimit="10" x1="34.5" y1="40" x2="34.5" y2="38"/>
	<g>
		<line fill="none" stroke="#000000" stroke-width="1.5" stroke-miterlimit="10" x1="37.5" y1="40" x2="37.5" y2="38"/>
		<line fill="none" stroke="#000000" stroke-width="1.5" stroke-miterlimit="10" x1="40.5" y1="40" x2="40.5" y2="38"/>
	</g>
</g>
</svg>
