<?xml version="1.0" encoding="utf-8"?>
<!-- Generator: Adobe Illustrator 18.0.0, SVG Export Plug-In . SVG Version: 6.00 Build 0)  -->
<!DOCTYPE svg PUBLIC "-//W3C//DTD SVG 1.1//EN" "http://www.w3.org/Graphics/SVG/1.1/DTD/svg11.dtd">
<svg version="1.1" id="Layer_1" xmlns="http://www.w3.org/2000/svg" xmlns:xlink="http://www.w3.org/1999/xlink" x="0px" y="0px"
	 viewBox="0 0 45 44" enable-background="new 0 0 45 44" xml:space="preserve">
<rect x="1.5" y="1.5" fill="none" stroke="#000000" stroke-width="1.5" stroke-miterlimit="10" width="42" height="41"/>
<g>
	<line fill="none" stroke="#000000" stroke-width="1.5" stroke-miterlimit="10" x1="27" y1="39.5" x2="18" y2="39.5"/>
	<line fill="none" stroke="#000000" stroke-width="1.5" stroke-miterlimit="10" x1="32.5" y1="40" x2="32.5" y2="39"/>
	<line fill="none" stroke="#000000" stroke-width="1.5" stroke-miterlimit="10" x1="29.5" y1="40" x2="29.5" y2="39"/>
	<g>
		<line fill="none" stroke="#000000" stroke-width="1.5" stroke-miterlimit="10" x1="15.5" y1="40" x2="15.5" y2="39"/>
		<line fill="none" stroke="#000000" stroke-width="1.5" stroke-miterlimit="10" x1="12.5" y1="40" x2="12.5" y2="39"/>
	</g>
	<line fill="none" stroke="#000000" stroke-width="1.5" stroke-miterlimit="10" x1="36.5" y1="36.5" x2="36.5" y2="42.5"/>
	<line fill="none" stroke="#000000" stroke-width="1.5" stroke-miterlimit="10" x1="8.5" y1="42.5" x2="8.5" y2="36.5"/>
</g>
<line fill="none" stroke="#000000" stroke-width="1.5" stroke-miterlimit="10" x1="1.5" y1="36.5" x2="43.5" y2="36.5"/>
<g>
	<polyline fill="none" stroke="#000000" stroke-miterlimit="10" points="3,23 5,25 3,23 	"/>
	<polyline fill="none" stroke="#000000" stroke-miterlimit="10" points="3,11 5,13 3,11 	"/>
	<polyline fill="none" stroke="#000000" stroke-miterlimit="10" points="8,3 4,7 8,3 	"/>
	<polyline fill="none" stroke="#000000" stroke-miterlimit="10" points="15,3 11,7 15,3 	"/>
	<polyline fill="none" stroke="#000000" stroke-miterlimit="10" points="22,3 18,7 22,3 	"/>
	<polyline fill="none" stroke="#000000" stroke-miterlimit="10" points="29,3 25,7 29,3 	"/>
	<polyline fill="none" stroke="#000000" stroke-miterlimit="10" points="36,3 32,7 36,3 	"/>
	<polyline fill="none" stroke="#000000" stroke-miterlimit="10" points="42,4 39,7 42,4 	"/>
	<polyline fill="none" stroke="#000000" stroke-miterlimit="10" points="42,16 39,19 42,16 	"/>
	<polyline fill="none" stroke="#000000" stroke-miterlimit="10" points="42,28 39,31 42,28 	"/>
	<polyline fill="none" stroke="#000000" stroke-miterlimit="10" points="38,35 36,33 38,35 	"/>
	<polyline fill="none" stroke="#000000" stroke-miterlimit="10" points="31,35 29,33 31,35 	"/>
	<polyline fill="none" stroke="#000000" stroke-miterlimit="10" points="24,35 22,33 24,35 	"/>
	<polyline fill="none" stroke="#000000" stroke-miterlimit="10" points="17,35 15,33 17,35 	"/>
	<polyline fill="none" stroke="#000000" stroke-miterlimit="10" points="10,35 8,33 10,35 	"/>
	<path fill="none" stroke="#000000" stroke-miterlimit="10" d="M11,31l4-4L11,31z"/>
	<path fill="none" stroke="#000000" stroke-miterlimit="10" d="M8,21l4,4L8,21z"/>
	<path fill="none" stroke="#000000" stroke-miterlimit="10" d="M18,31l4-4L18,31z"/>
	<path fill="none" stroke="#000000" stroke-miterlimit="10" d="M15,21l4,4L15,21z"/>
	<path fill="none" stroke="#000000" stroke-miterlimit="10" d="M25,31l4-4L25,31z"/>
	<path fill="none" stroke="#000000" stroke-miterlimit="10" d="M22,21l4,4L22,21z"/>
	<path fill="none" stroke="#000000" stroke-miterlimit="10" d="M32,31l4-4L32,31z"/>
	<path fill="none" stroke="#000000" stroke-miterlimit="10" d="M29,21l4,4L29,21z"/>
	<path fill="none" stroke="#000000" stroke-miterlimit="10" d="M40,25l-4-4L40,25z"/>
	<path fill="none" stroke="#000000" stroke-miterlimit="10" d="M40,13l-4-4L40,13z"/>
	<path fill="none" stroke="#000000" stroke-miterlimit="10" d="M32,19l4-4L32,19z"/>
	<path fill="none" stroke="#000000" stroke-miterlimit="10" d="M33,13l-4-4L33,13z"/>
	<path fill="none" stroke="#000000" stroke-miterlimit="10" d="M25,19l4-4L25,19z"/>
	<path fill="none" stroke="#000000" stroke-miterlimit="10" d="M26,13l-4-4L26,13z"/>
	<path fill="none" stroke="#000000" stroke-miterlimit="10" d="M18,19l4-4L18,19z"/>
	<path fill="none" stroke="#000000" stroke-miterlimit="10" d="M19,13l-4-4L19,13z"/>
	<path fill="none" stroke="#000000" stroke-miterlimit="10" d="M11,19l4-4L11,19z"/>
	<path fill="none" stroke="#000000" stroke-miterlimit="10" d="M12,13L8,9L12,13z"/>
	<path fill="none" stroke="#000000" stroke-miterlimit="10" d="M4,19l4-4L4,19z"/>
	<path fill="none" stroke="#000000" stroke-miterlimit="10" d="M8,27l-4,4L8,27z"/>
</g>
<rect x="4.5" y="43" fill="none" stroke="#000000" stroke-width="1.5" stroke-miterlimit="10" width="7" height="0.5"/>
<rect x="33.5" y="43" fill="none" stroke="#000000" stroke-width="1.5" stroke-miterlimit="10" width="7" height="0.5"/>
</svg>
