<?xml version="1.0" encoding="utf-8"?>
<!-- Generator: Adobe Illustrator 18.0.0, SVG Export Plug-In . SVG Version: 6.00 Build 0)  -->
<!DOCTYPE svg PUBLIC "-//W3C//DTD SVG 1.1//EN" "http://www.w3.org/Graphics/SVG/1.1/DTD/svg11.dtd">
<svg version="1.1" id="Layer_1" xmlns="http://www.w3.org/2000/svg" xmlns:xlink="http://www.w3.org/1999/xlink" x="0px" y="0px"
	 viewBox="0 0 45 44" enable-background="new 0 0 45 44" xml:space="preserve">
<rect x="6.5" y="43" fill="none" stroke="#000000" stroke-width="1.5" stroke-miterlimit="10" width="7" height="0.5"/>
<rect x="31.5" y="43" fill="none" stroke="#000000" stroke-width="1.5" stroke-miterlimit="10" width="7" height="0.5"/>
<rect x="4.5" y="4.5" fill="none" stroke="#000000" stroke-width="1.5" stroke-miterlimit="10" width="36" height="35"/>
<rect x="1.5" y="1.5" fill="none" stroke="#000000" stroke-width="1.5" stroke-miterlimit="10" width="42" height="41"/>
<g>
	<g>
		<line fill="none" stroke="#000000" stroke-width="1.5" stroke-miterlimit="10" x1="7.5" y1="8" x2="7.5" y2="6"/>
		<line fill="none" stroke="#000000" stroke-width="1.5" stroke-miterlimit="10" x1="10.5" y1="8" x2="10.5" y2="6"/>
		<line fill="none" stroke="#000000" stroke-width="1.5" stroke-miterlimit="10" x1="13.5" y1="8" x2="13.5" y2="6"/>
		<line fill="none" stroke="#000000" stroke-width="1.5" stroke-miterlimit="10" x1="16.5" y1="8" x2="16.5" y2="6"/>
		<line fill="none" stroke="#000000" stroke-width="1.5" stroke-miterlimit="10" x1="19.5" y1="8" x2="19.5" y2="6"/>
		<line fill="none" stroke="#000000" stroke-width="1.5" stroke-miterlimit="10" x1="22.5" y1="8" x2="22.5" y2="6"/>
		<line fill="none" stroke="#000000" stroke-width="1.5" stroke-miterlimit="10" x1="25.5" y1="8" x2="25.5" y2="6"/>
		<line fill="none" stroke="#000000" stroke-width="1.5" stroke-miterlimit="10" x1="28.5" y1="8" x2="28.5" y2="6"/>
		<line fill="none" stroke="#000000" stroke-width="1.5" stroke-miterlimit="10" x1="31.5" y1="8" x2="31.5" y2="6"/>
		<line fill="none" stroke="#000000" stroke-width="1.5" stroke-miterlimit="10" x1="34.5" y1="8" x2="34.5" y2="6"/>
		<line fill="none" stroke="#000000" stroke-width="1.5" stroke-miterlimit="10" x1="37.5" y1="8" x2="37.5" y2="6"/>
	</g>
</g>
<g>
	<g>
		<line fill="none" stroke="#000000" stroke-width="1.5" stroke-miterlimit="10" x1="7.5" y1="38" x2="7.5" y2="36"/>
		<line fill="none" stroke="#000000" stroke-width="1.5" stroke-miterlimit="10" x1="10.5" y1="38" x2="10.5" y2="36"/>
		<line fill="none" stroke="#000000" stroke-width="1.5" stroke-miterlimit="10" x1="13.5" y1="38" x2="13.5" y2="36"/>
		<line fill="none" stroke="#000000" stroke-width="1.5" stroke-miterlimit="10" x1="16.5" y1="38" x2="16.5" y2="36"/>
		<line fill="none" stroke="#000000" stroke-width="1.5" stroke-miterlimit="10" x1="19.5" y1="38" x2="19.5" y2="36"/>
		<line fill="none" stroke="#000000" stroke-width="1.5" stroke-miterlimit="10" x1="22.5" y1="38" x2="22.5" y2="36"/>
		<line fill="none" stroke="#000000" stroke-width="1.5" stroke-miterlimit="10" x1="25.5" y1="38" x2="25.5" y2="36"/>
		<line fill="none" stroke="#000000" stroke-width="1.5" stroke-miterlimit="10" x1="28.5" y1="38" x2="28.5" y2="36"/>
		<line fill="none" stroke="#000000" stroke-width="1.5" stroke-miterlimit="10" x1="31.5" y1="38" x2="31.5" y2="36"/>
		<line fill="none" stroke="#000000" stroke-width="1.5" stroke-miterlimit="10" x1="34.5" y1="38" x2="34.5" y2="36"/>
		<line fill="none" stroke="#000000" stroke-width="1.5" stroke-miterlimit="10" x1="37.5" y1="38" x2="37.5" y2="36"/>
	</g>
</g>
<g>
	<g>
		<line fill="none" stroke="#000000" stroke-width="1.5" stroke-miterlimit="10" x1="7.5" y1="35" x2="7.5" y2="33"/>
		<line fill="none" stroke="#000000" stroke-width="1.5" stroke-miterlimit="10" x1="10.5" y1="35" x2="10.5" y2="33"/>
		<line fill="none" stroke="#000000" stroke-width="1.5" stroke-miterlimit="10" x1="13.5" y1="35" x2="13.5" y2="33"/>
		<line fill="none" stroke="#000000" stroke-width="1.5" stroke-miterlimit="10" x1="16.5" y1="35" x2="16.5" y2="33"/>
		<line fill="none" stroke="#000000" stroke-width="1.5" stroke-miterlimit="10" x1="19.5" y1="35" x2="19.5" y2="33"/>
		<line fill="none" stroke="#000000" stroke-width="1.5" stroke-miterlimit="10" x1="22.5" y1="35" x2="22.5" y2="33"/>
		<line fill="none" stroke="#000000" stroke-width="1.5" stroke-miterlimit="10" x1="25.5" y1="35" x2="25.5" y2="33"/>
		<line fill="none" stroke="#000000" stroke-width="1.5" stroke-miterlimit="10" x1="28.5" y1="35" x2="28.5" y2="33"/>
		<line fill="none" stroke="#000000" stroke-width="1.5" stroke-miterlimit="10" x1="31.5" y1="35" x2="31.5" y2="33"/>
		<line fill="none" stroke="#000000" stroke-width="1.5" stroke-miterlimit="10" x1="34.5" y1="35" x2="34.5" y2="33"/>
		<line fill="none" stroke="#000000" stroke-width="1.5" stroke-miterlimit="10" x1="37.5" y1="35" x2="37.5" y2="33"/>
	</g>
</g>
<g>
	<g>
		<line fill="none" stroke="#000000" stroke-width="1.5" stroke-miterlimit="10" x1="7.5" y1="32" x2="7.5" y2="30"/>
		<line fill="none" stroke="#000000" stroke-width="1.5" stroke-miterlimit="10" x1="10.5" y1="32" x2="10.5" y2="30"/>
		<line fill="none" stroke="#000000" stroke-width="1.5" stroke-miterlimit="10" x1="13.5" y1="32" x2="13.5" y2="30"/>
		<line fill="none" stroke="#000000" stroke-width="1.5" stroke-miterlimit="10" x1="16.5" y1="32" x2="16.5" y2="30"/>
		<line fill="none" stroke="#000000" stroke-width="1.5" stroke-miterlimit="10" x1="19.5" y1="32" x2="19.5" y2="30"/>
		<line fill="none" stroke="#000000" stroke-width="1.5" stroke-miterlimit="10" x1="22.5" y1="32" x2="22.5" y2="30"/>
		<line fill="none" stroke="#000000" stroke-width="1.5" stroke-miterlimit="10" x1="25.5" y1="32" x2="25.5" y2="30"/>
		<line fill="none" stroke="#000000" stroke-width="1.5" stroke-miterlimit="10" x1="28.5" y1="32" x2="28.5" y2="30"/>
		<line fill="none" stroke="#000000" stroke-width="1.5" stroke-miterlimit="10" x1="31.5" y1="32" x2="31.5" y2="30"/>
		<line fill="none" stroke="#000000" stroke-width="1.5" stroke-miterlimit="10" x1="34.5" y1="32" x2="34.5" y2="30"/>
		<line fill="none" stroke="#000000" stroke-width="1.5" stroke-miterlimit="10" x1="37.5" y1="32" x2="37.5" y2="30"/>
	</g>
</g>
<g>
	<g>
		<line fill="none" stroke="#000000" stroke-width="1.5" stroke-miterlimit="10" x1="7.5" y1="29" x2="7.5" y2="27"/>
		<line fill="none" stroke="#000000" stroke-width="1.5" stroke-miterlimit="10" x1="10.5" y1="29" x2="10.5" y2="27"/>
		<line fill="none" stroke="#000000" stroke-width="1.5" stroke-miterlimit="10" x1="13.5" y1="29" x2="13.5" y2="27"/>
		<line fill="none" stroke="#000000" stroke-width="1.5" stroke-miterlimit="10" x1="16.5" y1="29" x2="16.5" y2="27"/>
		<line fill="none" stroke="#000000" stroke-width="1.5" stroke-miterlimit="10" x1="19.5" y1="29" x2="19.5" y2="27"/>
		<line fill="none" stroke="#000000" stroke-width="1.5" stroke-miterlimit="10" x1="22.5" y1="29" x2="22.5" y2="27"/>
		<line fill="none" stroke="#000000" stroke-width="1.5" stroke-miterlimit="10" x1="25.5" y1="29" x2="25.5" y2="27"/>
		<line fill="none" stroke="#000000" stroke-width="1.5" stroke-miterlimit="10" x1="28.5" y1="29" x2="28.5" y2="27"/>
		<line fill="none" stroke="#000000" stroke-width="1.5" stroke-miterlimit="10" x1="31.5" y1="29" x2="31.5" y2="27"/>
		<line fill="none" stroke="#000000" stroke-width="1.5" stroke-miterlimit="10" x1="34.5" y1="29" x2="34.5" y2="27"/>
		<line fill="none" stroke="#000000" stroke-width="1.5" stroke-miterlimit="10" x1="37.5" y1="29" x2="37.5" y2="27"/>
	</g>
</g>
<g>
	<g>
		<line fill="none" stroke="#000000" stroke-width="1.5" stroke-miterlimit="10" x1="7.5" y1="26" x2="7.5" y2="24"/>
		<line fill="none" stroke="#000000" stroke-width="1.5" stroke-miterlimit="10" x1="10.5" y1="26" x2="10.5" y2="24"/>
		<line fill="none" stroke="#000000" stroke-width="1.5" stroke-miterlimit="10" x1="13.5" y1="26" x2="13.5" y2="24"/>
		<line fill="none" stroke="#000000" stroke-width="1.5" stroke-miterlimit="10" x1="16.5" y1="26" x2="16.5" y2="24"/>
		<line fill="none" stroke="#000000" stroke-width="1.5" stroke-miterlimit="10" x1="19.5" y1="26" x2="19.5" y2="24"/>
		<line fill="none" stroke="#000000" stroke-width="1.5" stroke-miterlimit="10" x1="22.5" y1="26" x2="22.5" y2="24"/>
		<line fill="none" stroke="#000000" stroke-width="1.5" stroke-miterlimit="10" x1="25.5" y1="26" x2="25.5" y2="24"/>
		<line fill="none" stroke="#000000" stroke-width="1.5" stroke-miterlimit="10" x1="28.5" y1="26" x2="28.5" y2="24"/>
		<line fill="none" stroke="#000000" stroke-width="1.5" stroke-miterlimit="10" x1="31.5" y1="26" x2="31.5" y2="24"/>
		<line fill="none" stroke="#000000" stroke-width="1.5" stroke-miterlimit="10" x1="34.5" y1="26" x2="34.5" y2="24"/>
		<line fill="none" stroke="#000000" stroke-width="1.5" stroke-miterlimit="10" x1="37.5" y1="26" x2="37.5" y2="24"/>
	</g>
</g>
<g>
	<g>
		<line fill="none" stroke="#000000" stroke-width="1.5" stroke-miterlimit="10" x1="7.5" y1="23" x2="7.5" y2="21"/>
		<line fill="none" stroke="#000000" stroke-width="1.5" stroke-miterlimit="10" x1="10.5" y1="23" x2="10.5" y2="21"/>
		<line fill="none" stroke="#000000" stroke-width="1.5" stroke-miterlimit="10" x1="13.5" y1="23" x2="13.5" y2="21"/>
		<line fill="none" stroke="#000000" stroke-width="1.5" stroke-miterlimit="10" x1="16.5" y1="23" x2="16.5" y2="21"/>
		<line fill="none" stroke="#000000" stroke-width="1.5" stroke-miterlimit="10" x1="19.5" y1="23" x2="19.5" y2="21"/>
		<line fill="none" stroke="#000000" stroke-width="1.5" stroke-miterlimit="10" x1="22.5" y1="23" x2="22.5" y2="21"/>
		<line fill="none" stroke="#000000" stroke-width="1.5" stroke-miterlimit="10" x1="25.5" y1="23" x2="25.5" y2="21"/>
		<line fill="none" stroke="#000000" stroke-width="1.5" stroke-miterlimit="10" x1="28.5" y1="23" x2="28.5" y2="21"/>
		<line fill="none" stroke="#000000" stroke-width="1.5" stroke-miterlimit="10" x1="31.5" y1="23" x2="31.5" y2="21"/>
		<line fill="none" stroke="#000000" stroke-width="1.5" stroke-miterlimit="10" x1="34.5" y1="23" x2="34.5" y2="21"/>
		<line fill="none" stroke="#000000" stroke-width="1.5" stroke-miterlimit="10" x1="37.5" y1="23" x2="37.5" y2="21"/>
	</g>
</g>
<g>
	<g>
		<line fill="none" stroke="#000000" stroke-width="1.5" stroke-miterlimit="10" x1="7.5" y1="20" x2="7.5" y2="18"/>
		<line fill="none" stroke="#000000" stroke-width="1.5" stroke-miterlimit="10" x1="10.5" y1="20" x2="10.5" y2="18"/>
		<line fill="none" stroke="#000000" stroke-width="1.5" stroke-miterlimit="10" x1="13.5" y1="20" x2="13.5" y2="18"/>
		<line fill="none" stroke="#000000" stroke-width="1.5" stroke-miterlimit="10" x1="16.5" y1="20" x2="16.5" y2="18"/>
		<line fill="none" stroke="#000000" stroke-width="1.5" stroke-miterlimit="10" x1="19.5" y1="20" x2="19.5" y2="18"/>
		<line fill="none" stroke="#000000" stroke-width="1.5" stroke-miterlimit="10" x1="22.5" y1="20" x2="22.5" y2="18"/>
		<line fill="none" stroke="#000000" stroke-width="1.5" stroke-miterlimit="10" x1="25.5" y1="20" x2="25.5" y2="18"/>
		<line fill="none" stroke="#000000" stroke-width="1.5" stroke-miterlimit="10" x1="28.5" y1="20" x2="28.5" y2="18"/>
		<line fill="none" stroke="#000000" stroke-width="1.5" stroke-miterlimit="10" x1="31.5" y1="20" x2="31.5" y2="18"/>
		<line fill="none" stroke="#000000" stroke-width="1.5" stroke-miterlimit="10" x1="34.5" y1="20" x2="34.5" y2="18"/>
		<line fill="none" stroke="#000000" stroke-width="1.5" stroke-miterlimit="10" x1="37.5" y1="20" x2="37.5" y2="18"/>
	</g>
</g>
<g>
	<g>
		<line fill="none" stroke="#000000" stroke-width="1.5" stroke-miterlimit="10" x1="7.5" y1="17" x2="7.5" y2="15"/>
		<line fill="none" stroke="#000000" stroke-width="1.5" stroke-miterlimit="10" x1="10.5" y1="17" x2="10.5" y2="15"/>
		<line fill="none" stroke="#000000" stroke-width="1.5" stroke-miterlimit="10" x1="13.5" y1="17" x2="13.5" y2="15"/>
		<line fill="none" stroke="#000000" stroke-width="1.5" stroke-miterlimit="10" x1="16.5" y1="17" x2="16.5" y2="15"/>
		<line fill="none" stroke="#000000" stroke-width="1.5" stroke-miterlimit="10" x1="19.5" y1="17" x2="19.5" y2="15"/>
		<line fill="none" stroke="#000000" stroke-width="1.5" stroke-miterlimit="10" x1="22.5" y1="17" x2="22.5" y2="15"/>
		<line fill="none" stroke="#000000" stroke-width="1.5" stroke-miterlimit="10" x1="25.5" y1="17" x2="25.5" y2="15"/>
		<line fill="none" stroke="#000000" stroke-width="1.5" stroke-miterlimit="10" x1="28.5" y1="17" x2="28.5" y2="15"/>
		<line fill="none" stroke="#000000" stroke-width="1.5" stroke-miterlimit="10" x1="31.5" y1="17" x2="31.5" y2="15"/>
		<line fill="none" stroke="#000000" stroke-width="1.5" stroke-miterlimit="10" x1="34.5" y1="17" x2="34.5" y2="15"/>
		<line fill="none" stroke="#000000" stroke-width="1.5" stroke-miterlimit="10" x1="37.5" y1="17" x2="37.5" y2="15"/>
	</g>
</g>
<g>
	<g>
		<line fill="none" stroke="#000000" stroke-width="1.5" stroke-miterlimit="10" x1="7.5" y1="14" x2="7.5" y2="12"/>
		<line fill="none" stroke="#000000" stroke-width="1.5" stroke-miterlimit="10" x1="10.5" y1="14" x2="10.5" y2="12"/>
		<line fill="none" stroke="#000000" stroke-width="1.5" stroke-miterlimit="10" x1="13.5" y1="14" x2="13.5" y2="12"/>
		<line fill="none" stroke="#000000" stroke-width="1.5" stroke-miterlimit="10" x1="16.5" y1="14" x2="16.5" y2="12"/>
		<line fill="none" stroke="#000000" stroke-width="1.5" stroke-miterlimit="10" x1="19.5" y1="14" x2="19.5" y2="12"/>
		<line fill="none" stroke="#000000" stroke-width="1.5" stroke-miterlimit="10" x1="22.5" y1="14" x2="22.5" y2="12"/>
		<line fill="none" stroke="#000000" stroke-width="1.5" stroke-miterlimit="10" x1="25.5" y1="14" x2="25.5" y2="12"/>
		<line fill="none" stroke="#000000" stroke-width="1.5" stroke-miterlimit="10" x1="28.5" y1="14" x2="28.5" y2="12"/>
		<line fill="none" stroke="#000000" stroke-width="1.5" stroke-miterlimit="10" x1="31.5" y1="14" x2="31.5" y2="12"/>
		<line fill="none" stroke="#000000" stroke-width="1.5" stroke-miterlimit="10" x1="34.5" y1="14" x2="34.5" y2="12"/>
		<line fill="none" stroke="#000000" stroke-width="1.5" stroke-miterlimit="10" x1="37.5" y1="14" x2="37.5" y2="12"/>
	</g>
</g>
<g>
	<g>
		<line fill="none" stroke="#000000" stroke-width="1.5" stroke-miterlimit="10" x1="7.5" y1="11" x2="7.5" y2="9"/>
		<line fill="none" stroke="#000000" stroke-width="1.5" stroke-miterlimit="10" x1="10.5" y1="11" x2="10.5" y2="9"/>
		<line fill="none" stroke="#000000" stroke-width="1.5" stroke-miterlimit="10" x1="13.5" y1="11" x2="13.5" y2="9"/>
		<line fill="none" stroke="#000000" stroke-width="1.5" stroke-miterlimit="10" x1="16.5" y1="11" x2="16.5" y2="9"/>
		<line fill="none" stroke="#000000" stroke-width="1.5" stroke-miterlimit="10" x1="19.5" y1="11" x2="19.5" y2="9"/>
		<line fill="none" stroke="#000000" stroke-width="1.5" stroke-miterlimit="10" x1="22.5" y1="11" x2="22.5" y2="9"/>
		<line fill="none" stroke="#000000" stroke-width="1.5" stroke-miterlimit="10" x1="25.5" y1="11" x2="25.5" y2="9"/>
		<line fill="none" stroke="#000000" stroke-width="1.5" stroke-miterlimit="10" x1="28.5" y1="11" x2="28.5" y2="9"/>
		<line fill="none" stroke="#000000" stroke-width="1.5" stroke-miterlimit="10" x1="31.5" y1="11" x2="31.5" y2="9"/>
		<line fill="none" stroke="#000000" stroke-width="1.5" stroke-miterlimit="10" x1="34.5" y1="11" x2="34.5" y2="9"/>
		<line fill="none" stroke="#000000" stroke-width="1.5" stroke-miterlimit="10" x1="37.5" y1="11" x2="37.5" y2="9"/>
	</g>
</g>
</svg>
