<?xml version="1.0" encoding="utf-8"?>
<!-- Generator: Adobe Illustrator 18.0.0, SVG Export Plug-In . SVG Version: 6.00 Build 0)  -->
<!DOCTYPE svg PUBLIC "-//W3C//DTD SVG 1.1//EN" "http://www.w3.org/Graphics/SVG/1.1/DTD/svg11.dtd">
<svg version="1.1" id="Layer_1" xmlns="http://www.w3.org/2000/svg" xmlns:xlink="http://www.w3.org/1999/xlink" x="0px" y="0px"
	 viewBox="0 0 45 44" enable-background="new 0 0 45 44" xml:space="preserve">
<rect x="1.5" y="1.5" fill="none" stroke="#000000" stroke-width="1.5" stroke-miterlimit="10" width="42" height="41"/>
<rect x="6.5" y="43" fill="none" stroke="#000000" stroke-width="1.5" stroke-miterlimit="10" width="7" height="0.5"/>
<rect x="31.5" y="43" fill="none" stroke="#000000" stroke-width="1.5" stroke-miterlimit="10" width="7" height="0.5"/>
<g>
	<line fill="none" stroke="#000000" stroke-width="1.5" stroke-miterlimit="10" x1="41" y1="38.5" x2="4" y2="38.5"/>
	<g>
		<line fill="none" stroke="#000000" stroke-width="1.5" stroke-miterlimit="10" x1="4" y1="23.5" x2="41" y2="23.5"/>
		<line fill="none" stroke="#000000" stroke-width="1.5" stroke-miterlimit="10" x1="4" y1="26.5" x2="41" y2="26.5"/>
		<line fill="none" stroke="#000000" stroke-width="1.5" stroke-miterlimit="10" x1="4" y1="29.5" x2="41" y2="29.5"/>
		<line fill="none" stroke="#000000" stroke-width="1.5" stroke-miterlimit="10" x1="4" y1="32.5" x2="41" y2="32.5"/>
		<line fill="none" stroke="#000000" stroke-width="1.5" stroke-miterlimit="10" x1="4" y1="35.5" x2="41" y2="35.5"/>
	</g>
</g>
<g>
	<line fill="none" stroke="#000000" stroke-width="1.5" stroke-miterlimit="10" x1="41" y1="20.5" x2="4" y2="20.5"/>
	<g>
		<line fill="none" stroke="#000000" stroke-width="1.5" stroke-miterlimit="10" x1="4" y1="5.5" x2="41" y2="5.5"/>
		<line fill="none" stroke="#000000" stroke-width="1.5" stroke-miterlimit="10" x1="4" y1="8.5" x2="41" y2="8.5"/>
		<line fill="none" stroke="#000000" stroke-width="1.5" stroke-miterlimit="10" x1="4" y1="11.5" x2="41" y2="11.5"/>
		<line fill="none" stroke="#000000" stroke-width="1.5" stroke-miterlimit="10" x1="4" y1="14.5" x2="41" y2="14.5"/>
		<line fill="none" stroke="#000000" stroke-width="1.5" stroke-miterlimit="10" x1="4" y1="17.5" x2="41" y2="17.5"/>
	</g>
</g>
</svg>
