<?xml version="1.0" encoding="utf-8"?>
<!-- Generator: Adobe Illustrator 18.0.0, SVG Export Plug-In . SVG Version: 6.00 Build 0)  -->
<!DOCTYPE svg PUBLIC "-//W3C//DTD SVG 1.1//EN" "http://www.w3.org/Graphics/SVG/1.1/DTD/svg11.dtd">
<svg version="1.1" id="Layer_1" xmlns="http://www.w3.org/2000/svg" xmlns:xlink="http://www.w3.org/1999/xlink" x="0px" y="0px"
	 viewBox="0 0 45 44" enable-background="new 0 0 45 44" xml:space="preserve">
<rect x="6.5" y="43" fill="none" stroke="#000000" stroke-width="1.5" stroke-miterlimit="10" width="7" height="0.5"/>
<rect x="31.5" y="43" fill="none" stroke="#000000" stroke-width="1.5" stroke-miterlimit="10" width="7" height="0.5"/>
<polyline fill="none" stroke="#000000" stroke-width="1.5" stroke-miterlimit="10" points="3.5,6 3.5,3.5 6,3.5 "/>
<polyline fill="none" stroke="#000000" stroke-width="1.5" stroke-miterlimit="10" points="6,40.5 3.5,40.5 3.5,38 "/>
<polyline fill="none" stroke="#000000" stroke-width="1.5" stroke-miterlimit="10" points="41.5,6 41.5,3.5 39,3.5 "/>
<polyline fill="none" stroke="#000000" stroke-width="1.5" stroke-miterlimit="10" points="39,40.5 41.5,40.5 41.5,38 "/>
<rect x="1.5" y="1.5" fill="none" stroke="#000000" stroke-width="1.5" stroke-miterlimit="10" width="42" height="41"/>
<circle fill="none" stroke="#000000" stroke-width="1.5" stroke-miterlimit="10" cx="12.5" cy="12.5" r="8"/>
<g>
	<path d="M12.5,10.5c1.1,0,2,0.9,2,2c0,1.1-0.9,2-2,2s-2-0.9-2-2C10.5,11.4,11.4,10.5,12.5,10.5 M12.5,9.5c-1.7,0-3,1.3-3,3
		s1.3,3,3,3s3-1.3,3-3S14.2,9.5,12.5,9.5L12.5,9.5z"/>
</g>
<circle fill="none" stroke="#000000" stroke-width="1.5" stroke-miterlimit="10" cx="32.5" cy="12.5" r="8"/>
<g>
	<path d="M32.5,10.5c1.1,0,2,0.9,2,2c0,1.1-0.9,2-2,2c-1.1,0-2-0.9-2-2C30.5,11.4,31.4,10.5,32.5,10.5 M32.5,9.5c-1.7,0-3,1.3-3,3
		s1.3,3,3,3s3-1.3,3-3S34.2,9.5,32.5,9.5L32.5,9.5z"/>
</g>
<circle fill="none" stroke="#000000" stroke-width="1.5" stroke-miterlimit="10" cx="12.5" cy="31.5" r="8"/>
<g>
	<path d="M12.5,29.5c1.1,0,2,0.9,2,2c0,1.1-0.9,2-2,2s-2-0.9-2-2C10.5,30.4,11.4,29.5,12.5,29.5 M12.5,28.5c-1.7,0-3,1.3-3,3
		s1.3,3,3,3s3-1.3,3-3S14.2,28.5,12.5,28.5L12.5,28.5z"/>
</g>
<circle fill="none" stroke="#000000" stroke-width="1.5" stroke-miterlimit="10" cx="32.5" cy="31.5" r="8"/>
<g>
	<path d="M32.5,29.5c1.1,0,2,0.9,2,2c0,1.1-0.9,2-2,2c-1.1,0-2-0.9-2-2C30.5,30.4,31.4,29.5,32.5,29.5 M32.5,28.5c-1.7,0-3,1.3-3,3
		s1.3,3,3,3s3-1.3,3-3S34.2,28.5,32.5,28.5L32.5,28.5z"/>
</g>
<polygon fill="none" stroke="#000000" stroke-width="1.25" stroke-miterlimit="10" points="22.5,24.8 19,22 22.5,19.2 26,22 "/>
</svg>
