<?xml version="1.0" encoding="utf-8"?>
<!-- Generator: Adobe Illustrator 18.0.0, SVG Export Plug-In . SVG Version: 6.00 Build 0)  -->
<!DOCTYPE svg PUBLIC "-//W3C//DTD SVG 1.1//EN" "http://www.w3.org/Graphics/SVG/1.1/DTD/svg11.dtd">
<svg version="1.1" id="Layer_1" xmlns="http://www.w3.org/2000/svg" xmlns:xlink="http://www.w3.org/1999/xlink" x="0px" y="0px"
	 viewBox="0 0 45 44" enable-background="new 0 0 45 44" xml:space="preserve">
<line fill="none" stroke="#231F20" stroke-width="1.5" stroke-linejoin="round" stroke-miterlimit="10" x1="22.5" y1="3.5" x2="43.5" y2="17.7"/>
<path fill="none" stroke="#231F20" stroke-width="1.5" stroke-linejoin="round" stroke-miterlimit="10" d="M43.8,18.2
	c-1.5,1-2.2-0.1-3.7,0.9c-1.5,1-0.8,2-2.3,3c-1.5,1-2.2-0.1-3.7,0.9c-1.5,1-0.8,2-2.3,3c-1.5,1-2.2-0.1-3.7,0.9c-1.5,1-0.8,2-2.3,3
	c-1.5,1-2.2-0.1-3.7,0.9"/>
<path fill="none" stroke="#231F20" stroke-width="1.5" stroke-linejoin="round" stroke-miterlimit="10" d="M22.8,4
	c-1.5,1-2.2,0-3.7,1c-1.5,1-0.8,2-2.3,3c-1.5,1-2.2,0-3.7,1c-1.5,1-0.8,2-2.3,3c-1.5,1-2.2,0-3.7,1c-1.5,1-0.8,2-2.3,3.1
	s-2.2,0-3.7,1"/>
<path fill="none" stroke="#231F20" stroke-width="1.5" stroke-linejoin="round" stroke-miterlimit="10" d="M43.8,26
	c-1.3,0.9-2-0.2-3.3,0.7c-1.3,0.9-0.6,1.9-1.9,2.8c-1.3,0.9-2-0.2-3.3,0.7c-1.3,0.9-0.6,1.9-1.9,2.8c-1.3,0.9-2-0.2-3.3,0.7
	c-1.3,0.9-0.6,1.9-1.9,2.8c-1.3,0.9-2-0.2-3.3,0.7c-1.3,0.9-0.6,1.9-1.9,2.8"/>
<g>
	
		<line fill="none" stroke="#231F20" stroke-width="1.5" stroke-linejoin="round" stroke-miterlimit="10" x1="43.5" y1="25.5" x2="43.5" y2="17.7"/>
	<polygon fill="none" stroke="#231F20" stroke-width="1.5" stroke-linejoin="round" stroke-miterlimit="10" points="1.5,25.5 
		22.5,39.5 22.5,31.5 1.5,17.5 	"/>
</g>
</svg>
