<?xml version="1.0" encoding="utf-8"?>
<!-- Generator: Adobe Illustrator 18.0.0, SVG Export Plug-In . SVG Version: 6.00 Build 0)  -->
<!DOCTYPE svg PUBLIC "-//W3C//DTD SVG 1.1//EN" "http://www.w3.org/Graphics/SVG/1.1/DTD/svg11.dtd">
<svg version="1.1" id="Layer_1" xmlns="http://www.w3.org/2000/svg" xmlns:xlink="http://www.w3.org/1999/xlink" x="0px" y="0px"
	 viewBox="0 0 45 44" enable-background="new 0 0 45 44" xml:space="preserve">
<g>
	<path fill="none" stroke="#231F20" stroke-width="1.5" stroke-linejoin="round" stroke-miterlimit="10" d="M7.5,24.1
		c-1.4-0.9-2.8-1.1-3.8-0.7c0,0-0.9,0.5-1.5,1.4c-0.4,0.8-0.7,1.8-0.7,3.1c0,4.2,2.7,9.3,6,11.4c1.9,1.2,3.3,1,4.7,0.1
		c0.8-0.8,1.3-2.1,1.3-3.8C13.5,31.3,10.8,26.2,7.5,24.1z"/>
	<path fill="none" stroke="#231F20" stroke-width="1.5" stroke-linejoin="round" stroke-miterlimit="10" d="M32.8,4L3.7,23.4
		c0,0-0.9,0.5-1.5,1.4c-0.4,0.8-0.7,1.8-0.7,3.1c0,4.2,2.7,9.3,6,11.4c1.9,1.2,3.3,1,4.7,0.1l29.1-19.4c0.8-0.8,1.3-2.1,1.3-3.8
		c0-4.2-2.7-9.3-6-11.4C35.2,3.7,33.9,3.5,32.8,4z"/>
	<path fill="none" stroke="#231F20" stroke-width="1.5" stroke-linejoin="round" stroke-miterlimit="10" d="M17.5,35.8
		c0.8-0.8,1.3-2.1,1.3-3.8c0-4.2-2.7-9.3-6-11.4c-1.4-0.9-2.8-1.1-3.8-0.7"/>
</g>
</svg>
