<?xml version="1.0" encoding="utf-8"?>
<!-- Generator: Adobe Illustrator 21.0.0, SVG Export Plug-In . SVG Version: 6.00 Build 0)  -->
<svg version="1.1" id="Layer_1" xmlns="http://www.w3.org/2000/svg" xmlns:xlink="http://www.w3.org/1999/xlink" x="0px" y="0px"
	 viewBox="0 0 45 44" style="enable-background:new 0 0 45 44;" xml:space="preserve">
<style type="text/css">
	.st0{fill:none;stroke:#000000;stroke-width:1.5;stroke-miterlimit:10;}
</style>
<line class="st0" x1="22.5" y1="13.5" x2="22.5" y2="44"/>
<polyline class="st0" points="18,17 22.5,13 27,17 "/>
<line class="st0" x1="4.5" y1="26" x2="4.5" y2="44"/>
<polyline class="st0" points="1,28 4.5,25 8,28 "/>
<line class="st0" x1="39.5" y1="25" x2="39.5" y2="44"/>
<polyline class="st0" points="36,28 39.5,25 43,28 "/>
<path class="st0" d="M0.5,17c3.5,0.1,7.1-1.9,9.8-5.8l1.3-1.8L13,7.3c5.3-7.7,14-7.7,19.3,0l1.5,2.1l1.3,1.8
	c2.6,3.8,6.1,5.7,9.5,5.8"/>
</svg>
