<?xml version="1.0" encoding="utf-8"?>
<!-- Generator: Adobe Illustrator 21.0.0, SVG Export Plug-In . SVG Version: 6.00 Build 0)  -->
<svg version="1.1" id="Layer_1" xmlns="http://www.w3.org/2000/svg" xmlns:xlink="http://www.w3.org/1999/xlink" x="0px" y="0px"
	 viewBox="0 0 45 44" style="enable-background:new 0 0 45 44;" xml:space="preserve">
<style type="text/css">
	.st0{fill:none;stroke:#000000;stroke-width:1.5;stroke-miterlimit:10;}
</style>
<line class="st0" x1="16.5" y1="24" x2="16.5" y2="0"/>
<line class="st0" x1="5.5" y1="21.7" x2="5.5" y2="0"/>
<line class="st0" x1="28.5" y1="20.1" x2="28.5" y2="0"/>
<line class="st0" x1="39.5" y1="16.1" x2="39.5" y2="0"/>
<polyline class="st0" points="43.5,12.8 39.5,16 35.5,12.8 "/>
<polyline class="st0" points="32.5,16.8 28.5,20 24.5,16.8 "/>
<polyline class="st0" points="20.5,20.8 16.5,24 12.5,20.8 "/>
<polyline class="st0" points="9.5,18.8 5.5,22 1.5,18.8 "/>
<g>
	<polyline class="st0" points="43.5,44 43.5,22.8 39.5,26 35.5,22.8 28.5,29 22.5,28.3 16.5,33 9.5,28.8 5.5,32 1.5,28.8 1.5,28.5 
		1.5,44 	"/>
</g>
</svg>
