<?xml version="1.0" encoding="utf-8"?>
<!-- Generator: Adobe Illustrator 21.0.0, SVG Export Plug-In . SVG Version: 6.00 Build 0)  -->
<svg version="1.1" id="Layer_1" xmlns="http://www.w3.org/2000/svg" xmlns:xlink="http://www.w3.org/1999/xlink" x="0px" y="0px"
	 viewBox="0 0 45 44" style="enable-background:new 0 0 45 44;" xml:space="preserve">
<style type="text/css">
	.st0{fill:none;stroke:#000000;stroke-width:1.5;stroke-miterlimit:10;}
</style>
<line class="st0" x1="12.5" y1="25" x2="12.5" y2="0"/>
<path class="st0" d="M1.5,44c0,0,0-16.2,0-16.5c0,3.2,3.2,5.4,5.8,6.3c3.1,1,7,1,10-0.3c2.9-1.3,4.6-4.7,7.5-6.1
	c4-1.9,8.3,2.5,12.5,0.7c3.1-1.3,6.1-2.8,6.1-6.3V44"/>
<line class="st0" x1="33.5" y1="19.6" x2="33.5" y2="0"/>
<path class="st0" d="M7.5,21.5c1,2.4,2.9,4,5,4s4-1.6,5-4"/>
<path class="st0" d="M28.5,15.5c1,2.4,2.9,4,5,4s4-1.6,5-4"/>
</svg>
