<?xml version="1.0" encoding="utf-8"?>
<!-- Generator: Adobe Illustrator 21.0.0, SVG Export Plug-In . SVG Version: 6.00 Build 0)  -->
<svg version="1.1" id="Layer_1" xmlns="http://www.w3.org/2000/svg" xmlns:xlink="http://www.w3.org/1999/xlink" x="0px" y="0px"
	 viewBox="0 0 45 44" style="enable-background:new 0 0 45 44;" xml:space="preserve">
<style type="text/css">
	.st0{fill:none;stroke:#000000;stroke-width:1.5;stroke-linejoin:round;stroke-miterlimit:10;}
</style>
<path class="st0" d="M43.5,22.1v16.4c0,2.2-1.6,4-3.5,4s-3.5-1.8-3.5-4v-33c0-2.2-1.6-4-3.5-4s-3.5,1.8-3.5,4v33c0,2.2-1.6,4-3.5,4
	s-3.5-1.8-3.5-4v-33c0-2.2-1.6-4-3.5-4s-3.5,1.8-3.5,4v33c0,2.2-1.6,4-3.5,4s-3.5-1.8-3.5-4v-33c0-2.2-1.6-4-3.5-4s-3.5,1.8-3.5,4
	V22"/>
</svg>
