<?xml version="1.0" encoding="utf-8"?>
<!-- Generator: Adobe Illustrator 21.0.0, SVG Export Plug-In . SVG Version: 6.00 Build 0)  -->
<svg version="1.1" id="Layer_1" xmlns="http://www.w3.org/2000/svg" xmlns:xlink="http://www.w3.org/1999/xlink" x="0px" y="0px"
	 viewBox="0 0 45 44" style="enable-background:new 0 0 45 44;" xml:space="preserve">
<style type="text/css">
	.st0{fill:none;stroke:#000000;stroke-width:1.5;stroke-miterlimit:10;}
</style>
<path class="st0" d="M43.8,22.2l-1.6,16.6c-0.2,2.2-1.1,4-1.9,4c-0.8,0-1.7-1.8-1.9-4L35,5.3c-0.2-2.2-1.1-4-1.9-4s-1.7,1.8-1.9,4
	l-3.3,33.5c-0.2,2.2-1.1,4-1.9,4s-1.7-1.8-1.9-4L20.9,5.3c-0.2-2.2-1.1-4-1.9-4s-1.7,1.8-1.9,4l-3.3,33.5c-0.2,2.2-1.1,4-1.9,4
	s-1.7-1.8-1.9-4L6.7,5.3c-0.2-2.2-1.1-4-1.9-4s-1.7,1.8-1.9,4L1.2,22.2"/>
</svg>
