<?xml version="1.0" encoding="utf-8"?>
<!-- Generator: Adobe Illustrator 21.0.0, SVG Export Plug-In . SVG Version: 6.00 Build 0)  -->
<svg version="1.1" id="Layer_1" xmlns="http://www.w3.org/2000/svg" xmlns:xlink="http://www.w3.org/1999/xlink" x="0px" y="0px"
	 viewBox="0 0 45 44" style="enable-background:new 0 0 45 44;" xml:space="preserve">
<style type="text/css">
	.st0{fill:none;stroke:#000000;stroke-width:1.5;stroke-miterlimit:10;}
</style>
<g>
	<g>
		<line class="st0" x1="1.6" y1="0" x2="1.6" y2="2"/>
		<line class="st0" x1="22.6" y1="0" x2="22.6" y2="2"/>
		<line class="st0" x1="43.6" y1="0" x2="43.6" y2="2"/>
	</g>
</g>
<g>
	<g>
		<line class="st0" x1="1.6" y1="4" x2="1.6" y2="6"/>
		<line class="st0" x1="22.6" y1="4" x2="22.6" y2="6"/>
		<line class="st0" x1="43.6" y1="4" x2="43.6" y2="6"/>
	</g>
</g>
<g>
	<g>
		<line class="st0" x1="1.6" y1="8" x2="1.6" y2="10"/>
		<line class="st0" x1="22.6" y1="8" x2="22.6" y2="10"/>
		<line class="st0" x1="43.6" y1="8" x2="43.6" y2="10"/>
	</g>
</g>
<g>
	<g>
		<line class="st0" x1="1.6" y1="34" x2="1.6" y2="36"/>
		<line class="st0" x1="22.6" y1="34" x2="22.6" y2="36"/>
		<line class="st0" x1="43.6" y1="34" x2="43.6" y2="36"/>
	</g>
</g>
<g>
	<g>
		<line class="st0" x1="1.6" y1="38" x2="1.6" y2="40"/>
		<line class="st0" x1="22.6" y1="38" x2="22.6" y2="40"/>
		<line class="st0" x1="43.6" y1="38" x2="43.6" y2="40"/>
	</g>
</g>
<g>
	<g>
		<line class="st0" x1="1.6" y1="42" x2="1.6" y2="44"/>
		<line class="st0" x1="22.6" y1="42" x2="22.6" y2="44"/>
		<line class="st0" x1="43.6" y1="42" x2="43.6" y2="44"/>
	</g>
</g>
<rect x="1.6" y="12.5" class="st0" width="21" height="19"/>
<polyline class="st0" points="25.1,12.5 43.6,12.5 43.6,31.5 25.1,31.5 "/>
</svg>
