<?xml version="1.0" encoding="utf-8"?>
<!-- Generator: Adobe Illustrator 21.0.2, SVG Export Plug-In . SVG Version: 6.00 Build 0)  -->
<svg version="1.1" id="Layer_1" xmlns="http://www.w3.org/2000/svg" xmlns:xlink="http://www.w3.org/1999/xlink" x="0px" y="0px"
	 viewBox="0 0 58 44" style="enable-background:new 0 0 58 44;" xml:space="preserve">
<style type="text/css">
	.st0{fill:none;stroke:#000000;stroke-width:1.5;stroke-miterlimit:10;}
</style>
<g id="Layer_1_2_">
	<g id="Layer_1_1_">
		<title>ENV1</title>
		<path d="M16.7,12.1h10.1V13h-9v6.9h7.3v0.9h-7.3v7.4h9.4v0.9H16.7V12.1z"/>
		<rect x="1.5" y="1.4" class="st0" width="55.1" height="41.2"/>
	</g>
</g>
<path d="M40.4,28.2v0.9H29.7v-0.8l6-5.7c2.2-2.1,3.4-3.7,3.4-5.8S37.4,13,35.4,13c-0.1,0-0.2,0-0.3,0c-2.4,0-4.2,1.5-4.8,4.8
	l-0.9-0.2c0.6-3.5,2.7-5.5,5.7-5.5c2.6-0.1,4.8,2,4.9,4.6c0,0.1,0,0.1,0,0.2c0,2.5-1.3,4.2-3.6,6.4l-5.2,5.1L40.4,28.2z"/>
</svg>
