<?xml version="1.0" encoding="utf-8"?>
<!-- Generator: Adobe Illustrator 21.0.2, SVG Export Plug-In . SVG Version: 6.00 Build 0)  -->
<svg version="1.1" xmlns="http://www.w3.org/2000/svg" xmlns:xlink="http://www.w3.org/1999/xlink" x="0px" y="0px"
	 viewBox="0 0 58 44" style="enable-background:new 0 0 58 44;" xml:space="preserve">
<style type="text/css">
	.st0{fill:none;stroke:#000000;stroke-width:1.5;stroke-miterlimit:10;}
</style>
<g id="Layer_1">
	<g id="Layer_1_1_">
		<title>ENV1</title>
		<path d="M16.7,12.1h10.1V13h-9v6.9h7.3v0.9h-7.3v7.4h9.4v0.9H16.7V12.1z"/>
		<rect x="1.5" y="1.4" class="st0" width="55.1" height="41.2"/>
	</g>
</g>
<g id="Oscillator_B">
	<g>
		<g>
			<g>
				<path d="M39.6,24.6c0,2.7-2.1,5-5.4,5c-3,0-5.1-1.9-5.5-4.3l0.9-0.3c0.5,2.2,2,3.7,4.5,3.7c2.7,0,4.4-1.8,4.4-4.1
					c0-2.3-1.7-3.8-4.4-3.8H33v-0.8v-0.1h1.2c2.2,0,3.6-1.5,3.6-3.4s-1.4-3.5-3.6-3.5c-2.2,0-3.3,1.4-3.7,3.2l-1-0.2
					c0.4-2.1,2-3.9,4.7-3.9c2.8,0,4.7,2.2,4.7,4.4c0,1.7-0.9,3.1-2.5,3.8C38.4,20.9,39.6,22.5,39.6,24.6z"/>
			</g>
		</g>
	</g>
</g>
</svg>
