<?xml version="1.0" encoding="utf-8"?>
<!-- Generator: Adobe Illustrator 18.0.0, SVG Export Plug-In . SVG Version: 6.00 Build 0)  -->
<!DOCTYPE svg PUBLIC "-//W3C//DTD SVG 1.1//EN" "http://www.w3.org/Graphics/SVG/1.1/DTD/svg11.dtd">
<svg version="1.1" id="Layer_1" xmlns="http://www.w3.org/2000/svg" xmlns:xlink="http://www.w3.org/1999/xlink" x="0px" y="0px"
	 viewBox="0 0 45 44" enable-background="new 0 0 45 44" xml:space="preserve">
<circle fill="none" stroke="#000000" stroke-width="1.5" stroke-miterlimit="10" cx="22" cy="22" r="20.5"/>
<g>
	<path d="M26.2,24.5c0,2.4-2.1,4.5-4.5,4.5c-2.1,0-3.8-1-4.5-3.2l1.5-0.7c0.4,1.4,1.5,2.3,3.1,2.3c1.6,0,2.9-1.2,2.9-3
		c0-2-1.6-3-2.9-3c-1.1,0-1.9,0.4-2.4,1.2l-1.5-0.2l0.9-7.1h7v1.5H20l-0.5,4.1c0.6-0.5,1.4-0.8,2.2-0.8
		C24.2,20.1,26.2,22.1,26.2,24.5z"/>
</g>
</svg>
