<?xml version="1.0" encoding="utf-8"?>
<!-- Generator: Adobe Illustrator 18.0.0, SVG Export Plug-In . SVG Version: 6.00 Build 0)  -->
<!DOCTYPE svg PUBLIC "-//W3C//DTD SVG 1.1//EN" "http://www.w3.org/Graphics/SVG/1.1/DTD/svg11.dtd">
<svg version="1.1" id="Layer_1" xmlns="http://www.w3.org/2000/svg" xmlns:xlink="http://www.w3.org/1999/xlink" x="0px" y="0px"
	 viewBox="0 0 45 44" enable-background="new 0 0 45 44" xml:space="preserve">
<circle fill="none" stroke="#000000" stroke-width="1.5" stroke-miterlimit="10" cx="22" cy="22" r="20.5"/>
<g>
	<path d="M26.9,24.6c0,2.5-2.1,4.4-4.5,4.4s-4.9-1.9-4.9-6.1c0-3.4,1.1-7.9,5.2-7.9c2.6,0,3.8,1.7,4.1,3l-1.5,0.5
		c-0.3-1-1.1-2-2.6-2c-2.1,0-3.4,1.9-3.6,5.5c0.8-1.3,2.1-1.8,3.4-1.8C25,20.2,26.9,22,26.9,24.6z M25.3,24.6c0-1.8-1.3-2.9-2.8-2.9
		c-1.6,0-2.9,1.1-2.9,2.9c0,1.7,1.3,2.9,2.9,2.9C24,27.5,25.3,26.4,25.3,24.6z"/>
</g>
</svg>
