<?xml version="1.0" encoding="utf-8"?>
<!-- Generator: Adobe Illustrator 18.0.0, SVG Export Plug-In . SVG Version: 6.00 Build 0)  -->
<!DOCTYPE svg PUBLIC "-//W3C//DTD SVG 1.1//EN" "http://www.w3.org/Graphics/SVG/1.1/DTD/svg11.dtd">
<svg version="1.1" id="Layer_1" xmlns="http://www.w3.org/2000/svg" xmlns:xlink="http://www.w3.org/1999/xlink" x="0px" y="0px"
	 viewBox="0 0 45 44" enable-background="new 0 0 45 44" xml:space="preserve">
<circle fill="none" stroke="#000000" stroke-width="1.5" stroke-miterlimit="10" cx="22" cy="22" r="20.5"/>
<g>
	<path d="M26.7,24.7c0,2.3-1.9,4.2-4.7,4.2s-4.7-1.8-4.7-4.2c0-1.5,0.8-2.8,2.2-3.5c-0.9-0.6-1.4-1.6-1.4-2.7c0-2,1.6-3.5,3.9-3.5
		s3.9,1.5,3.9,3.5c0,1.1-0.5,2.1-1.4,2.7C25.9,21.9,26.7,23.2,26.7,24.7z M25.1,24.7c0-1.5-1.3-2.7-3.1-2.7s-3.1,1.2-3.1,2.7
		s1.3,2.7,3.1,2.7S25.1,26.3,25.1,24.7z M19.7,18.5c0,1.1,1,2.1,2.3,2.1s2.3-0.9,2.3-2.1c0-1.1-0.9-2-2.3-2S19.7,17.4,19.7,18.5z"/>
</g>
</svg>
