<?xml version="1.0" encoding="utf-8"?>
<!-- Generator: Adobe Illustrator 18.0.0, SVG Export Plug-In . SVG Version: 6.00 Build 0)  -->
<!DOCTYPE svg PUBLIC "-//W3C//DTD SVG 1.1//EN" "http://www.w3.org/Graphics/SVG/1.1/DTD/svg11.dtd">
<svg version="1.1" id="Layer_1" xmlns="http://www.w3.org/2000/svg" xmlns:xlink="http://www.w3.org/1999/xlink" x="0px" y="0px"
	 viewBox="0 0 45 44" enable-background="new 0 0 45 44" xml:space="preserve">
<circle fill="none" stroke="#000000" stroke-width="1.5" stroke-miterlimit="10" cx="22" cy="22" r="20.5"/>
<g>
	<path d="M26.2,24.8c0,2.3-1.8,4.1-4.5,4.1s-4.4-1.5-4.7-3.6l1.6-0.4c0.3,1.6,1.4,2.6,3.1,2.6s2.9-1.1,2.9-2.6s-1.3-2.6-2.9-2.6
		h-1.1v-1.4h1.1c1.4,0,2.4-0.9,2.4-2.1s-0.9-2.1-2.3-2.1s-2.1,0.9-2.4,2l-1.6-0.3c0.3-1.7,1.8-3.2,4-3.2c2.3,0,4,1.6,4,3.6
		c0,1.2-0.6,2.2-1.6,2.8C25.4,22,26.2,23.3,26.2,24.8z"/>
</g>
</svg>
