<?xml version="1.0" encoding="utf-8"?>
<!-- Generator: Adobe Illustrator 18.0.0, SVG Export Plug-In . SVG Version: 6.00 Build 0)  -->
<!DOCTYPE svg PUBLIC "-//W3C//DTD SVG 1.1//EN" "http://www.w3.org/Graphics/SVG/1.1/DTD/svg11.dtd">
<svg version="1.1" id="Layer_1" xmlns="http://www.w3.org/2000/svg" xmlns:xlink="http://www.w3.org/1999/xlink" x="0px" y="0px"
	 viewBox="158 158 45 45" enable-background="new 158 158 45 45" xml:space="preserve">
<g>
	<g>
		<path fill="none" stroke="#000000" stroke-width="1.5" stroke-linejoin="round" stroke-miterlimit="10" d="M158,180.5h4.5
			c2.2,0,4.5-1.7,5.1-3.8l3.8-13.3c0.6-2.1,2.9-3.8,5.1-3.8l0,0c2.2,0,5.8,0,8,0l0,0c2.2,0,4.5,1.7,5.1,3.8l3.8,13.3
			c0.6,2.1,2.9,3.8,5.1,3.8h4.5"/>
	</g>
	<g>
		<path fill="none" stroke="#000000" stroke-width="1.5" stroke-linejoin="round" stroke-miterlimit="10" d="M158,180.5h4.5
			c2.2,0,4.5,1.7,5.1,3.8l3.8,13.3c0.6,2.1,2.9,3.8,5.1,3.8l0,0c2.2,0,5.8,0,8,0l0,0c2.2,0,4.5-1.7,5.1-3.8l3.8-13.3
			c0.6-2.1,2.9-3.8,5.1-3.8h4.5"/>
	</g>
</g>
</svg>
