<?xml version="1.0" encoding="utf-8"?>
<!-- Generator: Adobe Illustrator 18.0.0, SVG Export Plug-In . SVG Version: 6.00 Build 0)  -->
<!DOCTYPE svg PUBLIC "-//W3C//DTD SVG 1.1//EN" "http://www.w3.org/Graphics/SVG/1.1/DTD/svg11.dtd">
<svg version="1.1" id="Layer_1" xmlns="http://www.w3.org/2000/svg" xmlns:xlink="http://www.w3.org/1999/xlink" x="0px" y="0px"
	 viewBox="158 158 45 45" enable-background="new 158 158 45 45" xml:space="preserve">
<path fill="none" stroke="#000000" stroke-width="1.5" stroke-linejoin="round" stroke-miterlimit="10" d="M159.5,202.5
	c0,0,0-3.4,0-7.5s3.4-7.5,7.5-7.5s7.5,3.4,7.5,7.5s0,7.5,0,7.5"/>
<path fill="none" stroke="#000000" stroke-width="1.5" stroke-linejoin="round" stroke-miterlimit="10" d="M159.5,175
	c0,0,0-3.5,0-7.8s3.5-7.8,7.8-7.8s7.8,0,7.8,0"/>
<path fill="none" stroke="#000000" stroke-width="1.5" stroke-linejoin="round" stroke-miterlimit="10" d="M201.5,203
	c0,0,0-3.5,0-7.8s-3.5-7.8-7.8-7.8s-7.8,0-7.8,0"/>
<path fill="none" stroke="#000000" stroke-width="1.5" stroke-linejoin="round" stroke-miterlimit="10" d="M185.5,159.5
	c0,0,0.9,0,1.9,0c1,0,2.2,3.4,2.5,7.5c0.3,4.1,2.1,7.5,3.1,7.5s1,0,2,0s2.8-3.4,3.1-7.5c0.3-4.1,1.5-7.5,2.5-7.5c1,0,1.9,0,1.9,0"/>
</svg>
