<?xml version="1.0" encoding="utf-8"?>
<!-- Generator: Adobe Illustrator 18.0.0, SVG Export Plug-In . SVG Version: 6.00 Build 0)  -->
<!DOCTYPE svg PUBLIC "-//W3C//DTD SVG 1.1//EN" "http://www.w3.org/Graphics/SVG/1.1/DTD/svg11.dtd">
<svg version="1.1" id="Layer_1" xmlns="http://www.w3.org/2000/svg" xmlns:xlink="http://www.w3.org/1999/xlink" x="0px" y="0px"
	 viewBox="158 158 45 45" enable-background="new 158 158 45 45" xml:space="preserve">
<path fill="none" stroke="#000000" stroke-width="1.5" stroke-linejoin="round" stroke-miterlimit="10" d="M159.5,203v-33.5
	c0-5.5,4.5-10,10-10H203"/>
<line fill="none" stroke="#000000" stroke-width="1.5" stroke-linejoin="round" stroke-miterlimit="10" x1="194" y1="177.5" x2="185" y2="177.5"/>
<g>
	<polyline fill="none" stroke="#000000" stroke-width="1.5" stroke-linejoin="round" stroke-miterlimit="10" points="182,201.5 
		179.5,201.5 179.5,196.1 	"/>
	
		<line fill="none" stroke="#000000" stroke-width="1.5" stroke-linejoin="round" stroke-miterlimit="10" x1="194" y1="201.5" x2="185" y2="201.5"/>
	
		<line fill="none" stroke="#000000" stroke-width="1.5" stroke-linejoin="round" stroke-miterlimit="10" x1="185" y1="184.5" x2="194" y2="184.5"/>
	<polyline fill="none" stroke="#000000" stroke-width="1.5" stroke-linejoin="round" stroke-miterlimit="10" points="179.5,183 
		179.5,177.5 182,177.5 	"/>
	
		<rect x="177.5" y="183.5" fill="none" stroke="#000000" stroke-width="1.5" stroke-linejoin="round" stroke-miterlimit="10" width="4" height="12"/>
	<polyline fill="none" stroke="#000000" stroke-width="1.5" stroke-linejoin="round" stroke-miterlimit="10" points="197,177.5 
		199.5,177.5 199.5,182.9 	"/>
	<polyline fill="none" stroke="#000000" stroke-width="1.5" stroke-linejoin="round" stroke-miterlimit="10" points="199.5,196 
		199.5,201.5 197,201.5 	"/>
	
		<rect x="197.5" y="183.5" fill="none" stroke="#000000" stroke-width="1.5" stroke-linejoin="round" stroke-miterlimit="10" width="4" height="12"/>
	
		<line fill="none" stroke="#000000" stroke-width="1.5" stroke-linejoin="round" stroke-miterlimit="10" x1="189.5" y1="178.1" x2="189.5" y2="184"/>
	
		<line fill="none" stroke="#000000" stroke-width="1.5" stroke-linejoin="round" stroke-miterlimit="10" x1="194" y1="195.5" x2="185" y2="195.5"/>
	
		<rect x="185.5" y="188.5" fill="none" stroke="#000000" stroke-width="1.5" stroke-linejoin="round" stroke-miterlimit="10" width="8" height="3"/>
	
		<line fill="none" stroke="#000000" stroke-width="1.5" stroke-linejoin="round" stroke-miterlimit="10" x1="189.5" y1="201.9" x2="189.5" y2="195.1"/>
</g>
</svg>
