<?xml version="1.0" encoding="utf-8"?>
<!-- Generator: Adobe Illustrator 18.0.0, SVG Export Plug-In . SVG Version: 6.00 Build 0)  -->
<!DOCTYPE svg PUBLIC "-//W3C//DTD SVG 1.1//EN" "http://www.w3.org/Graphics/SVG/1.1/DTD/svg11.dtd">
<svg version="1.1" id="Layer_1" xmlns="http://www.w3.org/2000/svg" xmlns:xlink="http://www.w3.org/1999/xlink" x="0px" y="0px"
	 viewBox="158 158 45 45" enable-background="new 158 158 45 45" xml:space="preserve">
<g>
	
		<path fill="none" stroke="#000000" stroke-width="1.5" stroke-linecap="square" stroke-linejoin="round" stroke-miterlimit="10" d="
		M159.5,188.5c0,0,0-2.9,0-6.5s2.9-6.5,6.5-6.5s6.5,2.9,6.5,6.5s0,9.4,0,13s2.9,6.5,6.5,6.5s6.5-2.9,6.5-6.5s0-6.5,0-6.5"/>
</g>
<g>
	
		<path fill="none" stroke="#000000" stroke-width="1.5" stroke-linecap="square" stroke-linejoin="round" stroke-miterlimit="10" d="
		M175.5,172.5c0,0,0-2.9,0-6.5s2.9-6.5,6.5-6.5s6.5,2.9,6.5,6.5s0,9.4,0,13s2.9,6.5,6.5,6.5s6.5-2.9,6.5-6.5s0-6.5,0-6.5"/>
</g>
<g>
	<path fill="none" stroke="#000000" stroke-width="1.5" stroke-linecap="square" stroke-miterlimit="10" d="M167.5,180.5
		c0,0,0-2.9,0-6.5s2.9-6.5,6.5-6.5s6.5,2.9,6.5,6.5s0,9.4,0,13s2.9,6.5,6.5,6.5s6.5-2.9,6.5-6.5s0-6.5,0-6.5"/>
</g>
<g>
	<path fill="none" stroke="#000000" stroke-width="1.5" stroke-linecap="square" stroke-miterlimit="10" d="M163.5,184.5
		c0,0,0-2.9,0-6.5s2.9-6.5,6.5-6.5s6.5,2.9,6.5,6.5s0,9.4,0,13s2.9,6.5,6.5,6.5s6.5-2.9,6.5-6.5s0-6.5,0-6.5"/>
</g>
<g>
	<path fill="none" stroke="#000000" stroke-width="1.5" stroke-linecap="square" stroke-miterlimit="10" d="M171.5,176.5
		c0,0,0-2.9,0-6.5s2.9-6.5,6.5-6.5s6.5,2.9,6.5,6.5s0,9.4,0,13s2.9,6.5,6.5,6.5s6.5-2.9,6.5-6.5s0-6.5,0-6.5"/>
</g>
</svg>
