<?xml version="1.0" encoding="utf-8"?>
<!-- Generator: Adobe Illustrator 19.1.0, SVG Export Plug-In . SVG Version: 6.00 Build 0)  -->
<!DOCTYPE svg PUBLIC "-//W3C//DTD SVG 1.1//EN" "http://www.w3.org/Graphics/SVG/1.1/DTD/svg11.dtd">
<svg version="1.1" id="Layer_1" xmlns="http://www.w3.org/2000/svg" xmlns:xlink="http://www.w3.org/1999/xlink" x="0px" y="0px"
	 viewBox="-977 979 45 44" style="enable-background:new -977 979 45 44;" xml:space="preserve">
<style type="text/css">
	.st0{fill:none;stroke:#000000;stroke-width:1.5;stroke-linejoin:round;stroke-miterlimit:10;}
</style>
<path class="st0" d="M-932,980.5h-16c-27,0-14.4,36.4-29,41.1"/>
<g>
	<g>
		<g>
			<path d="M-947.5,987c-0.4-0.5-0.8-1-1.3-1.4l1-1.1c0.5,0.5,1,1,1.4,1.6L-947.5,987z"/>
		</g>
		<g>
			<path d="M-937.4,1018.3c-0.7-1.1-1.3-2.4-1.9-3.9l1.4-0.5c0.5,1.4,1.1,2.6,1.7,3.6L-937.4,1018.3z M-940.5,1010.3
				c-0.3-1.5-0.6-3-0.8-4.1l1.5-0.3c0.2,1.1,0.5,2.6,0.8,4L-940.5,1010.3z M-942.1,1002.1c-0.3-1.6-0.6-2.9-0.8-4l1.5-0.3
				c0.3,1.2,0.5,2.5,0.8,4.1L-942.1,1002.1z M-944,994.1c-0.5-1.4-0.9-2.6-1.5-3.8l1.3-0.7c0.6,1.2,1.1,2.5,1.6,4L-944,994.1z"/>
		</g>
		<g>
			<path d="M-932,1022.5c-0.7-0.2-1.6-0.7-2.2-1.1l0.8-1.3c0.5,0.3,0.8,0.6,1.4,0.8V1022.5z"/>
		</g>
	</g>
</g>
<path class="st0" d="M-971,980.5h-6"/>
<path class="st0" d="M-962,980.5h-5"/>
</svg>
