<?xml version="1.0" encoding="utf-8"?>
<!-- Generator: Adobe Illustrator 18.0.0, SVG Export Plug-In . SVG Version: 6.00 Build 0)  -->
<!DOCTYPE svg PUBLIC "-//W3C//DTD SVG 1.1//EN" "http://www.w3.org/Graphics/SVG/1.1/DTD/svg11.dtd">
<svg version="1.1" id="Layer_1" xmlns="http://www.w3.org/2000/svg" xmlns:xlink="http://www.w3.org/1999/xlink" x="0px" y="0px"
	 viewBox="158 158 45 45" enable-background="new 158 158 45 45" xml:space="preserve">
<path fill="none" stroke="#000000" stroke-width="1.5" stroke-linejoin="round" stroke-miterlimit="10" d="M159.5,203v-33.5
	c0-5.5,4.5-10,10-10h22c5.5,0,10,4.5,10,10V203"/>
<g>
	
		<line fill="none" stroke="#000000" stroke-width="1.5" stroke-linejoin="round" stroke-miterlimit="10" x1="177" y1="179.5" x2="184" y2="179.5"/>
	
		<line fill="none" stroke="#000000" stroke-width="1.5" stroke-linejoin="round" stroke-miterlimit="10" x1="184" y1="199.5" x2="177" y2="199.5"/>
	<g>
		<polyline fill="none" stroke="#000000" stroke-width="1.5" stroke-linejoin="round" stroke-miterlimit="10" points="172,199.5 
			168.5,199.5 168.5,179.5 172,179.5 		"/>
		<rect x="172.5" y="177.5" fill="none" stroke="#000000" stroke-width="1.5" stroke-miterlimit="10" width="4" height="4"/>
		<rect x="172.5" y="197.5" fill="none" stroke="#000000" stroke-width="1.5" stroke-miterlimit="10" width="4" height="4"/>
	</g>
	<g>
		<polyline fill="none" stroke="#000000" stroke-width="1.5" stroke-linejoin="round" stroke-miterlimit="10" points="189,179.5 
			192.5,179.5 192.5,199.5 189,199.5 		"/>
		<rect x="184.5" y="197.5" fill="none" stroke="#000000" stroke-width="1.5" stroke-miterlimit="10" width="4" height="4"/>
		<rect x="184.5" y="177.5" fill="none" stroke="#000000" stroke-width="1.5" stroke-miterlimit="10" width="4" height="4"/>
	</g>
	<polyline fill="none" stroke="#000000" stroke-width="1.5" stroke-linejoin="round" stroke-miterlimit="10" points="192,189.5 
		186.9,189.5 185,191.5 181.7,188 178.5,191.5 175.3,187.5 174,189.5 169,189.5 	"/>
</g>
</svg>
