<?xml version="1.0" encoding="utf-8"?>
<!-- Generator: Adobe Illustrator 18.0.0, SVG Export Plug-In . SVG Version: 6.00 Build 0)  -->
<!DOCTYPE svg PUBLIC "-//W3C//DTD SVG 1.1//EN" "http://www.w3.org/Graphics/SVG/1.1/DTD/svg11.dtd">
<svg version="1.1" id="Layer_1" xmlns="http://www.w3.org/2000/svg" xmlns:xlink="http://www.w3.org/1999/xlink" x="0px" y="0px"
	 viewBox="158 158 45 45" enable-background="new 158 158 45 45" xml:space="preserve">
<g>
	
		<path fill="none" stroke="#000000" stroke-width="1.5" stroke-linecap="square" stroke-linejoin="round" stroke-miterlimit="10" d="
		M159.5,188.5v-10c0-1.6,1.4-3,3-3h7c1.6,0,3,1.4,3,3v7c0,1.6,0,4.4,0,6v7c0,1.6,1.4,3,3,3h7c1.6,0,3-1.4,3-3v-10"/>
</g>
<g>
	
		<path fill="none" stroke="#000000" stroke-width="1.5" stroke-linecap="square" stroke-linejoin="round" stroke-miterlimit="10" d="
		M175.5,172.5v-10c0-1.6,1.4-3,3-3h7c1.6,0,3,1.4,3,3v7c0,1.6,0,4.4,0,6v7c0,1.6,1.4,3,3,3h7c1.6,0,3-1.4,3-3v-10"/>
</g>
<g>
	<path fill="none" stroke="#000000" stroke-width="1.5" stroke-linecap="square" stroke-miterlimit="10" d="M167.5,180.5v-10
		c0-1.6,1.4-3,3-3h7c1.6,0,3,1.4,3,3v7c0,1.6,0,4.4,0,6v7c0,1.6,1.4,3,3,3h7c1.6,0,3-1.4,3-3v-10"/>
</g>
<g>
	<path fill="none" stroke="#000000" stroke-width="1.5" stroke-linecap="square" stroke-miterlimit="10" d="M163.5,184.5v-10
		c0-1.6,1.4-3,3-3h7c1.6,0,3,1.4,3,3v7c0,1.6,0,4.4,0,6v7c0,1.6,1.4,3,3,3h7c1.6,0,3-1.4,3-3v-10"/>
</g>
<g>
	<path fill="none" stroke="#000000" stroke-width="1.5" stroke-linecap="square" stroke-miterlimit="10" d="M171.5,176.5v-10
		c0-1.6,1.4-3,3-3h7c1.6,0,3,1.4,3,3v7c0,1.6,0,4.4,0,6v7c0,1.6,1.4,3,3,3h7c1.6,0,3-1.4,3-3v-10"/>
</g>
</svg>
