<?xml version="1.0" encoding="utf-8"?>
<!-- Generator: Adobe Illustrator 18.0.0, SVG Export Plug-In . SVG Version: 6.00 Build 0)  -->
<!DOCTYPE svg PUBLIC "-//W3C//DTD SVG 1.1//EN" "http://www.w3.org/Graphics/SVG/1.1/DTD/svg11.dtd">
<svg version="1.1" id="Layer_1" xmlns="http://www.w3.org/2000/svg" xmlns:xlink="http://www.w3.org/1999/xlink" x="0px" y="0px"
	 viewBox="0 0 45 45" enable-background="new 0 0 45 45" xml:space="preserve">
<g>
	<line fill="none" stroke="#000000" stroke-width="1.5" stroke-miterlimit="10" x1="1.5" y1="0" x2="1.5" y2="45"/>
</g>
<g>
	<line fill="none" stroke="#000000" stroke-width="1.5" stroke-miterlimit="10" x1="43.5" y1="0" x2="43.5" y2="45"/>
</g>
<g>
	<line fill="none" stroke="#000000" stroke-width="1.5" stroke-miterlimit="10" x1="40.5" y1="0" x2="40.5" y2="45"/>
</g>
<g>
	<line fill="none" stroke="#000000" stroke-width="1.5" stroke-miterlimit="10" x1="37.5" y1="0" x2="37.5" y2="45"/>
</g>
<g>
	<line fill="none" stroke="#000000" stroke-width="1.5" stroke-miterlimit="10" x1="16.5" y1="0" x2="16.5" y2="45"/>
</g>
<g>
	<line fill="none" stroke="#000000" stroke-width="1.5" stroke-miterlimit="10" x1="25.5" y1="0" x2="25.5" y2="45"/>
</g>
<g>
	<line fill="none" stroke="#000000" stroke-width="1.5" stroke-miterlimit="10" x1="31.5" y1="0" x2="31.5" y2="45"/>
</g>
<g>
	<line fill="none" stroke="#000000" stroke-width="1.5" stroke-miterlimit="10" x1="34.5" y1="0" x2="34.5" y2="45"/>
</g>
<g>
	<line fill="none" stroke="#000000" stroke-width="1.5" stroke-miterlimit="10" x1="7.5" y1="0" x2="7.5" y2="45"/>
</g>
<g>
	<line fill="none" stroke="#000000" stroke-width="1.5" stroke-miterlimit="10" x1="22.5" y1="0" x2="22.5" y2="45"/>
</g>
<g>
	<line fill="none" stroke="#000000" stroke-width="1.5" stroke-miterlimit="10" x1="13.5" y1="0" x2="13.5" y2="45"/>
</g>
<g>
	<line fill="none" stroke="#000000" stroke-width="1.5" stroke-miterlimit="10" x1="10.5" y1="0" x2="10.5" y2="45"/>
</g>
<g>
	<line fill="none" stroke="#000000" stroke-width="1.5" stroke-miterlimit="10" x1="4.5" y1="0" x2="4.5" y2="45"/>
</g>
<g>
	<line fill="none" stroke="#000000" stroke-width="1.5" stroke-miterlimit="10" x1="19.5" y1="0" x2="19.5" y2="45"/>
</g>
<g>
	<line fill="none" stroke="#000000" stroke-width="1.5" stroke-miterlimit="10" x1="28.5" y1="0" x2="28.5" y2="45"/>
</g>
</svg>
