<?xml version="1.0" encoding="utf-8"?>
<!-- Generator: Adobe Illustrator 18.0.0, SVG Export Plug-In . SVG Version: 6.00 Build 0)  -->
<!DOCTYPE svg PUBLIC "-//W3C//DTD SVG 1.1//EN" "http://www.w3.org/Graphics/SVG/1.1/DTD/svg11.dtd">
<svg version="1.1" id="Layer_1" xmlns="http://www.w3.org/2000/svg" xmlns:xlink="http://www.w3.org/1999/xlink" x="0px" y="0px"
	 viewBox="0 0 45 45" enable-background="new 0 0 45 45" xml:space="preserve">
<g>
	<line fill="none" stroke="#000000" stroke-miterlimit="10" x1="45" y1="1.5" x2="0" y2="1.5"/>
</g>
<g>
	<line fill="none" stroke="#000000" stroke-miterlimit="10" x1="45" y1="43.5" x2="0" y2="43.5"/>
</g>
<g>
	<line fill="none" stroke="#000000" stroke-miterlimit="10" x1="45" y1="40.5" x2="0" y2="40.5"/>
</g>
<g>
	<line fill="none" stroke="#000000" stroke-miterlimit="10" x1="45" y1="37.5" x2="0" y2="37.5"/>
</g>
<g>
	<line fill="none" stroke="#000000" stroke-miterlimit="10" x1="45" y1="16.5" x2="0" y2="16.5"/>
</g>
<g>
	<line fill="none" stroke="#000000" stroke-miterlimit="10" x1="45" y1="25.5" x2="0" y2="25.5"/>
</g>
<g>
	<line fill="none" stroke="#000000" stroke-miterlimit="10" x1="45" y1="31.5" x2="0" y2="31.5"/>
</g>
<g>
	<line fill="none" stroke="#000000" stroke-miterlimit="10" x1="45" y1="34.5" x2="0" y2="34.5"/>
</g>
<g>
	<line fill="none" stroke="#000000" stroke-miterlimit="10" x1="45" y1="7.5" x2="0" y2="7.5"/>
</g>
<g>
	<line fill="none" stroke="#000000" stroke-miterlimit="10" x1="45" y1="22.5" x2="0" y2="22.5"/>
</g>
<g>
	<line fill="none" stroke="#000000" stroke-miterlimit="10" x1="45" y1="13.5" x2="0" y2="13.5"/>
</g>
<g>
	<line fill="none" stroke="#000000" stroke-miterlimit="10" x1="45" y1="10.5" x2="0" y2="10.5"/>
</g>
<g>
	<line fill="none" stroke="#000000" stroke-miterlimit="10" x1="45" y1="4.5" x2="0" y2="4.5"/>
</g>
<g>
	<line fill="none" stroke="#000000" stroke-miterlimit="10" x1="45" y1="19.5" x2="0" y2="19.5"/>
</g>
<g>
	<line fill="none" stroke="#000000" stroke-miterlimit="10" x1="45" y1="28.5" x2="0" y2="28.5"/>
</g>
</svg>
