<?xml version="1.0" encoding="utf-8"?>
<!-- Generator: Adobe Illustrator 18.0.0, SVG Export Plug-In . SVG Version: 6.00 Build 0)  -->
<!DOCTYPE svg PUBLIC "-//W3C//DTD SVG 1.1//EN" "http://www.w3.org/Graphics/SVG/1.1/DTD/svg11.dtd">
<svg version="1.1" id="Layer_1" xmlns="http://www.w3.org/2000/svg" xmlns:xlink="http://www.w3.org/1999/xlink" x="0px" y="0px"
	 viewBox="0 0 45 44" enable-background="new 0 0 45 44" xml:space="preserve">
<path d="M34,42C33.9,42,33.9,42,34,42c-5.1,0-8.2-10.8-10.7-19.6l-0.1-0.3C20,11.2,17.1,1,11.1,1H11C5.3,1.1,2.7,10.7,0.1,21.1h1.3
	C3.8,11.7,6.3,2.3,11,2.2c0,0,0,0,0.1,0c5,0,8,10.3,10.9,20.2l0.1,0.3c2.7,9.6,5.9,20.5,11.8,20.5H34c5.9-0.1,8.4-10.2,10.9-20.1
	h-1.3C41.3,32.4,38.8,41.9,34,42z"/>
<g>
	<path d="M16.3,22c-1.3-5.7-2.7-11.1-4.4-15.1c-0.4-0.5-0.7-0.7-0.8-0.7c-0.1,0.1-0.3,0.2-0.6,0.6c1.8,3.9,3.2,9.7,4.6,15.5
		c2.6,10.8,5,21,10.4,21c0.3,0,0.6,0,0.8-0.1c-0.3-0.4-0.6-0.8-0.9-1.2C21,41.9,18.6,31.8,16.3,22z"/>
	<path d="M35.8,22.2c2.3-9.8,4.8-20,9.1-20V1c-5.4,0-7.8,10.2-10.4,21c-1,4.3-2.1,8.6-3.3,12.2c0.3,0.6,0.5,1.1,0.8,1.5
		C33.5,31.9,34.6,27.2,35.8,22.2z"/>
</g>
</svg>
