<?xml version="1.0" encoding="utf-8"?>
<!-- Generator: Adobe Illustrator 18.0.0, SVG Export Plug-In . SVG Version: 6.00 Build 0)  -->
<!DOCTYPE svg PUBLIC "-//W3C//DTD SVG 1.1//EN" "http://www.w3.org/Graphics/SVG/1.1/DTD/svg11.dtd">
<svg version="1.1" id="Layer_1" xmlns="http://www.w3.org/2000/svg" xmlns:xlink="http://www.w3.org/1999/xlink" x="0px" y="0px"
	 viewBox="0 0 45 44" enable-background="new 0 0 45 44" xml:space="preserve">
<path d="M19.8,28.9c-2.3,7.2-4.9,13-8.7,13c0,0,0,0-0.1,0c-4.7,0-7.2-9.4-9.6-18.8H0.1c2.6,10.4,5.2,20,10.9,20.1h0.1
	c4.3,0,7-5.3,9.4-12.2C20.2,30.3,20,29.6,19.8,28.9z"/>
<path d="M34,0.8C34,0.8,33.9,0.8,34,0.8c-4.4,0-7.2,5.6-9.4,12.2c0.2,0.7,0.4,1.4,0.6,2.1c2.2-6.8,4.9-13,8.7-13c0,0,0,0,0.1,0
	c4.9,0.1,7.3,9.5,9.7,18.9H45C42.4,11,39.9,0.9,34,0.8z"/>
<g>
	<path d="M34,41.8C34,41.8,33.9,41.8,34,41.8C33.9,41.8,34,41.8,34,41.8c-5.1,0-8.2-10.8-10.7-19.6l-0.1-0.3
		C20,11,17.1,0.8,11.1,0.8H11C5.3,0.9,2.7,10.5,0.1,20.9h1.3C3.8,11.5,6.3,2.1,11,2c0,0,0,0,0.1,0c5,0,8,10.3,10.9,20.2l0.1,0.3
		C24.8,32.1,28,43,33.9,43H34c5.9-0.1,8.4-10.1,10.9-20h-1.3C41.3,32.3,38.8,41.7,34,41.8z"/>
</g>
</svg>
