<?xml version="1.0" encoding="utf-8"?>
<!-- Generator: Adobe Illustrator 18.0.0, SVG Export Plug-In . SVG Version: 6.00 Build 0)  -->
<!DOCTYPE svg PUBLIC "-//W3C//DTD SVG 1.1//EN" "http://www.w3.org/Graphics/SVG/1.1/DTD/svg11.dtd">
<svg version="1.1" id="Layer_1" xmlns="http://www.w3.org/2000/svg" xmlns:xlink="http://www.w3.org/1999/xlink" x="0px" y="0px"
	 viewBox="0 0 45 44" enable-background="new 0 0 45 44" xml:space="preserve">
<line fill="none" stroke="#000000" stroke-width="1.5" stroke-miterlimit="10" x1="1.5" y1="38" x2="1.5" y2="44"/>
<line fill="none" stroke="#000000" stroke-width="1.5" stroke-miterlimit="10" x1="1.5" y1="28" x2="1.5" y2="34"/>
<g>
	<line fill="none" stroke="#000000" stroke-width="1.5" stroke-miterlimit="10" x1="43.5" y1="10" x2="43.5" y2="16"/>
	<line fill="none" stroke="#000000" stroke-width="1.5" stroke-miterlimit="10" x1="43.5" y1="0" x2="43.5" y2="6"/>
</g>
<line fill="none" stroke="#000000" stroke-width="1.5" stroke-miterlimit="10" x1="1.5" y1="0" x2="1.5" y2="6"/>
<line fill="none" stroke="#000000" stroke-width="1.5" stroke-miterlimit="10" x1="15.5" y1="0" x2="15.5" y2="6"/>
<line fill="none" stroke="#000000" stroke-width="1.5" stroke-miterlimit="10" x1="29.5" y1="0" x2="29.5" y2="6"/>
<g>
	<line fill="none" stroke="#000000" stroke-width="1.5" stroke-miterlimit="10" x1="15.5" y1="38" x2="15.5" y2="44"/>
	<line fill="none" stroke="#000000" stroke-width="1.5" stroke-miterlimit="10" x1="29.5" y1="38" x2="29.5" y2="44"/>
	<line fill="none" stroke="#000000" stroke-width="1.5" stroke-miterlimit="10" x1="43.5" y1="38" x2="43.5" y2="44"/>
</g>
<path fill="none" stroke="#000000" stroke-width="1.5" stroke-linejoin="round" stroke-miterlimit="10" d="M1.5,24c0,0,0-4,0-9
	S3.1,9.6,5,14s5.1,11.6,7,16s3.5,4.4,3.5,0s0-8,0-8s0-3.6,0-8s1.6-4.4,3.5,0s5.1,11.6,7,16s3.5,4.4,3.5,0s0-11.6,0-16s1.6-4.4,3.5,0
	c1.9,4.4,5.1,11.6,7,16s3.5,4,3.5-1s0-9,0-9"/>
</svg>
