<?xml version="1.0" encoding="utf-8"?>
<!-- Generator: Adobe Illustrator 18.0.0, SVG Export Plug-In . SVG Version: 6.00 Build 0)  -->
<!DOCTYPE svg PUBLIC "-//W3C//DTD SVG 1.1//EN" "http://www.w3.org/Graphics/SVG/1.1/DTD/svg11.dtd">
<svg version="1.1" id="Layer_1" xmlns="http://www.w3.org/2000/svg" xmlns:xlink="http://www.w3.org/1999/xlink" x="0px" y="0px"
	 viewBox="0 0 45 44" enable-background="new 0 0 45 44" xml:space="preserve">
<polygon fill="none" stroke="#000000" stroke-width="1.5" stroke-miterlimit="10" points="16.5,18.5 2.5,18.5 1.5,14.5 17.5,14.5 
	"/>
<polyline fill="none" stroke="#000000" stroke-width="1.5" stroke-miterlimit="10" points="17.5,18.5 17.5,30.5 1.5,30.5 1.5,18.5 
	"/>
<line fill="none" stroke="#000000" stroke-width="1.5" stroke-miterlimit="10" x1="17.5" y1="30.5" x2="16.5" y2="44"/>
<line fill="none" stroke="#000000" stroke-width="1.5" stroke-miterlimit="10" x1="2.5" y1="44" x2="1.5" y2="30.5"/>
<line fill="none" stroke="#000000" stroke-width="1.5" stroke-miterlimit="10" x1="1.5" y1="14" x2="1.5" y2="3"/>
<line fill="none" stroke="#000000" stroke-width="1.5" stroke-miterlimit="10" x1="17.5" y1="14" x2="17.5" y2="3"/>
<line fill="none" stroke="#000000" stroke-width="1.5" stroke-miterlimit="10" x1="17.5" y1="4.5" x2="1.5" y2="4.5"/>
<line fill="none" stroke="#000000" stroke-width="1.5" stroke-miterlimit="10" x1="13.5" y1="11" x2="13.5" y2="3"/>
<line fill="none" stroke="#000000" stroke-width="1.5" stroke-miterlimit="10" x1="9.5" y1="11" x2="9.5" y2="3"/>
<line fill="none" stroke="#000000" stroke-width="1.5" stroke-miterlimit="10" x1="5.5" y1="11" x2="5.5" y2="3"/>
<path fill="none" stroke="#000000" stroke-width="1.5" stroke-miterlimit="10" d="M3.5,3V2.5c0-0.5,1-1,2.2-1h7.6
	c1.2,0,2.2,0.5,2.2,1V3"/>
</svg>
