<?xml version="1.0" encoding="utf-8"?>
<!-- Generator: Adobe Illustrator 18.0.0, SVG Export Plug-In . SVG Version: 6.00 Build 0)  -->
<!DOCTYPE svg PUBLIC "-//W3C//DTD SVG 1.1//EN" "http://www.w3.org/Graphics/SVG/1.1/DTD/svg11.dtd">
<svg version="1.1" id="Layer_1" xmlns="http://www.w3.org/2000/svg" xmlns:xlink="http://www.w3.org/1999/xlink" x="0px" y="0px"
	 viewBox="0 0 45 44" enable-background="new 0 0 45 44" xml:space="preserve">
<polyline fill="none" stroke="#000000" stroke-width="1.5" stroke-miterlimit="10" points="17,42.5 1.5,42.5 1.5,1.5 43.5,1.5 
	43.5,42.5 28,42.5 "/>
<g>
	<g>
		<path fill="none" stroke="#000000" stroke-width="1.5" stroke-miterlimit="10" d="M28,37c6.1-2.3,10.5-8.1,10.5-15
			c0-8.8-7.2-16-16-16s-16,7.2-16,16c0,6.9,4.4,12.7,10.5,15"/>
		<path fill="none" stroke="#000000" stroke-width="1.5" stroke-miterlimit="10" d="M15.5,22c0-3.9,3.1-7,7-7s7,3.1,7,7"/>
	</g>
</g>
<path fill="none" stroke="#000000" stroke-width="1.5" stroke-miterlimit="10" d="M24.5,44V34l0,0l1.4-2.6l0,0
	c1-0.9,1.6-2.2,1.6-3.6v-1.2c0-2.7-2.2-4.9-4.9-4.9s-4.9,2.2-4.9,4.9v1.2c0,1.4,0.6,2.7,1.6,3.6l0,0l1.3,2.6v10"/>
<line fill="none" stroke="#000000" stroke-width="1.5" stroke-miterlimit="10" x1="16" y1="27.5" x2="29" y2="27.5"/>
</svg>
