<?xml version="1.0" encoding="utf-8"?>
<!-- Generator: Adobe Illustrator 18.0.0, SVG Export Plug-In . SVG Version: 6.00 Build 0)  -->
<!DOCTYPE svg PUBLIC "-//W3C//DTD SVG 1.1//EN" "http://www.w3.org/Graphics/SVG/1.1/DTD/svg11.dtd">
<svg version="1.1" id="Layer_1" xmlns="http://www.w3.org/2000/svg" xmlns:xlink="http://www.w3.org/1999/xlink" x="0px" y="0px"
	 viewBox="0 0 45 44" enable-background="new 0 0 45 44" xml:space="preserve">
<path fill="none" stroke="#000000" stroke-width="1.5" stroke-miterlimit="10" d="M8.4,29V6.5c0-2.8,2.2-5,5-5h8.1c2.8,0,5,2.2,5,5
	V29"/>
<g>
	<line fill="none" stroke="#000000" stroke-width="1.5" stroke-miterlimit="10" x1="25.5" y1="34" x2="25.5" y2="44"/>
</g>
<g>
	<line fill="none" stroke="#000000" stroke-width="1.5" stroke-miterlimit="10" x1="9.5" y1="44" x2="9.5" y2="34"/>
</g>
<path fill="none" stroke="#000000" stroke-width="1.5" stroke-miterlimit="10" d="M5.4,37.5"/>
<rect x="6.5" y="28.5" fill="none" stroke="#000000" stroke-width="1.5" stroke-miterlimit="10" width="22" height="6"/>
<polyline fill="none" stroke="#000000" stroke-width="1.5" stroke-miterlimit="10" points="32.5,41.5 32.5,20.5 17.5,24.8 
	17.5,28.1 "/>
<line fill="none" stroke="#000000" stroke-width="1.5" stroke-miterlimit="10" x1="17.5" y1="35" x2="17.5" y2="37.6"/>
<g>
	<polyline fill="none" stroke="#000000" stroke-width="1.5" stroke-miterlimit="10" points="2.5,41.5 2.5,20.5 17.5,24.8 	"/>
</g>
<line fill="none" stroke="#000000" stroke-width="1.5" stroke-miterlimit="10" x1="35" y1="31.5" x2="0" y2="31.5"/>
<g>
	<line fill="none" stroke="#000000" stroke-width="1.5" stroke-miterlimit="10" x1="2.5" y1="41.5" x2="17.5" y2="37.2"/>
	<line fill="none" stroke="#000000" stroke-width="1.5" stroke-miterlimit="10" x1="32.5" y1="41.5" x2="17.5" y2="37.2"/>
</g>
</svg>
