<?xml version="1.0" encoding="utf-8"?>
<!-- Generator: Adobe Illustrator 21.0.0, SVG Export Plug-In . SVG Version: 6.00 Build 0)  -->
<svg version="1.1" id="Layer_1" xmlns="http://www.w3.org/2000/svg" xmlns:xlink="http://www.w3.org/1999/xlink" x="0px" y="0px"
	 viewBox="0 0 45 44" style="enable-background:new 0 0 45 44;" xml:space="preserve">
<g>
	<polygon points="4.8,36 3.7,39 6.3,39 5.2,36 	"/>
	<path d="M3,25v1h2.5C5.8,26,6,25.8,6,25.5S5.8,25,5.5,25H3z"/>
	<path d="M3,27v2h3c0.6,0,1-0.4,1-1s-0.4-1-1-1H3z"/>
	<path d="M7,5c0-1.2-0.7-2-1.8-2H3v4h2.2C6.3,7,7,6.2,7,5z"/>
	<path d="M10,10V0H0v10h4v1H0v10h4v1H0v10h4v1H0v10h4v1h2v-1h4V33H6v-1h4V22H6v-1h4V11H6v-1H10z M7,41l-0.4-1H3.3L3,41H2l2.1-6h1.8
		L8,41H7z M7,25.5c0,0.2-0.1,0.5-0.2,0.7C7.5,26.5,8,27.2,8,28c0,1.1-0.9,2-2,2H2v-3v-1v-2h3.5C6.3,24,7,24.7,7,25.5z M8,14.8L7,15
		c-0.3-0.7-1.2-1-2-1c-1.2,0-2,0.9-2,2s0.8,2,2,2c0.8,0,1.7-0.3,2-1l1,0.2C7.5,18.3,6.3,19,5,19c-1.7,0-3-1.3-3-3s1.3-3,3-3
		C6.2,13,7.5,13.7,8,14.8z M2,2h3.3C6.9,2,8,3.2,8,5S6.9,8,5.4,8H2V2z"/>
</g>
</svg>
