<?xml version="1.0" encoding="utf-8"?>
<!-- Generator: Adobe Illustrator 21.0.0, SVG Export Plug-In . SVG Version: 6.00 Build 0)  -->
<svg version="1.1" id="Layer_1" xmlns="http://www.w3.org/2000/svg" xmlns:xlink="http://www.w3.org/1999/xlink" x="0px" y="0px"
	 viewBox="0 0 45 45" style="enable-background:new 0 0 45 45;" xml:space="preserve">
<g>
	<path d="M0,10h4v34h2V10h4V0H0V10z M4.1,2h1.8L8,8H7L6.6,7H3.3L3,8H2L4.1,2z"/>
	<polygon points="5.2,3 4.8,3 3.7,6 6.3,6 	"/>
	<path d="M11,10h4v34h2V10h4V0H11V10z M13,5V4V2h3.5C17.3,2,18,2.7,18,3.5c0,0.2-0.1,0.5-0.2,0.7C18.5,4.5,19,5.2,19,6
		c0,1.1-0.9,2-2,2h-4V5z"/>
	<path d="M17,3.5C17,3.2,16.8,3,16.5,3H14v1h2.5C16.8,4,17,3.8,17,3.5z"/>
	<path d="M18,6c0-0.6-0.4-1-1-1h-3v2h3C17.6,7,18,6.6,18,6z"/>
	<path d="M38.2,3H36v4h2.2C39.3,7,40,6.2,40,5S39.3,3,38.2,3z"/>
	<path d="M43,0H33v10h4v34h2V10h4V0z M38.4,8H35V2h3.3C39.9,2,41,3.2,41,5S39.9,8,38.4,8z"/>
	<path d="M22,10h4v34h2V10h4V0H22V10z M27,2c1.2,0,2.5,0.7,3,1.8L29,4c-0.3-0.7-1.2-1-2-1c-1.2,0-2,0.9-2,2s0.8,2,2,2
		c0.8,0,1.7-0.3,2-1l1,0.2C29.5,7.3,28.3,8,27,8c-1.7,0-3-1.3-3-3S25.3,2,27,2z"/>
</g>
</svg>
