<?xml version="1.0" encoding="utf-8"?>
<!-- Generator: Adobe Illustrator 21.0.0, SVG Export Plug-In . SVG Version: 6.00 Build 0)  -->
<svg version="1.1" id="Layer_1" xmlns="http://www.w3.org/2000/svg" xmlns:xlink="http://www.w3.org/1999/xlink" x="0px" y="0px"
	 viewBox="0 0 45 44" style="enable-background:new 0 0 45 44;" xml:space="preserve">
<g>
	<path d="M40,18v-1v-7h4V0H34v10h4v7v1v1v7h-4v10h4v8h2v-8h4V26h-4v-7V18z M36,8V2h3.3C40.9,2,42,3.2,42,5s-1.1,3-2.6,3H38H36z
		 M42,29.8L41,30c-0.3-0.7-1.2-1-2-1c-1.2,0-2,0.9-2,2s0.8,2,2,2c0.8,0,1.7-0.3,2-1l1,0.2c-0.5,1.1-1.7,1.8-3,1.8c-1.7,0-3-1.3-3-3
		s1.3-3,3-3C40.2,28,41.5,28.7,42,29.8z"/>
	<path d="M0,36h4v8h2v-8h4V26H0V36z M4.1,28h1.8L8,34H7l-0.4-1H3.3L3,34H2L4.1,28z"/>
	<polygon points="5.2,29 4.8,29 3.7,32 6.3,32 	"/>
	<path d="M17,36h4v8h2v-8h4V26H17V36z M19,31v-1v-2h3.5c0.8,0,1.5,0.7,1.5,1.5c0,0.2-0.1,0.5-0.2,0.7c0.7,0.3,1.2,1,1.2,1.8
		c0,1.1-0.9,2-2,2h-2h-2V31z"/>
	<path d="M23,29.5c0-0.3-0.2-0.5-0.5-0.5H20v1h2.5C22.8,30,23,29.8,23,29.5z"/>
	<path d="M24,32c0-0.6-0.4-1-1-1h-3v2h3C23.6,33,24,32.6,24,32z"/>
	<path d="M41,5c0-1.2-0.7-2-1.8-2H37v4h2.2C40.3,7,41,6.2,41,5z"/>
</g>
</svg>
