<?xml version="1.0" encoding="utf-8"?>
<!-- Generator: Adobe Illustrator 21.0.0, SVG Export Plug-In . SVG Version: 6.00 Build 0)  -->
<svg version="1.1" id="Layer_1" xmlns="http://www.w3.org/2000/svg" xmlns:xlink="http://www.w3.org/1999/xlink" x="0px" y="0px"
	 viewBox="0 0 45 44" style="enable-background:new 0 0 45 44;" xml:space="preserve">
<g>
	<polygon points="21.8,29 20.7,32 23.3,32 22.2,29 	"/>
	<path d="M6,3.5C6,3.2,5.8,3,5.5,3H3v1h2.5C5.8,4,6,3.8,6,3.5z"/>
	<path d="M7,6c0-0.6-0.4-1-1-1H3v2h3C6.6,7,7,6.6,7,6z"/>
	<path d="M39.2,3H37v4h2.2C40.3,7,41,6.2,41,5S40.3,3,39.2,3z"/>
	<path d="M44,0H34v10h4v7H23v-7h4V0H17v10h4v7H6v-7h4V0H0v10h4v7v2h2h15v7h-4v10h4v8h2v-8h4V26h-4v-7h15h2v-2v-7h4V0z M19,5
		c0-1.7,1.3-3,3-3c1.2,0,2.5,0.7,3,1.8L24,4c-0.3-0.7-1.2-1-2-1c-1.2,0-2,0.9-2,2s0.8,2,2,2c0.8,0,1.7-0.3,2-1l1,0.2
		C24.5,7.3,23.3,8,22,8C20.3,8,19,6.7,19,5z M2,8V5V4V2h3.5C6.3,2,7,2.7,7,3.5C7,3.7,6.9,4,6.8,4.2C7.5,4.5,8,5.2,8,6
		c0,1.1-0.9,2-2,2H4H2z M24,34l-0.4-1h-3.3L20,34h-1l2.1-6h1.8l2.1,6H24z M39.4,8H38h-2V2h3.3C40.9,2,42,3.2,42,5S40.9,8,39.4,8z"/>
</g>
</svg>
