<?xml version="1.0" encoding="utf-8"?>
<!-- Generator: Adobe Illustrator 21.0.0, SVG Export Plug-In . SVG Version: 6.00 Build 0)  -->
<svg version="1.1" id="Layer_1" xmlns="http://www.w3.org/2000/svg" xmlns:xlink="http://www.w3.org/1999/xlink" x="0px" y="0px"
	 viewBox="0 0 45 44" style="enable-background:new 0 0 45 44;" xml:space="preserve">
<g>
	<polygon points="21.8,35 20.7,38 23.3,38 22.2,35 	"/>
	<path d="M6,17.5C6,17.2,5.8,17,5.5,17H3v1h2.5C5.8,18,6,17.8,6,17.5z"/>
	<path d="M7,20c0-0.6-0.4-1-1-1H3v2h3C6.6,21,7,20.6,7,20z"/>
	<path d="M42,19c0-1.2-0.7-2-1.8-2H38v4h2.2C41.3,21,42,20.2,42,19z"/>
	<path d="M45,24V14H35v10h4v4H6v-4h4V14H6v-4h4V0H0v10h4v4H0v10h4v5h0v1h17v2h-4v10h4v2h2v-2h4V32h-4v-2h18v-2h0v-4H45z M2,5
		c0-1.7,1.3-3,3-3c1.2,0,2.5,0.7,3,1.8L7,4C6.7,3.3,5.8,3,5,3C3.8,3,3,3.9,3,5s0.8,2,2,2c0.8,0,1.7-0.3,2-1l1,0.2C7.5,7.3,6.3,8,5,8
		C3.3,8,2,6.7,2,5z M2,19v-1v-2h3.5C6.3,16,7,16.7,7,17.5c0,0.2-0.1,0.5-0.2,0.7C7.5,18.5,8,19.2,8,20c0,1.1-0.9,2-2,2H2V19z M24,40
		l-0.4-1h-3.3L20,40h-1l2.1-6h1.8l2.1,6H24z M37,16h3.3c1.6,0,2.7,1.2,2.7,3s-1.1,3-2.6,3H37V16z"/>
</g>
</svg>
