<?xml version="1.0" encoding="utf-8"?>
<!-- Generator: Adobe Illustrator 21.0.0, SVG Export Plug-In . SVG Version: 6.00 Build 0)  -->
<svg version="1.1" id="Layer_1" xmlns="http://www.w3.org/2000/svg" xmlns:xlink="http://www.w3.org/1999/xlink" x="0px" y="0px"
	 viewBox="0 0 45 45" style="enable-background:new 0 0 45 45;" xml:space="preserve">
<g>
	<path d="M23,18v-8h4V0H17v10h4v8v1v7h-4v10h4v8h2v-8h4V26h-4v-7V18z M19,8V2h3.3C23.9,2,25,3.2,25,5s-1.1,3-2.6,3H21H19z M25,29.8
		L24,30c-0.3-0.7-1.2-1-2-1c-1.2,0-2,0.9-2,2s0.8,2,2,2c0.8,0,1.7-0.3,2-1l1,0.2c-0.5,1.1-1.7,1.8-3,1.8c-1.7,0-3-1.3-3-3s1.3-3,3-3
		C23.2,28,24.5,28.7,25,29.8z"/>
	<polygon points="4.8,29 3.7,32 6.3,32 5.2,29 	"/>
	<path d="M0,10h4v16H0v10h4v8h2v-8h4V26H6V10h4V0H0V10z M7,34l-0.4-1H3.3L3,34H2l2.1-6h1.8L8,34H7z M2,5V4V2h3.5C6.3,2,7,2.7,7,3.5
		C7,3.7,6.9,4,6.8,4.2C7.5,4.5,8,5.2,8,6c0,1.1-0.9,2-2,2H4H2V5z"/>
	<path d="M6,3.5C6,3.2,5.8,3,5.5,3H3v1h2.5C5.8,4,6,3.8,6,3.5z"/>
	<path d="M7,6c0-0.6-0.4-1-1-1H3v2h3C6.6,7,7,6.6,7,6z"/>
	<path d="M24,5c0-1.2-0.7-2-1.8-2H20v4h2.2C23.3,7,24,6.2,24,5z"/>
</g>
</svg>
