<?xml version="1.0" encoding="utf-8"?>
<!-- Generator: Adobe Illustrator 18.0.0, SVG Export Plug-In . SVG Version: 6.00 Build 0)  -->
<!DOCTYPE svg PUBLIC "-//W3C//DTD SVG 1.1//EN" "http://www.w3.org/Graphics/SVG/1.1/DTD/svg11.dtd">
<svg version="1.1" id="Layer_1" xmlns="http://www.w3.org/2000/svg" xmlns:xlink="http://www.w3.org/1999/xlink" x="0px" y="0px"
	 viewBox="0 0 45 44" enable-background="new 0 0 45 44" xml:space="preserve">
<rect x="1.5" y="1.5" fill="none" stroke="#000000" stroke-width="1.5" stroke-miterlimit="10" width="42" height="41"/>
<g>
	<path d="M27.3,25.1c0,2.5-1.9,4.1-4.5,4.1H18V15h4.1c2.6,0,4.3,1.6,4.3,3.8c0,1.2-0.5,2.2-1.4,2.8C26.4,22.2,27.3,23.4,27.3,25.1z
		 M19.7,21H22c1.7,0,2.7-0.9,2.7-2.2s-0.9-2.2-2.7-2.2h-2.3V21z M22.7,27.6c1.7,0,2.9-1,2.9-2.5s-1.1-2.5-2.9-2.5h-3v5H22.7z"/>
</g>
</svg>
