<?xml version="1.0" encoding="utf-8"?>
<!-- Generator: Adobe Illustrator 21.0.0, SVG Export Plug-In . SVG Version: 6.00 Build 0)  -->
<svg version="1.1" id="Layer_1" xmlns="http://www.w3.org/2000/svg" xmlns:xlink="http://www.w3.org/1999/xlink" x="0px" y="0px"
	 viewBox="0 0 45 44" style="enable-background:new 0 0 45 44;" xml:space="preserve">
<g>
	<path d="M0,40h4v4h2v-4h4V30H0V40z M4.1,32h1.8L8,38H7l-0.4-1H3.3L3,38H2L4.1,32z"/>
	<polygon points="5.2,33 4.8,33 3.7,36 6.3,36 	"/>
	<path d="M38,33v1h2.5c0.3,0,0.5-0.2,0.5-0.5S40.8,33,40.5,33H38z"/>
	<path d="M38,35v2h3c0.6,0,1-0.4,1-1s-0.4-1-1-1H38z"/>
	<path d="M42,5c0-1.2-0.7-2-1.8-2H38v4h2.2C41.3,7,42,6.2,42,5z"/>
	<path d="M45,10V0H35v10h4v5h-4v10h4v5h-4v10h4v4h2v-4h4V30h-4v-5h4V15h-4v-5H45z M42,33.5c0,0.2-0.1,0.5-0.2,0.7
		c0.7,0.3,1.2,1,1.2,1.8c0,1.1-0.9,2-2,2h-4v-3v-1v-2h2h1.5C41.3,32,42,32.7,42,33.5z M43,18.8L42,19c-0.3-0.7-1.2-1-2-1
		c-1.2,0-2,0.9-2,2s0.8,2,2,2c0.8,0,1.7-0.3,2-1l1,0.2c-0.5,1.1-1.7,1.8-3,1.8c-1.7,0-3-1.3-3-3s1.3-3,3-3
		C41.2,17,42.5,17.7,43,18.8z M37,2h3.3C41.9,2,43,3.2,43,5s-1.1,3-2.6,3H37V2z"/>
</g>
</svg>
