<?xml version="1.0" encoding="utf-8"?>
<!-- Generator: Adobe Illustrator 21.0.0, SVG Export Plug-In . SVG Version: 6.00 Build 0)  -->
<svg version="1.1" id="Layer_1" xmlns="http://www.w3.org/2000/svg" xmlns:xlink="http://www.w3.org/1999/xlink" x="0px" y="0px"
	 viewBox="0 0 45 44" style="enable-background:new 0 0 45 44;" xml:space="preserve">
<g>
	<path d="M45,30h-4v-4h0v-2H23v-2h4V12h-4v-2h4V0H17v10h4v2h-4v10h4v2H4v1h0v5H0v10h4v4h2v-4h4V30H6v-4h15h2h16v4h-4v10h4v4h2v-4h4
		V30z M19,2h3.3C23.9,2,25,3.2,25,5s-1.1,3-2.6,3H19V2z M19,17c0-1.7,1.3-3,3-3c1.2,0,2.5,0.7,3,1.8L24,16c-0.3-0.7-1.2-1-2-1
		c-1.2,0-2,0.9-2,2s0.8,2,2,2c0.8,0,1.7-0.3,2-1l1,0.2c-0.5,1.1-1.7,1.8-3,1.8C20.3,20,19,18.7,19,17z M7,33.5
		c0,0.2-0.1,0.5-0.2,0.7C7.5,34.5,8,35.2,8,36c0,1.1-0.9,2-2,2H2v-3v-1v-2h3.5C6.3,32,7,32.7,7,33.5z M42,38l-0.4-1h-3.3L38,38h-1
		l2.1-6h1.8l2.1,6H42z"/>
	<polygon points="39.8,33 38.7,36 41.3,36 40.2,33 	"/>
	<path d="M3,33v1h2.5C5.8,34,6,33.8,6,33.5S5.8,33,5.5,33H3z"/>
	<path d="M3,35v2h3c0.6,0,1-0.4,1-1s-0.4-1-1-1H3z"/>
	<path d="M24,5c0-1.2-0.7-2-1.8-2H20v4h2.2C23.3,7,24,6.2,24,5z"/>
</g>
</svg>
