<?xml version="1.0" encoding="utf-8"?>
<!-- Generator: Adobe Illustrator 21.0.0, SVG Export Plug-In . SVG Version: 6.00 Build 0)  -->
<svg version="1.1" id="Layer_1" xmlns="http://www.w3.org/2000/svg" xmlns:xlink="http://www.w3.org/1999/xlink" x="0px" y="0px"
	 viewBox="0 0 45 44" style="enable-background:new 0 0 45 44;" xml:space="preserve">
<g>
	<polygon points="4.8,29 3.7,32 6.3,32 5.2,29 	"/>
	<path d="M20,29v1h2.5c0.3,0,0.5-0.2,0.5-0.5S22.8,29,22.5,29H20z"/>
	<path d="M20,31v2h3c0.6,0,1-0.4,1-1s-0.4-1-1-1H20z"/>
	<path d="M24,5c0-1.2-0.7-2-1.8-2H20v4h2.2C23.3,7,24,6.2,24,5z"/>
	<path d="M44,26h-4v-7v-2h-2H23v-7h4V0H17v10h4v7H6H4v2v7H0v10h4v8h2v-8h4V26H6v-7h15v7h-4v10h4v8h2v-8h4V26h-4v-7h15v7h-4v10h4v8h2
		v-8h4V26z M19,8V2h3.3C23.9,2,25,3.2,25,5s-1.1,3-2.6,3H21H19z M7,34l-0.4-1H3.3L3,34H2l2.1-6h1.8L8,34H7z M24,29.5
		c0,0.2-0.1,0.5-0.2,0.7c0.7,0.3,1.2,1,1.2,1.8c0,1.1-0.9,2-2,2h-2h-2v-3v-1v-2h3.5C23.3,28,24,28.7,24,29.5z M39,33
		c0.8,0,1.7-0.3,2-1l1,0.2c-0.5,1.1-1.7,1.8-3,1.8c-1.7,0-3-1.3-3-3s1.3-3,3-3c1.2,0,2.5,0.7,3,1.8L41,30c-0.3-0.7-1.2-1-2-1
		c-1.2,0-2,0.9-2,2S37.8,33,39,33z"/>
</g>
</svg>
