<?xml version="1.0" encoding="utf-8"?>
<!-- Generator: Adobe Illustrator 21.0.0, SVG Export Plug-In . SVG Version: 6.00 Build 0)  -->
<svg version="1.1" id="Layer_1" xmlns="http://www.w3.org/2000/svg" xmlns:xlink="http://www.w3.org/1999/xlink" x="0px" y="0px"
	 viewBox="0 0 45 44" style="enable-background:new 0 0 45 44;" xml:space="preserve">
<g>
	<path d="M24,5c0-1.2-0.7-2-1.8-2H20v4h2.2C23.3,7,24,6.2,24,5z"/>
	<path d="M41,16v-4H23v-0.1v-1.8V10h4V9V0H17v9v1h4v0.1v1.8V12H4v4H0v1v8v1h4v2v2h18v2h-4v1v8v1h4v2h2v-2h4v-1v-8v-1h-4v-2h17v-2v-2
		h4v-1v-8v-1H41z M19,2h3.3C23.9,2,25,3.2,25,5c0,1.8-1.1,3-2.6,3H19V2z M26,40h-1l-0.4-1h-3.3L21,40h-1l2.1-6h1.8L26,40z M8,22
		c0,1.1-0.9,2-2,2H2v-3v-1v-2h3.5C6.3,18,7,18.7,7,19.5c0,0.2-0.1,0.5-0.2,0.7C7.5,20.5,8,21.2,8,22z M40,23c0.8,0,1.7-0.3,2-1
		l1,0.2c-0.5,1.1-1.7,1.8-3,1.8c-1.7,0-3-1.3-3-3s1.3-3,3-3c1.2,0,2.5,0.7,3,1.8L42,20c-0.3-0.7-1.2-1-2-1c-1.2,0-2,0.9-2,2
		S38.8,23,40,23z M35,25v1h4v2H6v-2h4v-1v-8v-1H6v-2h33v2h-4v1V25z"/>
	<path d="M6,19.5C6,19.2,5.8,19,5.5,19H3v1h2.5C5.8,20,6,19.8,6,19.5z"/>
	<path d="M6,21H3v2h3c0.6,0,1-0.4,1-1C7,21.4,6.6,21,6,21z"/>
	<polygon points="24.3,38 23.2,35 22.8,35 21.7,38 	"/>
</g>
</svg>
