<?xml version="1.0" encoding="utf-8"?>
<!-- Generator: Adobe Illustrator 21.0.0, SVG Export Plug-In . SVG Version: 6.00 Build 0)  -->
<svg version="1.1" id="Layer_1" xmlns="http://www.w3.org/2000/svg" xmlns:xlink="http://www.w3.org/1999/xlink" x="0px" y="0px"
	 viewBox="0 0 45 44" style="enable-background:new 0 0 45 44;" xml:space="preserve">
<g>
	<polygon points="21.8,35 20.7,38 23.3,38 22.2,35 	"/>
	<path d="M20,22v1h2.5c0.3,0,0.5-0.2,0.5-0.5S22.8,22,22.5,22H20z"/>
	<path d="M20,24v2h3c0.6,0,1-0.4,1-1s-0.4-1-1-1H20z"/>
	<path d="M42,5c0-1.2-0.7-2-1.8-2H38v4h2.2C41.3,7,42,6.2,42,5z"/>
	<path d="M45,10V0H35v10h4v3H6v-3h4V0H0v10h4v4l0,0v1h17v4h-4v10h4v3h-4v10h4v2h2v-2h4V32h-4v-3h4V19h-4v-4h18v-2h0v-3H45z M2,5
		c0-1.7,1.3-3,3-3c1.2,0,2.5,0.7,3,1.8L7,4C6.7,3.3,5.8,3,5,3C3.8,3,3,3.9,3,5s0.8,2,2,2c0.8,0,1.7-0.3,2-1l1,0.2C7.5,7.3,6.3,8,5,8
		h0C3.3,8,2,6.7,2,5z M24,40l-0.4-1h-3.3L20,40h-1l2.1-6h1.8l2.1,6H24z M24,22.5c0,0.2-0.1,0.5-0.2,0.7c0.7,0.3,1.2,1,1.2,1.8
		c0,1.1-0.9,2-2,2h-2h-2v-3v-1v-2h3.5C23.3,21,24,21.7,24,22.5z M37,8V2h3.3C41.9,2,43,3.2,43,5c0,1.8-1.1,3-2.6,3H39v0H37z"/>
</g>
</svg>
