<?xml version="1.0" encoding="utf-8"?>
<svg version="1.1" id="Layer_1" xmlns="http://www.w3.org/2000/svg" xmlns:xlink="http://www.w3.org/1999/xlink" x="0px" y="0px"
	 width="45px" height="44px" style="enable-background:new 0 0 45 44;" xml:space="preserve">
<style type="text/css">
	.st0{fill:none;stroke:#000000;stroke-width:1.5;stroke-linecap:square;stroke-linejoin:round;stroke-miterlimit:10;}
	.st1{fill:none;stroke:#000000;stroke-width:1.5;stroke-linejoin:round;stroke-miterlimit:10;}
	.st2{fill:none;stroke:#000000;stroke-miterlimit:10;}
</style>
<circle class="st0" cx="12.5" cy="12.5" r="3"/>
<circle class="st0" cx="31.5" cy="12.5" r="3"/>
<circle class="st0" cx="22" cy="22" r="20.5"/>
<path class="st0" d="M22,39.5c2.9,0,5.7-0.7,8.1-2c0.9-0.5,1.3-1.5,0.9-2.5l-5.3-13.7c-1.3-3.4-6.2-3.4-7.5,0l-5.2,13.8
	c-0.4,0.9,0,2,0.9,2.5C16.4,38.8,19.1,39.5,22,39.5z"/>
<g>
	<line class="st0" x1="14" y1="36.5" x2="30" y2="36.5"/>
	<line class="st1" x1="14" y1="33.5" x2="30" y2="33.5"/>
	<line class="st0" x1="15.5" y1="30.5" x2="20" y2="30.5"/>
	<line class="st0" x1="16.5" y1="27.5" x2="20" y2="27.5"/>
	<line class="st1" x1="24" y1="30.5" x2="29" y2="30.5"/>
	<line class="st1" x1="24" y1="27.5" x2="28" y2="27.5"/>
	<line class="st1" x1="17.5" y1="24.5" x2="26.5" y2="24.5"/>
	<line class="st1" x1="18.5" y1="21.5" x2="25.5" y2="21.5"/>
</g>
<g>
	<circle class="st2" cx="22" cy="29" r="2.5"/>
	<circle class="st0" cx="22" cy="29" r="2.5"/>
</g>
</svg>
