<?xml version="1.0" encoding="utf-8"?>
<!-- Generator: Adobe Illustrator 18.0.0, SVG Export Plug-In . SVG Version: 6.00 Build 0)  -->
<!DOCTYPE svg PUBLIC "-//W3C//DTD SVG 1.1//EN" "http://www.w3.org/Graphics/SVG/1.1/DTD/svg11.dtd">
<svg version="1.1" id="Layer_1" xmlns="http://www.w3.org/2000/svg" xmlns:xlink="http://www.w3.org/1999/xlink" x="0px" y="0px"
	 viewBox="0 0 45 44" enable-background="new 0 0 45 44" xml:space="preserve">
<path fill="none" stroke="#000000" stroke-width="1.5" stroke-miterlimit="10" d="M14.8,4.5l1.5-0.6c2.3-0.8,4.4-1.3,6.2-1.4
	c0.8-0.1,1.7-0.1,2.5,0c1.1,0.1,2.2,0.4,3.2,0.9c0.9,0.4,1.7,0.9,2.4,1.6c1.1,1.1,1.8,2.4,2,3.8c0.1,0.3,0.1,0.6,0.1,0.8
	c-0.4,14-9.4,31.1-14.2,33l0,0c-2.2,0.8-5.1-0.8-7.7-4.1c-4.1-5.2-8.6-10.1-9.1-21C1.3,13.5,7.4,7.6,14.8,4.5z"/>
<path fill="none" stroke="#000000" stroke-width="1.5" stroke-miterlimit="10" d="M10.7,39c-3.2-4-5.9-10.4-6-18
	C4.7,16.9,10.6,11,18,7.8l1.5-0.6c4-1.4,9-2.4,12-0.9"/>
</svg>
