<?xml version="1.0" encoding="utf-8"?>
<!-- Generator: Adobe Illustrator 18.0.0, SVG Export Plug-In . SVG Version: 6.00 Build 0)  -->
<!DOCTYPE svg PUBLIC "-//W3C//DTD SVG 1.1//EN" "http://www.w3.org/Graphics/SVG/1.1/DTD/svg11.dtd">
<svg version="1.1" id="Layer_1" xmlns="http://www.w3.org/2000/svg" xmlns:xlink="http://www.w3.org/1999/xlink" x="0px" y="0px"
	 viewBox="0 0 45 44" enable-background="new 0 0 45 44" xml:space="preserve">
<g>
	<path fill="none" stroke="#000000" stroke-width="1.5" stroke-miterlimit="10" d="M1.5,33v4.8v-0.1l0,0.1c0,1.1,0.5,2.2,1.6,3.1
		c2.5,1.9,6.9,2.1,9.9,0.4c1.6-0.9,2.4-2.2,2.5-3.5v0V33"/>
</g>
<path fill="none" stroke="#000000" stroke-width="1.5" stroke-miterlimit="10" d="M8.5,21"/>
<path fill="none" stroke="#000000" stroke-width="1.5" stroke-miterlimit="10" d="M8.5,21"/>
<path fill="none" stroke="#000000" stroke-width="1.5" stroke-miterlimit="10" d="M8.5,21"/>
<path fill="none" stroke="#000000" stroke-width="1.5" stroke-miterlimit="10" d="M8.5,21"/>
<path fill="none" stroke="#000000" stroke-width="1.5" stroke-miterlimit="10" d="M2.5,16.6c0,0,0,13.1,0,13.1
	c-1.5,1.7-1.3,3.9,0.6,5.4c2.5,1.9,6.9,2.1,9.9,0.4c2.7-1.5,3.2-4.1,1.5-6c0,0,0-13,0-13"/>
<g>
	<path fill="none" stroke="#000000" stroke-width="1.5" stroke-linejoin="round" stroke-miterlimit="10" d="M14.5,25.7L42.7,5
		C42.9,4.8,43,4.5,43,4c0-1.1-0.7-2.4-1.6-3c-0.4-0.2-0.7-0.3-1-0.2l-25.9,19"/>
</g>
<path fill="none" stroke="#000000" stroke-width="1.5" stroke-linejoin="round" stroke-miterlimit="10" d="M13.1,13.9
	c-2.1-1.7-5.9-1.8-8.5-0.4s-2.9,4-0.7,5.6c2.1,1.7,5.9,1.8,8.5,0.4S15.2,15.6,13.1,13.9z"/>
<path fill="none" stroke="#000000" stroke-width="1.5" stroke-miterlimit="10" d="M6.7,29.7c0.2,0.1,0.4,0.1,0.5,0.1
	c0,0,0.1-0.1,0.2-0.2c0.1-0.1,0.1-0.2,0.1-0.4v0c0-0.5-0.3-1.2-0.8-1.5c-0.2-0.1-0.4-0.1-0.5-0.1c0,0-0.1,0.1-0.2,0.2
	c-0.1,0.1-0.1,0.2-0.1,0.4C5.9,28.8,6.2,29.4,6.7,29.7"/>
<g>
	<path fill="none" stroke="#000000" stroke-width="1.5" stroke-linejoin="round" stroke-miterlimit="10" d="M28,0
		c0.6,0.2,2.4,0.5,2.9,0.7C31.5,1,32,1.3,32.5,1.7"/>
	<path fill="none" stroke="#000000" stroke-width="1.5" stroke-linejoin="round" stroke-miterlimit="10" d="M25.1,7.1
		c-0.6-0.8-1.5-1.6-2.6-2.3c-3.4-2.2-8.2-3.3-13-3.2l-0.1,0l-0.1,0C6.1,1.6,2.9,2.1,0,3.2"/>
	<path fill="none" stroke="#000000" stroke-width="1.5" stroke-linejoin="round" stroke-miterlimit="10" d="M0,10.3
		C0.4,10,0.8,9.7,1.3,9.4c2.1-1.2,4.6-1.8,7.1-1.9l0.1,0l0.1,0c3.1,0,6.3,0.8,8.5,2.6c0.7,0.5,1.2,1.1,1.6,1.7"/>
	<path fill="none" stroke="#000000" stroke-width="1.5" stroke-linejoin="round" stroke-miterlimit="10" d="M28.4,44
		c0.7-1.1,1.1-2.3,1.1-3.5V19.6"/>
	<path fill="none" stroke="#000000" stroke-width="1.5" stroke-linejoin="round" stroke-miterlimit="10" d="M21.5,25.5v13.2
		c0,1.9-0.9,3.7-2.6,5.3"/>
	<path fill="none" stroke="#000000" stroke-width="1.5" stroke-linejoin="round" stroke-miterlimit="10" d="M36.9,44
		c0.4-0.8,0.6-1.6,0.6-2.4V13.8"/>
</g>
</svg>
