<?xml version="1.0" encoding="utf-8"?>
<!-- Generator: Adobe Illustrator 21.0.0, SVG Export Plug-In . SVG Version: 6.00 Build 0)  -->
<svg version="1.1" id="Layer_1" xmlns="http://www.w3.org/2000/svg" xmlns:xlink="http://www.w3.org/1999/xlink" x="0px" y="0px"
	 viewBox="0 0 45 44" style="enable-background:new 0 0 45 44;" xml:space="preserve">
<style type="text/css">
	.st0{fill:none;stroke:#000000;stroke-width:1.5;stroke-miterlimit:10;}
</style>
<path class="st0" d="M29.5,28.5c0,7.7-6.3,14-14,14l0,0c-7.7,0-14-6.3-14-14v-13c0-7.7,6.3-14,14-14l0,0c7.7,0,14,6.3,14,14V28.5z"
	/>
<line class="st0" x1="43.5" y1="20" x2="43.5" y2="23"/>
<line class="st0" x1="15.5" y1="21" x2="15.5" y2="24"/>
<g>
	<g>
		<line class="st0" x1="43.5" y1="26" x2="43.5" y2="29"/>
		<line class="st0" x1="15.5" y1="27" x2="15.5" y2="30"/>
	</g>
	<line class="st0" x1="31" y1="42.5" x2="28" y2="42.5"/>
	<line class="st0" x1="40.5" y1="37.3" x2="38.4" y2="39.5"/>
	<line class="st0" x1="20.7" y1="39.5" x2="18.6" y2="37.3"/>
	<line class="st0" x1="17.2" y1="35.2" x2="16" y2="32.5"/>
	<line class="st0" x1="36.3" y1="40.9" x2="33.5" y2="42"/>
	<line class="st0" x1="25.6" y1="42" x2="22.8" y2="40.9"/>
	<line class="st0" x1="43" y1="32.5" x2="41.9" y2="35.2"/>
</g>
<g>
	<g>
		<line class="st0" x1="15.5" y1="18" x2="15.5" y2="15"/>
		<line class="st0" x1="43.5" y1="17" x2="43.5" y2="14"/>
	</g>
	<line class="st0" x1="28" y1="1.5" x2="31" y2="1.5"/>
	<line class="st0" x1="18.6" y1="6.7" x2="20.7" y2="4.5"/>
	<line class="st0" x1="38.4" y1="4.5" x2="40.5" y2="6.7"/>
	<line class="st0" x1="41.9" y1="8.8" x2="43" y2="11.5"/>
	<line class="st0" x1="22.8" y1="3.1" x2="25.6" y2="2"/>
	<line class="st0" x1="33.5" y1="2" x2="36.3" y2="3.1"/>
	<line class="st0" x1="16" y1="11.5" x2="17.2" y2="8.8"/>
</g>
</svg>
