<?xml version="1.0" encoding="utf-8"?>
<!-- Generator: Adobe Illustrator 21.0.0, SVG Export Plug-In . SVG Version: 6.00 Build 0)  -->
<svg version="1.1" id="Layer_1" xmlns="http://www.w3.org/2000/svg" xmlns:xlink="http://www.w3.org/1999/xlink" x="0px" y="0px"
	 viewBox="0 0 45 44" style="enable-background:new 0 0 45 44;" xml:space="preserve">
<style type="text/css">
	.st0{fill:none;stroke:#000000;stroke-width:1.5;stroke-miterlimit:10;}
</style>
<path class="st0" d="M15.5,28.5c0,7.7,6.3,14,14,14l0,0c7.7,0,14-6.3,14-14v-13c0-7.7-6.3-14-14-14l0,0c-7.7,0-14,6.3-14,14V28.5z"
	/>
<line class="st0" x1="1.5" y1="20" x2="1.5" y2="23"/>
<line class="st0" x1="29.5" y1="21" x2="29.5" y2="24"/>
<g>
	<g>
		<line class="st0" x1="1.5" y1="26" x2="1.5" y2="29"/>
		<line class="st0" x1="29.5" y1="27" x2="29.5" y2="30"/>
	</g>
	<line class="st0" x1="14" y1="42.5" x2="17" y2="42.5"/>
	<line class="st0" x1="4.5" y1="37.3" x2="6.7" y2="39.5"/>
	<line class="st0" x1="24.3" y1="39.5" x2="26.5" y2="37.3"/>
	<line class="st0" x1="27.9" y1="35.2" x2="29" y2="32.5"/>
	<line class="st0" x1="8.8" y1="40.9" x2="11.5" y2="42"/>
	<line class="st0" x1="19.5" y1="42" x2="22.2" y2="40.9"/>
	<line class="st0" x1="2" y1="32.5" x2="3.1" y2="35.2"/>
</g>
<g>
	<g>
		<line class="st0" x1="29.5" y1="18" x2="29.5" y2="15"/>
		<line class="st0" x1="1.5" y1="17" x2="1.5" y2="14"/>
	</g>
	<line class="st0" x1="17" y1="1.5" x2="14" y2="1.5"/>
	<line class="st0" x1="26.5" y1="6.7" x2="24.3" y2="4.5"/>
	<line class="st0" x1="6.7" y1="4.5" x2="4.5" y2="6.7"/>
	<line class="st0" x1="3.1" y1="8.8" x2="2" y2="11.5"/>
	<line class="st0" x1="22.2" y1="3.1" x2="19.5" y2="2"/>
	<line class="st0" x1="11.5" y1="2" x2="8.8" y2="3.1"/>
	<line class="st0" x1="29" y1="11.5" x2="27.9" y2="8.8"/>
</g>
</svg>
