<?xml version="1.0" encoding="utf-8"?>
<!-- Generator: Adobe Illustrator 21.0.0, SVG Export Plug-In . SVG Version: 6.00 Build 0)  -->
<svg version="1.1" id="Layer_1" xmlns="http://www.w3.org/2000/svg" xmlns:xlink="http://www.w3.org/1999/xlink" x="0px" y="0px"
	 viewBox="0 0 45 44" style="enable-background:new 0 0 45 44;" xml:space="preserve">
<style type="text/css">
	.st0{fill:none;stroke:#000000;stroke-width:1.5;stroke-miterlimit:10;}
</style>
<path class="st0" d="M15.5,28.5c0,7.7,6.3,14,14,14l0,0c7.7,0,14-6.3,14-14v-13c0-7.7-6.3-14-14-14l0,0c-7.7,0-14,6.3-14,14V28.5z"
	/>
<path class="st0" d="M1.5,28.5c0,7.7,6.3,14,14,14l0,0c7.7,0,14-6.3,14-14v-13c0-7.7-6.3-14-14-14l0,0c-7.7,0-14,6.3-14,14V28.5z"/>
</svg>
