<?xml version="1.0" encoding="utf-8"?>
<!-- Generator: Adobe Illustrator 21.0.0, SVG Export Plug-In . SVG Version: 6.00 Build 0)  -->
<svg version="1.1" id="Layer_1" xmlns="http://www.w3.org/2000/svg" xmlns:xlink="http://www.w3.org/1999/xlink" x="0px" y="0px"
	 viewBox="0 0 45 44" style="enable-background:new 0 0 45 44;" xml:space="preserve">
<style type="text/css">
	.st0{fill:none;stroke:#000000;stroke-width:1.5;stroke-linecap:round;stroke-miterlimit:10;}
	.st1{fill:none;stroke:#000000;stroke-width:1.5;stroke-miterlimit:10;}
</style>
<polyline class="st0" points="33.5,24.5 29.5,28.5 25.5,24.5 "/>
<polyline class="st0" points="11.5,19.5 15.5,15.5 19.5,19.5 "/>
<path class="st1" d="M15.5,42.5L15.5,42.5c-7.7,0-14-6.3-14-14v-13c0-7.7,6.3-14,14-14l0,0c7.7,0,14,6.3,14,14v13"/>
<path class="st1" d="M29.5,1.5L29.5,1.5c7.7,0,14,6.3,14,14v13c0,7.7-6.3,14-14,14l0,0c-7.7,0-14-6.3-14-14v-13"/>
</svg>
