<?xml version="1.0" encoding="utf-8"?>
<!-- Generator: Adobe Illustrator 21.0.0, SVG Export Plug-In . SVG Version: 6.00 Build 0)  -->
<svg version="1.1" id="Layer_1" xmlns="http://www.w3.org/2000/svg" xmlns:xlink="http://www.w3.org/1999/xlink" x="0px" y="0px"
	 viewBox="0 0 45 44" style="enable-background:new 0 0 45 44;" xml:space="preserve">
<style type="text/css">
	.st0{fill:none;stroke:#000000;stroke-width:1.5;stroke-miterlimit:10;}
</style>
<g>
	<polyline class="st0" points="15.5,5 15.5,1.5 1.5,1.5 1.5,15.5 5,15.5 	"/>
	<g>
		<polyline class="st0" points="19.5,9 19.5,5.5 5.5,5.5 5.5,19.5 9,19.5 		"/>
		<polyline class="st0" points="23.5,13 23.5,9.5 9.5,9.5 9.5,23.5 13,23.5 		"/>
	</g>
	<g>
		<polyline class="st0" points="27.5,17 27.5,13.5 13.5,13.5 13.5,27.5 17,27.5 		"/>
		<g>
			<polyline class="st0" points="31.5,21 31.5,17.5 17.5,17.5 17.5,31.5 21,31.5 			"/>
			<polyline class="st0" points="35.5,25 35.5,21.5 21.5,21.5 21.5,35.5 25,35.5 			"/>
		</g>
	</g>
	<rect x="25.5" y="25.5" class="st0" width="14" height="14"/>
</g>
</svg>
