<?xml version="1.0" encoding="utf-8"?>
<!-- Generator: Adobe Illustrator 18.0.0, SVG Export Plug-In . SVG Version: 6.00 Build 0)  -->
<!DOCTYPE svg PUBLIC "-//W3C//DTD SVG 1.1//EN" "http://www.w3.org/Graphics/SVG/1.1/DTD/svg11.dtd">
<svg version="1.1" id="Layer_1" xmlns="http://www.w3.org/2000/svg" xmlns:xlink="http://www.w3.org/1999/xlink" x="0px" y="0px"
	 viewBox="158 158 45 45" enable-background="new 158 158 45 45" xml:space="preserve">
<path fill="none" stroke="#000000" stroke-width="1.5" stroke-linecap="square" stroke-linejoin="round" stroke-miterlimit="10" d="
	M159,180.4c0.3-4.8,0.5-9.5,0.9-14.3c0.1-2.1,0.3-4.2,0.7-6.3c0.2-1.3,0.6-0.9,0.9,0.1c0.3,0.9,0.4,2,0.6,3c0.1,0.5,0.7,4.4,1.6,3.3
	c0.6-0.7,1.1-2.1,1.9-0.6c0.4,0.9,0.8,3.4,1.8,3.8c0.8,0.3,1.4-0.9,2.1,0.1c0.7,0.9,0.9,2.6,1.8,3.3c0.9,0.6,1.6,0,2.4,0.9
	c0.7,0.9,0.9,2.2,1.8,2.9c0.8,0.6,1.6,0.1,2.4,1.1c0.7,0.8,0.9,2.1,1.8,2.7c0.8,0.6,1.6,0.1,2.3,1.1c0.5,0.8,0.9,2.2,1.8,2.7
	c1,0.6,1.7,0,2.4,1.1c0.5,0.8,0.9,2.3,1.8,2.8c1.2,0.6,1.6-0.3,2.4,1.2c0.4,0.8,0.8,2.7,1.9,2.8c1.1,0.1,1.2-1,2,0.4
	c0.6,0.9,0.7,3.4,1.8,3.8c0.7,0.3,1.2-2.1,1.9-1.5c1.1,1,1.1,3.9,1.4,5.3c0.1,0.4,0.3,2.2,0.8,2.1c0.4-0.1,0.6-2.6,0.6-3
	c0.7-6.2,0.9-12.4,1.2-18.6"/>
</svg>
