<?xml version="1.0" encoding="utf-8"?>
<!-- Generator: Adobe Illustrator 21.0.0, SVG Export Plug-In . SVG Version: 6.00 Build 0)  -->
<svg version="1.1" id="Layer_1" xmlns="http://www.w3.org/2000/svg" xmlns:xlink="http://www.w3.org/1999/xlink" x="0px" y="0px"
	 viewBox="0 0 45 44" style="enable-background:new 0 0 45 44;" xml:space="preserve">
<style type="text/css">
	.st0{fill:none;stroke:#000000;stroke-width:1.5;stroke-miterlimit:10;}
</style>
<polyline class="st0" points="39.4,15.5 39.4,7.5 5.4,7.5 5.4,15.5 "/>
<rect x="1.5" y="17.5" class="st0" width="42" height="25"/>
<g>
	<line class="st0" x1="10.5" y1="28" x2="10.5" y2="36"/>
	<line class="st0" x1="10.5" y1="24" x2="10.5" y2="24.9"/>
	<line class="st0" x1="22.5" y1="34" x2="22.5" y2="36"/>
	<line class="st0" x1="22.5" y1="24" x2="22.5" y2="31"/>
	<line class="st0" x1="34.5" y1="30.9" x2="34.5" y2="36"/>
	<line class="st0" x1="34.5" y1="24" x2="34.5" y2="28"/>
	<line class="st0" x1="20" y1="32.5" x2="25" y2="32.5"/>
	<line class="st0" x1="32" y1="29.5" x2="37" y2="29.5"/>
	<line class="st0" x1="8" y1="26.5" x2="13" y2="26.5"/>
</g>
<g>
	<polyline class="st0" points="22.4,5.5 22.4,1.5 37.4,1.5 37.4,5.5 	"/>
	<polyline class="st0" points="20.5,1.5 7.5,1.5 7.5,5.5 	"/>
</g>
</svg>
