<?xml version="1.0" encoding="utf-8"?>
<!-- Generator: Adobe Illustrator 18.0.0, SVG Export Plug-In . SVG Version: 6.00 Build 0)  -->
<!DOCTYPE svg PUBLIC "-//W3C//DTD SVG 1.1//EN" "http://www.w3.org/Graphics/SVG/1.1/DTD/svg11.dtd">
<svg version="1.1" id="Layer_1" xmlns="http://www.w3.org/2000/svg" xmlns:xlink="http://www.w3.org/1999/xlink" x="0px" y="0px"
	 viewBox="158 158 45 45" enable-background="new 158 158 45 45" xml:space="preserve">
<path fill="none" stroke="#000000" stroke-width="1.5" stroke-linecap="square" stroke-linejoin="round" stroke-miterlimit="10" d="
	M159,180.4c0.3-3.9,0.7-7.7,1.1-11.6c0.2-2.1,0.5-4.3,0.8-6.4c0.1-0.5,0.8-4.7,1.7-3.1c0.9,1.6,1.4,8.9,3.7,9c0.7,0.1,1.2-0.9,1.9-1
	c1-0.1,1.6,1.3,1.9,2.1c0.6,1.2,1,2.6,1.8,3.7c0.8,1.1,1.2,0.8,2.4,0.9c2.2,0.3,2.8,3.2,3.8,4.8c0.5,0.8,1,1.4,1.9,1.6
	c1.1,0.3,1.6,0,2.4,0.9c1.3,1.4,1.7,4.6,3.6,5.4c0.9,0.4,1.9-0.3,2.7,0.4c0.9,0.8,1.3,2.1,1.8,3.1c0.4,1,0.9,2.4,1.8,3
	c0.8,0.5,1.3-0.4,1.9-0.6c2.5-0.9,3.2,6.1,3.7,7.6c0.7,2,1.3,1.8,1.8-0.2c0.5-2,0.7-4,0.9-6.1c0.5-4.5,0.9-9.1,1.3-13.6"/>
</svg>
