<?xml version="1.0" encoding="utf-8"?>
<!-- Generator: Adobe Illustrator 21.0.0, SVG Export Plug-In . SVG Version: 6.00 Build 0)  -->
<svg version="1.1" id="Layer_1" xmlns="http://www.w3.org/2000/svg" xmlns:xlink="http://www.w3.org/1999/xlink" x="0px" y="0px"
	 viewBox="0 0 45 44" style="enable-background:new 0 0 45 44;" xml:space="preserve">
<style type="text/css">
	.st0{fill:none;stroke:#000000;stroke-width:1.5;stroke-miterlimit:10;}
</style>
<g>
	<rect x="3.5" y="-1.5" transform="matrix(1.364248e-11 -1 1 1.364248e-11 3 14)" class="st0" width="10" height="14"/>
	<rect x="3.5" y="21.5" transform="matrix(1.364248e-11 -1 1 1.364248e-11 -20 37)" class="st0" width="10" height="14"/>
	<rect x="31.5" y="31.5" transform="matrix(-1.364260e-11 1 -1 -1.364260e-11 75 2)" class="st0" width="10" height="14"/>
	<rect x="31.5" y="8.5" transform="matrix(-1.364260e-11 1 -1 -1.364260e-11 52 -21)" class="st0" width="10" height="14"/>
	<line class="st0" x1="22.5" y1="0" x2="22.5" y2="44"/>
	<g>
		<line class="st0" x1="0" y1="16.5" x2="2" y2="16.5"/>
		<line class="st0" x1="3" y1="16.5" x2="7" y2="16.5"/>
		<line class="st0" x1="8" y1="16.5" x2="11" y2="16.5"/>
		<line class="st0" x1="12" y1="16.5" x2="17" y2="16.5"/>
		<line class="st0" x1="2" y1="13.5" x2="5" y2="13.5"/>
		<line class="st0" x1="13" y1="13.5" x2="15" y2="13.5"/>
		<line class="st0" x1="6" y1="13.5" x2="12" y2="13.5"/>
		<line class="st0" x1="5" y1="19.5" x2="8" y2="19.5"/>
		<line class="st0" x1="11" y1="19.5" x2="12" y2="19.5"/>
		<line class="st0" x1="9" y1="19.5" x2="10" y2="19.5"/>
	</g>
	<g>
		<line class="st0" x1="0" y1="39.5" x2="4" y2="39.5"/>
		<line class="st0" x1="8" y1="39.5" x2="12.9" y2="39.5"/>
		<line class="st0" x1="5" y1="39.5" x2="7" y2="39.5"/>
		<line class="st0" x1="14" y1="39.5" x2="17" y2="39.5"/>
		<line class="st0" x1="3" y1="36.5" x2="5" y2="36.5"/>
		<line class="st0" x1="6" y1="36.5" x2="10" y2="36.5"/>
		<line class="st0" x1="11" y1="36.5" x2="14" y2="36.5"/>
		<line class="st0" x1="5" y1="42.5" x2="7" y2="42.5"/>
		<line class="st0" x1="8" y1="42.5" x2="10" y2="42.5"/>
		<line class="st0" x1="11" y1="42.5" x2="12" y2="42.5"/>
	</g>
	<g>
		<g>
			<line class="st0" x1="45" y1="27.5" x2="42" y2="27.5"/>
			<line class="st0" x1="41" y1="27.5" x2="39" y2="27.5"/>
			<line class="st0" x1="38" y1="27.5" x2="32" y2="27.5"/>
			<line class="st0" x1="31" y1="27.5" x2="28" y2="27.5"/>
			<line class="st0" x1="43" y1="30.5" x2="37" y2="30.5"/>
			<line class="st0" x1="33" y1="30.5" x2="30" y2="30.5"/>
			<line class="st0" x1="36" y1="30.5" x2="34" y2="30.5"/>
			<line class="st0" x1="40" y1="24.5" x2="39" y2="24.5"/>
			<line class="st0" x1="34" y1="24.5" x2="33" y2="24.5"/>
			<line class="st0" x1="38" y1="24.5" x2="35" y2="24.5"/>
		</g>
		<g>
			<line class="st0" x1="42" y1="4.5" x2="39" y2="4.5"/>
			<line class="st0" x1="45" y1="4.5" x2="43" y2="4.5"/>
			<line class="st0" x1="34" y1="4.5" x2="30.1" y2="4.5"/>
			<line class="st0" x1="38" y1="4.5" x2="35" y2="4.5"/>
			<line class="st0" x1="29" y1="4.5" x2="28" y2="4.5"/>
			<line class="st0" x1="42" y1="7.5" x2="41" y2="7.5"/>
			<line class="st0" x1="40" y1="7.5" x2="34" y2="7.5"/>
			<line class="st0" x1="33" y1="7.5" x2="31" y2="7.5"/>
			<line class="st0" x1="40" y1="1.5" x2="38" y2="1.5"/>
			<line class="st0" x1="37" y1="1.5" x2="36" y2="1.5"/>
			<line class="st0" x1="35" y1="1.5" x2="33" y2="1.5"/>
		</g>
	</g>
</g>
</svg>
