<?xml version="1.0" encoding="utf-8"?>
<!-- Generator: Adobe Illustrator 18.0.0, SVG Export Plug-In . SVG Version: 6.00 Build 0)  -->
<!DOCTYPE svg PUBLIC "-//W3C//DTD SVG 1.1//EN" "http://www.w3.org/Graphics/SVG/1.1/DTD/svg11.dtd">
<svg version="1.1" id="Layer_1" xmlns="http://www.w3.org/2000/svg" xmlns:xlink="http://www.w3.org/1999/xlink" x="0px" y="0px"
	 viewBox="158 158 45 45" enable-background="new 158 158 45 45" xml:space="preserve">
<polyline fill="none" stroke="#000000" stroke-width="1.5" stroke-miterlimit="10" points="203,180.5 200.5,180.5 200.5,187.5 
	200.5,187.5 197.5,187.5 197.5,195.5 195.5,195.5 195.5,201.5 188.5,201.5 188.5,195.5 186.5,195.5 186.5,189.5 183.5,189.5 
	183.5,183.5 181.5,183.5 181.5,180.5 181.5,180.5 181.5,177.5 178.5,177.5 178.5,171.5 175.5,171.5 175.5,166.5 173.5,166.5 
	173.5,159.5 166.5,159.5 166.5,165.5 164.5,165.5 164.5,173.5 161.5,173.5 161.5,173.5 161.5,180.5 158,180.5 "/>
</svg>
