<?xml version="1.0" encoding="utf-8"?>
<!-- Generator: Adobe Illustrator 18.0.0, SVG Export Plug-In . SVG Version: 6.00 Build 0)  -->
<!DOCTYPE svg PUBLIC "-//W3C//DTD SVG 1.1//EN" "http://www.w3.org/Graphics/SVG/1.1/DTD/svg11.dtd">
<svg version="1.1" id="Layer_1" xmlns="http://www.w3.org/2000/svg" xmlns:xlink="http://www.w3.org/1999/xlink" x="0px" y="0px"
	 viewBox="158 158 45 45" enable-background="new 158 158 45 45" xml:space="preserve">
<path fill="none" stroke="#000000" stroke-width="1.5" stroke-linecap="square" stroke-linejoin="round" stroke-miterlimit="10" d="
	M159,180.5c0.1-1.9,0.2-3.8,0.2-5.7c0.1-1.7,0.2-3.4,0.2-5.2c0.1-1.9,0.2-3.8,0.3-5.7c0.1-0.8,0.1-1.7,0.2-2.5
	c0.1-0.5,0.1-1,0.2-1.4c0-0.2,0.1-0.4,0.1-0.7c0-0.1,0-0.2,0.1-0.3c0,0,0.1-0.1,0.1,0c0,0.1,0.1,0.1,0.1,0.2
	c0.1,0.1,0.1,0.4,0.2,0.5c0,0.2,0.1,0.4,0.1,0.7c0.1,0.5,0.2,0.9,0.3,1.4c0.1,0.4,0.2,0.9,0.3,1.3c0.1,0.2,0.3,1.2,0.6,0.8
	c0.3-0.3,0.4-0.8,0.5-1.2c0.1-0.4,0.3-0.8,0.4-1.3c0.1-0.1,0.2-0.4,0.3-0.5c0.2-0.1,0.4,0.1,0.5,0.3c0.2,0.4,0.3,0.8,0.5,1.2
	c0.1,0.2,0.5,1.1,0.8,0.7c0.3-0.3,0.5-0.8,0.7-1.2c0.1-0.3,0.5-1,0.9-0.6c0.3,0.3,0.5,0.7,0.7,1.1c0.1,0.2,0.2,0.4,0.4,0.5
	c0.2,0.2,0.4-0.1,0.5-0.2c0.3-0.3,0.5-0.7,0.7-1.1c0.1-0.2,0.3-0.4,0.5-0.3c0.2,0,0.4,0.2,0.5,0.4c0.2,0.3,0.4,0.8,0.7,1.1
	c0.2,0.1,0.4,0.3,0.6,0.1c0.2-0.2,0.3-0.4,0.4-0.6c0.2-0.3,0.4-0.9,0.7-1.1c0.4-0.2,0.7,0.5,0.9,0.8c0.2,0.4,0.4,0.8,0.7,1.1
	c0.4,0.3,0.7-0.6,0.8-0.8c0.2-0.4,0.3-0.8,0.5-1.2c0.1-0.1,0.1-0.2,0.2-0.2c0.1-0.1,0.2,0,0.3,0.1c0.2,0.1,0.2,0.4,0.3,0.6
	c0.2,0.4,0.3,0.9,0.4,1.3c0.1,0.4,0.2,0.9,0.6,1.1c0.3,0.2,0.5-1,0.6-1.1c0.2-0.9,0.4-1.7,0.5-2.6c0.1-0.3,0.1-0.5,0.2-0.8
	c0-0.1,0.1-0.2,0.1-0.3c0.1-0.1,0.1-0.2,0.2-0.3c0.2,0.4,0.3,0.8,0.3,1.3c0.1,0.5,0.1,0.9,0.2,1.4c0.1,0.9,0.2,1.7,0.2,2.6
	c0.1,1.8,0.2,3.5,0.3,5.3c0.1,2,0.2,3.9,0.3,5.9c0.1,1.8,0.2,3.7,0.2,5.5c0.1,1.7,0.1,3.3,0.2,5c0.1,1.9,0.2,3.9,0.3,5.8
	c0.1,1.8,0.2,3.5,0.3,5.3c0.1,0.9,0.1,1.8,0.2,2.7c0,0.4,0.1,0.8,0.1,1.2c0.1,0.4,0.1,0.8,0.3,1.1c0.1-0.1,0.1-0.1,0.2-0.2
	c0-0.1,0.1-0.2,0.1-0.3c0.1-0.2,0.1-0.4,0.2-0.6c0.1-0.5,0.2-0.9,0.3-1.4c0.1-0.5,0.2-0.9,0.3-1.4c0-0.2,0.1-0.4,0.2-0.6
	c0.1-0.2,0.1-0.5,0.3-0.6c0.1,0,0.2,0,0.3,0.1c0.1,0.1,0.1,0.2,0.2,0.3c0.1,0.2,0.2,0.5,0.3,0.7c0.1,0.4,0.3,0.8,0.4,1.3
	c0.1,0.2,0.4,1.1,0.8,0.7c0.3-0.4,0.4-0.8,0.6-1.2c0.1-0.2,0.2-0.4,0.3-0.6c0.1-0.1,0.3-0.5,0.5-0.4c0.4,0.1,0.6,0.7,0.8,1
	c0.1,0.3,0.4,1,0.8,0.9c0.2,0,0.4-0.2,0.5-0.4c0.1-0.2,0.2-0.4,0.4-0.6c0.2-0.3,0.5-0.9,0.9-0.7c0.3,0.2,0.5,0.7,0.7,1
	c0.1,0.2,0.2,0.4,0.4,0.5c0.2,0.1,0.4,0,0.6-0.2c0.3-0.3,0.5-0.7,0.7-1.1c0.1-0.1,0.3-0.4,0.5-0.3c0.2,0.1,0.3,0.2,0.5,0.4
	c0.2,0.4,0.4,0.8,0.7,1.1c0.2,0.2,0.3,0.3,0.6,0.2c0.2-0.1,0.3-0.3,0.4-0.5c0.2-0.4,0.4-0.8,0.6-1.2c0.2-0.2,0.3-0.3,0.5-0.1
	c0.1,0.1,0.3,0.3,0.3,0.5c0.2,0.4,0.4,0.8,0.6,1.3c0.1,0.2,0.2,0.4,0.4,0.5c0.2,0.1,0.4-0.3,0.4-0.4c0.2-0.4,0.3-0.9,0.5-1.3
	c0.1-0.4,0.3-0.8,0.4-1.2c0.1-0.2,0.3-0.3,0.4-0.1c0.1,0.2,0.2,0.4,0.3,0.7c0.3,0.9,0.4,1.8,0.6,2.6c0.1,0.4,0.2,0.9,0.3,1.3
	c0,0.1,0.1,0.2,0.1,0.3c0.1,0.1,0.2,0,0.2-0.1c0.1-0.2,0.1-0.4,0.2-0.6c0.2-0.9,0.2-1.9,0.3-2.8c0.2-1.8,0.3-3.5,0.3-5.3
	c0.1-1.9,0.2-3.9,0.3-5.8c0.1-1.8,0.2-3.6,0.2-5.3c0-0.5,0-1,0.1-1.5"/>
</svg>
