<?xml version="1.0" encoding="utf-8"?>
<!-- Generator: Adobe Illustrator 18.0.0, SVG Export Plug-In . SVG Version: 6.00 Build 0)  -->
<!DOCTYPE svg PUBLIC "-//W3C//DTD SVG 1.1//EN" "http://www.w3.org/Graphics/SVG/1.1/DTD/svg11.dtd">
<svg version="1.1" id="Layer_1" xmlns="http://www.w3.org/2000/svg" xmlns:xlink="http://www.w3.org/1999/xlink" x="0px" y="0px"
	 viewBox="0 0 45 44" enable-background="new 0 0 45 44" xml:space="preserve">
<path fill="none" stroke="#000000" stroke-width="1.5" stroke-linecap="square" stroke-linejoin="round" stroke-miterlimit="10" d="
	M7.7,23.9l1.9-5.7c0,0,2.3,10.8,1.9,10.5c-0.4-0.4,0.8-15.1,0.8-15.1l2.1,17.1l2.3-14.3l2.1,15.4c0,0,2.5-24,2.2-23.9
	c-0.3,0.1,2.9,27.6,2.9,27.6l1.9-23.8l2.6,18.4l2.1-12.4l3.2,11.8l3.2-9.3l4.3,1.1"/>
<path fill="none" stroke="#000000" stroke-width="1.5" stroke-linecap="square" stroke-linejoin="round" stroke-miterlimit="10" d="
	M35.6,35.6c-7.8,7.8-20.5,7.8-28.3,0s-7.8-20.5,0-28.3s20.5-7.8,28.3,0"/>
<polyline fill="none" stroke="#000000" stroke-width="1.5" stroke-linecap="square" stroke-linejoin="round" stroke-miterlimit="10" points="
	37.4,5.5 37.4,9.5 33.4,9.5 "/>
<path fill="none" stroke="#000000" stroke-width="1.5" stroke-linecap="square" stroke-linejoin="round" stroke-miterlimit="10" d="
	M41.2,21c0.2,5.4-1.4,10.5-5.5,14.6"/>
</svg>
