<?xml version="1.0" encoding="utf-8"?>
<!-- Generator: Adobe Illustrator 18.0.0, SVG Export Plug-In . SVG Version: 6.00 Build 0)  -->
<!DOCTYPE svg PUBLIC "-//W3C//DTD SVG 1.1//EN" "http://www.w3.org/Graphics/SVG/1.1/DTD/svg11.dtd">
<svg version="1.1" id="Layer_1" xmlns="http://www.w3.org/2000/svg" xmlns:xlink="http://www.w3.org/1999/xlink" x="0px" y="0px"
	 viewBox="158 158 45 45" enable-background="new 158 158 45 45" xml:space="preserve">
<path fill="none" stroke="#000000" stroke-width="1.5" stroke-linecap="square" stroke-linejoin="round" stroke-miterlimit="10" d="
	M159,180.5c0.1-0.6,0.2-1.2,0.3-1.8c0.6-4,1.3-8.1,2.1-12.1c0.2-1,1.5-8.1,3.4-6.9c2.1,1.4,2.8,5.7,3.6,7.9c0.7,2,1.6,5.2,3.6,6.3
	c1.7,1,3.6-0.4,5.2,1.1c1.7,1.6,2.6,4.1,3.6,6.2c0.9,1.8,1.8,4.3,3.6,5.4c1.6,1,3.7-0.4,5.2,1.1c2,1.9,2.7,5.1,3.6,7.5
	c0.3,0.9,2,7.1,3.7,6.4c1.1-0.5,1.5-2.4,1.8-3.4c0.6-1.8,0.9-3.7,1.3-5.6c0.8-4,1.4-8,2-12"/>
</svg>
