<?xml version="1.0" encoding="utf-8"?>
<!-- Generator: Adobe Illustrator 21.0.0, SVG Export Plug-In . SVG Version: 6.00 Build 0)  -->
<svg version="1.1" id="Layer_1" xmlns="http://www.w3.org/2000/svg" xmlns:xlink="http://www.w3.org/1999/xlink" x="0px" y="0px"
	 viewBox="0 0 45 44" style="enable-background:new 0 0 45 44;" xml:space="preserve">
<style type="text/css">
	.st0{fill:none;stroke:#000000;stroke-width:1.5;stroke-miterlimit:10;}
</style>
<g>
	<line class="st0" x1="17.5" y1="41" x2="17.5" y2="42"/>
	<line class="st0" x1="12.5" y1="41" x2="12.5" y2="42"/>
	<line class="st0" x1="27.5" y1="41" x2="27.5" y2="42"/>
	<line class="st0" x1="22.5" y1="41" x2="22.5" y2="42"/>
	<line class="st0" x1="37.5" y1="41" x2="37.5" y2="42"/>
	<line class="st0" x1="32.5" y1="41" x2="32.5" y2="42"/>
</g>
<g>
	<line class="st0" x1="42" y1="41.5" x2="41" y2="41.5"/>
	<line class="st0" x1="42" y1="31.5" x2="41" y2="31.5"/>
	<line class="st0" x1="42" y1="36.5" x2="41" y2="36.5"/>
	<line class="st0" x1="42" y1="21.5" x2="41" y2="21.5"/>
	<line class="st0" x1="42" y1="26.5" x2="41" y2="26.5"/>
	<line class="st0" x1="42" y1="16.5" x2="41" y2="16.5"/>
</g>
<circle class="st0" cx="41.5" cy="3.5" r="2"/>
<path class="st0" d="M41.5,5.5c0,20.9-15.1,36-36,36"/>
<circle class="st0" cx="3.5" cy="41.6" r="2"/>
</svg>
