<?xml version="1.0" encoding="utf-8"?>
<!-- Generator: Adobe Illustrator 18.0.0, SVG Export Plug-In . SVG Version: 6.00 Build 0)  -->
<!DOCTYPE svg PUBLIC "-//W3C//DTD SVG 1.1//EN" "http://www.w3.org/Graphics/SVG/1.1/DTD/svg11.dtd">
<svg version="1.1" id="Layer_1" xmlns="http://www.w3.org/2000/svg" xmlns:xlink="http://www.w3.org/1999/xlink" x="0px" y="0px"
	 viewBox="158 158 45 45" enable-background="new 158 158 45 45" xml:space="preserve">
<path fill="none" stroke="#000000" stroke-width="1.5" stroke-linecap="square" stroke-linejoin="round" stroke-miterlimit="10" d="
	M159,180.5c0.5-5.2,1-10.4,1.8-15.6c0.2-1.3,0.4-2.6,0.7-3.9c0.1-0.6,0.3-1.2,0.7-1.7c0.1-0.2,0.3-0.4,0.6-0.3
	c0.3,0.1,0.5,0.4,0.6,0.7c0.6,1.1,1,2.3,1.5,3.4c0.2,0.5,0.6,1.2,1.1,1.4c0.6,0.1,1-0.5,1.3-0.9c0.3-0.5,0.6-1.1,0.9-1.6
	c0.3-0.5,0.6-1.1,1.1-1.4c0.6-0.3,1.1,0.2,1.4,0.6c0.4,0.5,0.6,1,0.9,1.5c0.3,0.5,0.6,1.1,1,1.5c0.2,0.2,0.5,0.3,0.7,0.3
	c0.3-0.1,0.5-0.3,0.6-0.5c0.4-0.5,0.6-1,0.8-1.6c0.2-0.6,0.5-1.1,0.7-1.7c0.2-0.5,0.5-1.2,0.9-1.6c0.5-0.5,0.9,0.2,1.1,0.6
	c0.5,1.2,0.7,2.5,0.9,3.7c0.4,2.6,0.8,5.2,1,7.9c0.6,5.2,1.1,10.5,1.6,15.7c0.3,2.7,0.6,5.3,0.9,8c0.2,1.3,0.4,2.6,0.7,3.9
	c0.1,0.6,0.3,1.2,0.5,1.8c0.1,0.4,0.4,1.4,1,1.2c1.2-0.4,2.2-6.4,3.8-5.4c0.5,0.3,0.8,0.9,1.1,1.4c0.3,0.5,0.6,1,0.9,1.5
	c0.3,0.4,0.7,1.1,1.3,1c0.6-0.1,0.9-0.7,1.2-1.2c0.3-0.5,0.6-1.1,0.9-1.6c0.3-0.4,0.6-1.1,1.2-1.2c0.6-0.1,1,0.6,1.3,1.1
	c0.3,0.6,0.5,1.1,0.8,1.7c0.2,0.6,0.5,1.2,0.8,1.7c0.2,0.3,0.6,1.3,1.1,0.9c0.2-0.1,0.3-0.4,0.4-0.6c0.1-0.3,0.2-0.6,0.3-0.9
	c0.2-0.6,0.3-1.2,0.4-1.9c0.5-2.6,0.8-5.2,1.1-7.7c0.3-2.6,0.6-5.2,0.8-7.8c0.1-0.8,0.2-1.7,0.2-2.5"/>
</svg>
