<?xml version="1.0" encoding="utf-8"?>
<!-- Generator: Adobe Illustrator 18.0.0, SVG Export Plug-In . SVG Version: 6.00 Build 0)  -->
<!DOCTYPE svg PUBLIC "-//W3C//DTD SVG 1.1//EN" "http://www.w3.org/Graphics/SVG/1.1/DTD/svg11.dtd">
<svg version="1.1" id="Layer_1" xmlns="http://www.w3.org/2000/svg" xmlns:xlink="http://www.w3.org/1999/xlink" x="0px" y="0px"
	 viewBox="158 158 45 45" enable-background="new 158 158 45 45" xml:space="preserve">
<path fill="none" stroke="#000000" stroke-width="1.5" stroke-linecap="square" stroke-linejoin="round" stroke-miterlimit="10" d="
	M159,180.5c0.2-2,0.5-3.9,0.7-5.9c0.5-4.2,1-8.4,2.1-12.5c0.2-0.9,0.7-3.2,1.9-2.6c1,0.5,1.5,3.1,1.8,4c0.7,2,1.4,6.5,3.6,7.5
	c1.6,0.7,3-1.2,4.5,0.7c1.6,1.9,2.3,4.5,3.6,6.6c0.4,0.7,1,1.5,1.8,1.8c0.9,0.4,2,0.1,2.9,0.4c3.6,1.4,3.3,9.6,7.5,9.5
	c0.8,0,1.5-0.6,2.4-0.4c0.9,0.3,1.4,1.4,1.8,2.2c0.8,1.6,1.3,3.3,1.8,5c0.4,1.1,0.8,3.5,1.8,4.3c2,1.5,3-6.7,3.2-7.9
	c0.7-4.3,1.2-8.6,1.7-12.9"/>
</svg>
