<?xml version="1.0" encoding="utf-8"?>
<!-- Generator: Adobe Illustrator 18.0.0, SVG Export Plug-In . SVG Version: 6.00 Build 0)  -->
<!DOCTYPE svg PUBLIC "-//W3C//DTD SVG 1.1//EN" "http://www.w3.org/Graphics/SVG/1.1/DTD/svg11.dtd">
<svg version="1.1" id="Layer_1" xmlns="http://www.w3.org/2000/svg" xmlns:xlink="http://www.w3.org/1999/xlink" x="0px" y="0px"
	 viewBox="158 158 45 45" enable-background="new 158 158 45 45" xml:space="preserve">
<path fill="none" stroke="#000000" stroke-width="1.5" stroke-linecap="square" stroke-linejoin="round" stroke-miterlimit="10" d="
	M159,180.5c0.3-3.8,0.6-7.7,0.9-11.5c0.2-2,0.4-4,0.6-6c0.1-0.4,0.7-4.6,1.4-3.8c1,1.2,1,3,1.7,4.4c1,2,2-0.9,2.4-1.7
	c1-1.9,1.9-0.2,2.6,1c1.4,2.3,2.2-0.4,3.2-1.5c1.1-1.3,2,1.5,2.4,2.2c1.3,2.3,2.1-1,2.4-2.1c0.3-0.9,1.1-3.5,1.7-1.3
	c0.5,2,0.7,4,0.9,6.1c0.8,7.8,1.2,15.7,1.9,23.5c0.3,3.2,0.5,6.5,1,9.7c0.1,0.3,0.5,3.2,1.1,2.6c0.9-0.8,1-2.6,1.4-3.7
	c1.5-4.1,2.1,1.9,3.7,2c1,0,1.6-2.2,2.3-2.8c1-0.8,1.9,1.6,2.3,2.2c1.8,2.6,2.8-4.8,4.2-2.2c0.6,1.2,0.9,2.6,1.4,3.9
	c0.8,1.9,1.4-0.9,1.5-1.7c1.1-6.3,1.3-12.7,1.8-19"/>
</svg>
