<?xml version="1.0" encoding="utf-8"?>
<!-- Generator: Adobe Illustrator 21.0.2, SVG Export Plug-In . SVG Version: 6.00 Build 0)  -->
<svg version="1.1" id="Layer_1" xmlns="http://www.w3.org/2000/svg" xmlns:xlink="http://www.w3.org/1999/xlink" x="0px" y="0px"
	 viewBox="0 0 45 44" style="enable-background:new 0 0 45 44;" xml:space="preserve">
<style type="text/css">
	.st0{fill:none;stroke:#000000;stroke-width:1.5;stroke-miterlimit:10;}
	.st1{fill:none;stroke:#000000;stroke-miterlimit:10;}
</style>
<rect x="1.5" y="1.5" class="st0" width="42" height="41"/>
<line class="st1" x1="12" y1="14.5" x2="15" y2="14.5"/>
<line class="st1" x1="12" y1="18.5" x2="15" y2="18.5"/>
<line class="st1" x1="12" y1="22.5" x2="15" y2="22.5"/>
<line class="st1" x1="12" y1="26.5" x2="15" y2="26.5"/>
<line class="st0" x1="13.5" y1="42.1" x2="13.5" y2="30.4"/>
<line class="st0" x1="13.5" y1="11.1" x2="13.5" y2="2.1"/>
<line class="st1" x1="21" y1="16.5" x2="24" y2="16.5"/>
<line class="st1" x1="21" y1="20.5" x2="24" y2="20.5"/>
<line class="st1" x1="21" y1="24.5" x2="24" y2="24.5"/>
<line class="st1" x1="21" y1="28.5" x2="24" y2="28.5"/>
<line class="st1" x1="30" y1="18.5" x2="33" y2="18.5"/>
<line class="st1" x1="30" y1="22.5" x2="33" y2="22.5"/>
<line class="st1" x1="30" y1="26.5" x2="33" y2="26.5"/>
<line class="st1" x1="30" y1="30.5" x2="33" y2="30.5"/>
</svg>
