<?xml version="1.0" encoding="utf-8"?>
<!-- Generator: Adobe Illustrator 21.0.2, SVG Export Plug-In . SVG Version: 6.00 Build 0)  -->
<svg version="1.1" id="Layer_1" xmlns="http://www.w3.org/2000/svg" xmlns:xlink="http://www.w3.org/1999/xlink" x="0px" y="0px"
	 viewBox="0 0 45 44" style="enable-background:new 0 0 45 44;" xml:space="preserve">
<style type="text/css">
	.st0{display:none;}
	.st1{display:inline;fill:none;stroke:#000000;stroke-width:1.5;stroke-miterlimit:10;}
	.st2{fill:none;stroke:#000000;stroke-width:1.5;stroke-miterlimit:10;}
</style>
<g class="st0">
	<rect x="16.5" y="1.5" class="st1" width="11.9" height="19"/>
	<rect x="16.5" y="23.5" class="st1" width="11.9" height="19"/>
	<line class="st1" x1="37.6" y1="21.4" x2="45" y2="21.4"/>
	<line class="st1" x1="0.2" y1="9.5" x2="15.6" y2="9.5"/>
	<line class="st1" x1="0.2" y1="33.5" x2="15.6" y2="33.5"/>
	<polyline class="st1" points="29.2,9.4 37.3,9.4 37.3,33.5 29,33.5 	"/>
</g>
<rect x="16.5" y="1.5" class="st2" width="11.9" height="19"/>
<rect x="16.5" y="23.5" class="st2" width="11.9" height="19"/>
<line class="st2" x1="37.8" y1="21.6" x2="45" y2="21.6"/>
<polyline class="st2" points="29.4,9.2 37.6,9.2 37.6,34.3 29.2,34.3 "/>
<line class="st2" x1="7.4" y1="21.6" x2="0.2" y2="21.6"/>
<polyline class="st2" points="15.8,34.3 7.6,34.3 7.6,9.2 16,9.2 "/>
</svg>
