<?xml version="1.0" encoding="utf-8"?>
<!-- Generator: Adobe Illustrator 21.0.2, SVG Export Plug-In . SVG Version: 6.00 Build 0)  -->
<svg version="1.1" id="Layer_1" xmlns="http://www.w3.org/2000/svg" xmlns:xlink="http://www.w3.org/1999/xlink" x="0px" y="0px"
	 viewBox="0 0 45 44" style="enable-background:new 0 0 45 44;" xml:space="preserve">
<style type="text/css">
	.st0{fill:none;stroke:#000000;stroke-width:1.5;stroke-linecap:round;stroke-linejoin:round;stroke-miterlimit:10;}
</style>
<title>Envelope_Retrigger_2</title>
<path class="st0" d="M-16.6,42.7L-16.6,42.7c-2.4,0-4.4-2-4.4-4.4V25.8c0-2.4,2-4.4,4.4-4.4h0c2.4,0,4.4,2,4.4,4.4v12.5
	C-12.2,40.8-14.2,42.7-16.6,42.7z"/>
<path class="st0" d="M61,36c0.1,2.5-0.2,5.9,0.8,5.9c1.6,0,2.6-8,4.3-8c1.6,0,1.6,8,3.3,8c1.7,0,1.7-8,3.3-8s1.7,8,3.3,8"/>
<path class="st0" d="M61,36"/>
<g>
	<path class="st0" d="M84.2,46.5c1.6,0,1.6,8,3.3,8c1.6,0,1.6-8,3.3-8c1.6,0,1.6,8,3.3,8c1.7,0,1.7-8,3.3-8c1.7,0,1.7,8,3.3,8"/>
</g>
<line class="st0" x1="61" y1="36" x2="61" y2="6.3"/>
<g>
	<path class="st0" d="M3.5,10C3.6,7.3,3,2.3,5,2.3c3.1,0,5,10,8.1,10"/>
	<path class="st0" d="M3.5,10"/>
	<line class="st0" x1="3.5" y1="10" x2="3.5" y2="42"/>
	<path class="st0" d="M22.4,10c-0.1-2.8,0.5-7.7-1.5-7.7c-3.1,0-5,10-8.1,10"/>
	<path class="st0" d="M22.4,10"/>
	<g>
		<path class="st0" d="M41.6,34.5c-0.1,2.8,0.2,7.6-1.8,7.6c-3.1,0-5-10-8.1-10"/>
		<path class="st0" d="M41.6,34.5"/>
		<line class="st0" x1="41.6" y1="34.1" x2="41.6" y2="2.5"/>
		<path class="st0" d="M22.4,34.4c0.1,2.8-0.5,7.7,1.5,7.7c3.1,0,5-10,8.1-10"/>
	</g>
	<path class="st0" d="M22.4,34.4"/>
	<polyline class="st0" points="22.4,34 22.4,31.4 22.4,30.8 22.4,10 	"/>
</g>
</svg>
