<?xml version="1.0" encoding="utf-8"?>
<!-- Generator: Adobe Illustrator 18.0.0, SVG Export Plug-In . SVG Version: 6.00 Build 0)  -->
<!DOCTYPE svg PUBLIC "-//W3C//DTD SVG 1.1//EN" "http://www.w3.org/Graphics/SVG/1.1/DTD/svg11.dtd">
<svg version="1.1" id="Layer_1" xmlns="http://www.w3.org/2000/svg" xmlns:xlink="http://www.w3.org/1999/xlink" x="0px" y="0px"
	 viewBox="158 158 45 45" enable-background="new 158 158 45 45" xml:space="preserve">
<path fill="none" stroke="#000000" stroke-width="1.5" stroke-linecap="square" stroke-linejoin="round" stroke-miterlimit="10" d="
	M159,180.4c0.3-4.6,0.6-9.2,1-13.8c0.2-2.1,0.3-4.3,0.8-6.4c0.6-3.1,1.4-0.1,1.7,1.4c0.4,1.6,0.5,3.8,1.5,5.1c0.6,0.8,1.4-0.7,1.9-1
	c1.4-0.9,2.4,4.9,3.8,5.3c1,0.2,1.4-0.6,2.3,0.4c0.8,0.9,1.1,2.3,1.8,3.3c0.7,1.1,1.4,0.6,2.4,1c0.9,0.3,1.4,1.5,1.8,2.3
	c0.4,0.8,0.9,2,1.8,2.3c1.1,0.4,1.7,0,2.4,1.1c0.7,1,1,2.2,1.8,3.1c0.8,0.9,1.5,0.4,2.4,0.8c1.9,0.9,1.5,4.6,3.9,4.7
	c1.1,0.1,1.4-0.4,2.1,0.8c0.6,1.1,0.9,3.1,1.8,3.9c0.9,0.8,1.2-0.1,1.9-0.8c1.1-1,1.7,2.2,1.8,2.8c0.2,0.9,0.6,4.8,1.4,5.1
	c0.9,0.4,1.2-4.1,1.3-4.9c0.6-5.5,0.9-11.1,1.3-16.7"/>
</svg>
