<?xml version="1.0" encoding="utf-8"?>
<!-- Generator: Adobe Illustrator 21.0.0, SVG Export Plug-In . SVG Version: 6.00 Build 0)  -->
<svg version="1.1" id="Layer_1" xmlns="http://www.w3.org/2000/svg" xmlns:xlink="http://www.w3.org/1999/xlink" x="0px" y="0px"
	 viewBox="0 0 45 44" style="enable-background:new 0 0 45 44;" xml:space="preserve">
<style type="text/css">
	.st0{fill:none;stroke:#000000;stroke-width:1.5;stroke-miterlimit:10;}
</style>
<rect x="3.5" y="-1.5" transform="matrix(1.364248e-11 -1 1 1.364248e-11 3 14)" class="st0" width="10" height="14"/>
<rect x="3.5" y="21.5" transform="matrix(1.364248e-11 -1 1 1.364248e-11 -20 37)" class="st0" width="10" height="14"/>
<g>
	<g>
		<line class="st0" x1="35" y1="24.5" x2="38" y2="24.5"/>
		<line class="st0" x1="33" y1="27.5" x2="40" y2="27.5"/>
		<line class="st0" x1="31" y1="30.5" x2="42" y2="30.5"/>
	</g>
	<g>
		<line class="st0" x1="35" y1="1.5" x2="38" y2="1.5"/>
		<line class="st0" x1="33" y1="4.5" x2="40" y2="4.5"/>
		<line class="st0" x1="31" y1="7.5" x2="42" y2="7.5"/>
	</g>
</g>
<g>
	<g>
		<line class="st0" x1="10" y1="19.5" x2="7" y2="19.5"/>
		<line class="st0" x1="12" y1="16.5" x2="5" y2="16.5"/>
		<line class="st0" x1="14" y1="13.5" x2="3" y2="13.5"/>
	</g>
	<g>
		<line class="st0" x1="10" y1="42.5" x2="7" y2="42.5"/>
		<line class="st0" x1="12" y1="39.5" x2="5" y2="39.5"/>
		<line class="st0" x1="14" y1="36.5" x2="3" y2="36.5"/>
	</g>
</g>
<rect x="31.5" y="31.5" transform="matrix(-1.364260e-11 1 -1 -1.364260e-11 75 2)" class="st0" width="10" height="14"/>
<rect x="31.5" y="8.5" transform="matrix(-1.364260e-11 1 -1 -1.364260e-11 52 -21)" class="st0" width="10" height="14"/>
<line class="st0" x1="22.5" y1="0" x2="22.5" y2="44"/>
</svg>
