<?xml version="1.0" encoding="utf-8"?>
<!-- Generator: Adobe Illustrator 21.0.0, SVG Export Plug-In . SVG Version: 6.00 Build 0)  -->
<svg version="1.1" id="Layer_1" xmlns="http://www.w3.org/2000/svg" xmlns:xlink="http://www.w3.org/1999/xlink" x="0px" y="0px"
	 viewBox="0 0 45 44" style="enable-background:new 0 0 45 44;" xml:space="preserve">
<style type="text/css">
	.st0{fill:none;stroke:#000000;stroke-width:1.5;stroke-miterlimit:10;}
</style>
<rect x="1.5" y="9.5" class="st0" width="42" height="25"/>
<polyline class="st0" points="22.5,7.5 22.5,1.5 39.5,1.5 39.5,7.5 "/>
<polyline class="st0" points="5.5,36.5 5.5,42.5 39.5,42.5 39.5,36.5 "/>
<g>
	<path d="M10,24.1l0.9-0.4c0.4,1.5,1.5,2.6,3.2,2.6c1.6,0,2.6-1,2.6-2.3c0-1.6-1.4-2-2.9-2.5c-1.7-0.5-3.2-1.1-3.2-3
		c0-1.7,1.3-3,3.3-3c1.8,0,2.9,0.9,3.4,2.2l-0.9,0.4c-0.5-1.2-1.5-1.7-2.5-1.7c-1.4,0-2.3,0.9-2.3,2c0,1.4,1.1,1.8,2.5,2.2
		c1.6,0.5,3.5,1.2,3.5,3.4c0,1.8-1.3,3.2-3.6,3.2C12,27.2,10.5,26,10,24.1z"/>
	<path d="M25.7,19v8h-0.9v-0.9c-0.5,0.7-1.2,1.1-2.3,1.1c-1.8,0-2.9-1.2-2.9-3V19h1v5.1c0,1.5,0.9,2.2,2.1,2.2
		c1.2,0,2.1-0.8,2.1-2.3V19H25.7z"/>
	<path d="M35.3,23c0,2.4-1.3,4.2-3.4,4.2c-1.2,0-2.1-0.5-2.7-1.4V27h-1V15.7h1v4.5c0.6-0.9,1.5-1.4,2.7-1.4
		C34,18.8,35.3,20.6,35.3,23z M34.3,23c0-2-1-3.3-2.6-3.3c-1.5,0-2.6,1.4-2.6,3.3c0,2.1,1.1,3.3,2.6,3.3C33.3,26.3,34.3,25,34.3,23z
		"/>
</g>
<polyline class="st0" points="20.6,1.5 5.6,1.5 5.6,7.5 "/>
</svg>
