<?xml version="1.0" encoding="utf-8"?>
<!-- Generator: Adobe Illustrator 18.0.0, SVG Export Plug-In . SVG Version: 6.00 Build 0)  -->
<!DOCTYPE svg PUBLIC "-//W3C//DTD SVG 1.1//EN" "http://www.w3.org/Graphics/SVG/1.1/DTD/svg11.dtd">
<svg version="1.1" id="Layer_1" xmlns="http://www.w3.org/2000/svg" xmlns:xlink="http://www.w3.org/1999/xlink" x="0px" y="0px"
	 viewBox="158 158 45 45" enable-background="new 158 158 45 45" xml:space="preserve">
<path fill="none" stroke="#000000" stroke-width="1.5" stroke-linecap="square" stroke-linejoin="round" stroke-miterlimit="10" d="
	M159,180.8c0.4-4.5,0.9-8.9,1.5-13.4c0.3-2.1,0.5-4.4,1.1-6.5c0.4-1.5,1-2.4,1.9-0.7c0.9,1.8,1.2,3.8,1.8,5.7c0.3,1,0.8,3,1.8,3.6
	c1.7,0.8,2.6-1.7,4.2,0.5c1.4,1.9,1.7,5,3.6,6.4c0.9,0.7,1.8,0.2,2.8,0.6c0.8,0.3,1.4,1.1,1.8,1.8c1,1.7,1.7,4.7,3.6,5.7
	c0.9,0.5,1.9,0,2.8,0.5c0.9,0.5,1.4,1.5,1.8,2.3c0.7,1.4,1.8,5.6,3.9,5.4c0.7-0.1,1.3-0.8,2-0.7c1.1,0.2,1.6,1.8,1.9,2.7
	c0.7,1.9,1.1,3.9,1.8,5.8c0.3,0.8,1.1,3.1,1.9,1.3c1.6-3.7,1.6-8.6,2.1-12.5c0.3-2.8,0.6-5.6,0.9-8.4"/>
</svg>
