<?xml version="1.0" encoding="utf-8"?>
<!-- Generator: Adobe Illustrator 18.0.0, SVG Export Plug-In . SVG Version: 6.00 Build 0)  -->
<!DOCTYPE svg PUBLIC "-//W3C//DTD SVG 1.1//EN" "http://www.w3.org/Graphics/SVG/1.1/DTD/svg11.dtd">
<svg version="1.1" id="Layer_1" xmlns="http://www.w3.org/2000/svg" xmlns:xlink="http://www.w3.org/1999/xlink" x="0px" y="0px"
	 viewBox="0 0 45 45" enable-background="new 0 0 45 45" xml:space="preserve">
<g>
	<g>
		<g opacity="0.4">
			<rect x="42" y="0" fill="#FFFFFF" width="3" height="3"/>
		</g>
		<g opacity="0.4">
			<rect x="36" y="0" fill="#FFFFFF" width="3" height="3"/>
		</g>
		<g opacity="0.4">
			<rect x="30" y="0" fill="#FFFFFF" width="3" height="3"/>
		</g>
		<g opacity="0.4">
			<rect x="24" y="0" fill="#FFFFFF" width="3" height="3"/>
		</g>
		<g opacity="0.4">
			<rect x="18" y="0" fill="#FFFFFF" width="3" height="3"/>
		</g>
		<g opacity="0.4">
			<rect x="12" y="0" fill="#FFFFFF" width="3" height="3"/>
		</g>
		<g opacity="0.4">
			<rect x="6" y="0" fill="#FFFFFF" width="3" height="3"/>
		</g>
		<g opacity="0.4">
			<rect y="0" fill="#FFFFFF" width="3" height="3"/>
		</g>
	</g>
	<g>
		<g>
			<rect x="42" y="6" fill="#FFFFFF" width="3" height="3"/>
		</g>
		<g>
			<rect x="36" y="6" fill="#FFFFFF" width="3" height="3"/>
		</g>
		<g>
			<rect x="30" y="6" fill="#FFFFFF" width="3" height="3"/>
		</g>
		<g>
			<rect x="24" y="6" fill="#FFFFFF" width="3" height="3"/>
		</g>
		<g>
			<rect x="18" y="6" fill="#FFFFFF" width="3" height="3"/>
		</g>
		<g>
			<rect x="12" y="6" fill="#FFFFFF" width="3" height="3"/>
		</g>
		<g>
			<rect x="6" y="6" fill="#FFFFFF" width="3" height="3"/>
		</g>
		<g>
			<rect y="6" fill="#FFFFFF" width="3" height="3"/>
		</g>
	</g>
	<g>
		<g opacity="0.4">
			<rect x="42" y="12" fill="#FFFFFF" width="3" height="3"/>
		</g>
		<g opacity="0.4">
			<rect x="36" y="12" fill="#FFFFFF" width="3" height="3"/>
		</g>
		<g opacity="0.4">
			<rect x="30" y="12" fill="#FFFFFF" width="3" height="3"/>
		</g>
		<g opacity="0.4">
			<rect x="24" y="12" fill="#FFFFFF" width="3" height="3"/>
		</g>
		<g opacity="0.4">
			<rect x="18" y="12" fill="#FFFFFF" width="3" height="3"/>
		</g>
		<g opacity="0.4">
			<rect x="12" y="12" fill="#FFFFFF" width="3" height="3"/>
		</g>
		<g opacity="0.4">
			<rect x="6" y="12" fill="#FFFFFF" width="3" height="3"/>
		</g>
		<g opacity="0.4">
			<rect y="12" fill="#FFFFFF" width="3" height="3"/>
		</g>
	</g>
	<g opacity="0.4">
		<g>
			<rect x="42" y="18" fill="#FFFFFF" width="3" height="3"/>
		</g>
		<g>
			<rect x="36" y="18" fill="#FFFFFF" width="3" height="3"/>
		</g>
		<g>
			<rect x="30" y="18" fill="#FFFFFF" width="3" height="3"/>
		</g>
		<g>
			<rect x="24" y="18" fill="#FFFFFF" width="3" height="3"/>
		</g>
		<g>
			<rect x="18" y="18" fill="#FFFFFF" width="3" height="3"/>
		</g>
		<g>
			<rect x="12" y="18" fill="#FFFFFF" width="3" height="3"/>
		</g>
		<g>
			<rect x="6" y="18" fill="#FFFFFF" width="3" height="3"/>
		</g>
		<g>
			<rect y="18" fill="#FFFFFF" width="3" height="3"/>
		</g>
	</g>
	<g opacity="0.4">
		<g>
			<rect x="42" y="24" fill="#FFFFFF" width="3" height="3"/>
		</g>
		<g>
			<rect x="36" y="24" fill="#FFFFFF" width="3" height="3"/>
		</g>
		<g>
			<rect x="30" y="24" fill="#FFFFFF" width="3" height="3"/>
		</g>
		<g>
			<rect x="24" y="24" fill="#FFFFFF" width="3" height="3"/>
		</g>
		<g>
			<rect x="18" y="24" fill="#FFFFFF" width="3" height="3"/>
		</g>
		<g>
			<rect x="12" y="24" fill="#FFFFFF" width="3" height="3"/>
		</g>
		<g>
			<rect x="6" y="24" fill="#FFFFFF" width="3" height="3"/>
		</g>
		<g>
			<rect y="24" fill="#FFFFFF" width="3" height="3"/>
		</g>
	</g>
	<g opacity="0.4">
		<g>
			<rect x="42" y="30" fill="#FFFFFF" width="3" height="3"/>
		</g>
		<g>
			<rect x="36" y="30" fill="#FFFFFF" width="3" height="3"/>
		</g>
		<g>
			<rect x="30" y="30" fill="#FFFFFF" width="3" height="3"/>
		</g>
		<g>
			<rect x="24" y="30" fill="#FFFFFF" width="3" height="3"/>
		</g>
		<g>
			<rect x="18" y="30" fill="#FFFFFF" width="3" height="3"/>
		</g>
		<g>
			<rect x="12" y="30" fill="#FFFFFF" width="3" height="3"/>
		</g>
		<g>
			<rect x="6" y="30" fill="#FFFFFF" width="3" height="3"/>
		</g>
		<g>
			<rect y="30" fill="#FFFFFF" width="3" height="3"/>
		</g>
	</g>
	<g opacity="0.4">
		<g>
			<rect x="42" y="36" fill="#FFFFFF" width="3" height="3"/>
		</g>
		<g>
			<rect x="36" y="36" fill="#FFFFFF" width="3" height="3"/>
		</g>
		<g>
			<rect x="30" y="36" fill="#FFFFFF" width="3" height="3"/>
		</g>
		<g>
			<rect x="24" y="36" fill="#FFFFFF" width="3" height="3"/>
		</g>
		<g>
			<rect x="18" y="36" fill="#FFFFFF" width="3" height="3"/>
		</g>
		<g>
			<rect x="12" y="36" fill="#FFFFFF" width="3" height="3"/>
		</g>
		<g>
			<rect x="6" y="36" fill="#FFFFFF" width="3" height="3"/>
		</g>
		<g>
			<rect y="36" fill="#FFFFFF" width="3" height="3"/>
		</g>
	</g>
	<g opacity="0.4">
		<g>
			<rect x="42" y="42" fill="#FFFFFF" width="3" height="3"/>
		</g>
		<g>
			<rect x="36" y="42" fill="#FFFFFF" width="3" height="3"/>
		</g>
		<g>
			<rect x="30" y="42" fill="#FFFFFF" width="3" height="3"/>
		</g>
		<g>
			<rect x="24" y="42" fill="#FFFFFF" width="3" height="3"/>
		</g>
		<g>
			<rect x="18" y="42" fill="#FFFFFF" width="3" height="3"/>
		</g>
		<g>
			<rect x="12" y="42" fill="#FFFFFF" width="3" height="3"/>
		</g>
		<g>
			<rect x="6" y="42" fill="#FFFFFF" width="3" height="3"/>
		</g>
		<g>
			<rect y="42" fill="#FFFFFF" width="3" height="3"/>
		</g>
	</g>
</g>
</svg>
